<svg id="Layer_1" data-name="Layer 1" xmlns="http://www.w3.org/2000/svg" viewBox="0 0 2131.49 1487.29"><defs><style>.cls-1{fill:#0ec903;opacity:0.1;}.cls-2{fill:#256653;}.cls-3{fill:#3c8f7c;}.cls-4{fill:#327f6b;}.cls-5{fill:#50bfa5;}.cls-6{fill:#96d9c9;}.cls-7{fill:#f8a492;}.cls-8{fill:#355389;}.cls-9{fill:#fe875e;}.cls-10{fill:#13375b;}.cls-11{fill:#f7cc7f;}.cls-12{fill:#f48c7f;}.cls-13{fill:#3565a3;}.cls-14{fill:#92c3fb;}.cls-15{fill:#184655;}.cls-16{fill:#f7a491;}.cls-17{fill:#466eb6;}.cls-18{fill:#f47458;}.cls-19{fill:#fff;}.cls-20{fill:#dd513a;}.cls-21{fill:#e0973f;}.cls-22{fill:#0e2e35;}.cls-23{fill:#6a97ce;}.cls-24{fill:#9bc1f9;}</style></defs><path class="cls-1" d="M488.7,1780H2352.61c154.49-128.88,75-516.68-54.06-595.29-138.9-84.62,81.67-377.28-132.31-472.27-139.71-62-361.9,5.58-332-160.36,41.45-230.1-443-289.06-799.87-227-385.84,67.05-33.49,396.75-457.8,463.18-218.19,34.16-176,326.4-155.68,386.79,17.72,52.59,135,136-28,250.91C154,1594.42,483.07,1776.92,488.7,1780Z" transform="translate(-306.04 -302)"/><path class="cls-2" d="M2144.33,795.73s-30.51,66.43-51,94.49-40.09,54.89-56.47,132.77-13.57,85.7-18.06,105.82-33.66,101.61-33.83,116.56-59,100-74,139.83-41.75,96.7-40.25,125.66l6.71-1.7s5.46-67.52,52-135.76,39.83-81.13,92.63-116.18,86.88-131.89,86.88-131.89,53.71-105.19,51.21-159.87S2171.76,861.47,2144.33,795.73Z" transform="translate(-306.04 -302)"/><path class="cls-2" d="M2072.88,693.56s-1.78,43.64-15.86,69.56-26.2,41.66-28.75,69.71-11.4,100.35-50.64,135.65-44.27,141.06-74.14,173.06-33.78,55-28.26,109.86,24.26,130.93-19.08,230.19l-9.8-24.69s31-81.66,23.5-129.48-33.62-120.07-24.06-154.72-26-41.42-4.59-93.83,12.62-70.62,41.76-115.94c0,0,3-2.12,10.65-40.46s69.42-108.61,97.88-132.59S2061,727.47,2072.88,693.56Z" transform="translate(-306.04 -302)"/><path class="cls-3" d="M1956.94,909.61s-34.08,58.35-34.57,95.91,3.59,68.12-13.66,119.55,17,84,7.12,112.35-10.63,62-10.33,87.51-39,109.88-45,152.61,1.67,42.86,1.67,42.86,6.52-56.41,15.57-75.06,36.58-83,43-107.84,23.86-40.84,38.89-83,36.41-77.62,34.78-137.41S2016.82,994.21,1956.94,909.61Z" transform="translate(-306.04 -302)"/><path class="cls-3" d="M1884.78,1481.25s15.9-74.06,82.92-81.46,106.4,5.86,153.75-48.25,74.85-140,90-154.75c0,0-23.79-12.24-63.34,24.74s-67.33,65-90.23,86.55-41.49,7.49-65.67,21.69c-20.26,11.89-46.46,46.27-58,64.28a81.87,81.87,0,0,1-13.3,15.93c-4.64,4.28-10.18,9.53-13.72,13.4-7.1,7.73-27.57,58.13-27.57,58.13Z" transform="translate(-306.04 -302)"/><path class="cls-3" d="M1861.16,1468.18s23.62-90.57,7.8-134.89-65.35-77.12-63.36-105,33.79-103.1,7.86-159.12c0,0-9.85,50-19.57,61.09s-76.41,56-64.59,115.15,76.66,73,92.63,90.48,37.53,17.41,37.67,29,4.34,53.73-2.82,95.31Z" transform="translate(-306.04 -302)"/><path class="cls-4" d="M1887,1407.57l33.18-95.59s19.5-76.88,30.8-141,6-261.37,6-261.37-34.08,58.35-34.57,95.91,3.59,68.12-13.66,119.55,17,84,7.12,112.35-10.63,62-10.33,87.51-39,109.88-45,152.61c-3.28,23.4-2.46,34-1.06,38.84C1854.09,1479,1887,1407.57,1887,1407.57Z" transform="translate(-306.04 -302)"/><path class="cls-4" d="M2050.44,1350.63c-29.6,5.91-56.07,3.89-91.21,30s-55.81,54.09-55.81,54.09-15.8,28.23-22.33,43.11c-.94,2.28-1.49,3.63-1.49,3.63l5.18-.26s15.9-74.06,82.92-81.46,106.4,5.86,153.75-48.25,74.85-140,90-154.75c0,0-50.36,39.18-81.48,73.85S2080.05,1344.72,2050.44,1350.63Z" transform="translate(-306.04 -302)"/><path class="cls-4" d="M1793.89,1130.3c-9.72,11.12-76.41,56-64.59,115.15s76.66,73,92.63,90.48,37.53,17.41,37.67,29,4.34,53.73-2.82,95.31l1.91,3.47c3.5-16.23,8.36-40.94,9.94-59.71,2.58-30.48-2.36-43.09-12.15-67.78s-70.66-75-85.92-101.41,29.41-70.63,39.33-92,3.57-73.64,3.57-73.64S1803.61,1119.18,1793.89,1130.3Z" transform="translate(-306.04 -302)"/><path class="cls-5" d="M1952.11,1424.43l10.42-25.18c8.09-18.52,28.77-27.37,46.21-19.76h0c43.93,19.18,63,72.56,42.66,119.23l-14.9,34.12c-6.52,15-4.25,31.39,4.55,43,8,10.53,9.3,25.17,3.76,37.86l-7.86,18a71.55,71.55,0,0,1-44.66,39.85,43.35,43.35,0,0,0-27,24.36l-11.12,25.47c-12.29,28.16-43.75,41.6-70.25,30l-15.13-6.6c-26.5-11.57-38-43.78-25.73-71.93h0c19.87-33.67,18.29-58.8,11.24-75.85a102,102,0,0,1,1-79.56l1.57-3.59a101.25,101.25,0,0,1,61.86-56C1930.74,1454.06,1943.25,1444.72,1952.11,1424.43Z" transform="translate(-306.04 -302)"/><path class="cls-6" d="M1764.52,1780c21.32-27.65,138.23-175.74,214.46-200.41,84.14-27.24,4.84,81,4.84,81s149.27-163.22,204-148.51c50.22,13.49,0,114.66,0,114.66s56.56-56,125.14-56c66.75,0-46.63,198.69-52.75,209.33Z" transform="translate(-306.04 -302)"/><path class="cls-3" d="M2214.37,1459.66a983.57,983.57,0,0,0-130.95,313.47l-4.18-1.12a989.86,989.86,0,0,1,130.44-310.83c14.15-22.11,29.43-48.34,55.93-57,.51-.16.7.61.21.8C2241.62,1414.12,2227.61,1439,2214.37,1459.66Z" transform="translate(-306.04 -302)"/><path class="cls-3" d="M2098.12,1777.07a1229.28,1229.28,0,0,1,249.53-252.82c1-.74,2.31,1,1.32,1.73a1227.83,1227.83,0,0,0-245.67,252.48Z" transform="translate(-306.04 -302)"/><path class="cls-3" d="M2219.94,1400.59c1.57,2.31,7.58,8.33,9.35,16.24,2.37,7.51.5,16.9.3,16.58-.46.18,6.95-6.08,9.26-16,3-9.56.9-22.81-2.82-27.2-6.44-9.92-17.68-10.93-19.87-6.12S2216.78,1395.34,2219.94,1400.59Z" transform="translate(-306.04 -302)"/><path class="cls-3" d="M2234.53,1485.61c-2.28-1.61-8.18-7.74-16.05-9.66-7.46-2.52-16.89-.83-16.57-.63-.19.45,6.22-6.83,16.22-9,9.61-2.8,22.82-.44,27.14,3.37,9.79,6.63,10.58,17.89,5.72,20S2239.72,1488.87,2234.53,1485.61Z" transform="translate(-306.04 -302)"/><path class="cls-3" d="M2212.51,1522.88c-2.27-1.62-8.18-7.75-16.05-9.67-7.46-2.52-16.89-.83-16.56-.62-.2.45,6.21-6.84,16.21-8.95,9.61-2.81,22.82-.45,27.14,3.36,9.79,6.63,10.58,17.89,5.72,20S2217.7,1526.14,2212.51,1522.88Z" transform="translate(-306.04 -302)"/><path class="cls-3" d="M2291.05,1609.31c-2.28-1.62-8.18-7.74-16.05-9.67-7.46-2.51-16.89-.83-16.57-.62-.19.45,6.22-6.83,16.22-9,9.61-2.81,22.82-.45,27.14,3.36,9.79,6.63,10.58,17.89,5.72,20S2296.24,1612.57,2291.05,1609.31Z" transform="translate(-306.04 -302)"/><path class="cls-3" d="M2331.18,1574c-2.28-1.62-8.18-7.74-16.06-9.67-7.45-2.51-16.89-.83-16.56-.62-.2.45,6.21-6.83,16.22-9,9.61-2.81,22.81-.45,27.13,3.36,9.8,6.63,10.58,17.89,5.73,20S2336.37,1577.22,2331.18,1574Z" transform="translate(-306.04 -302)"/><path class="cls-3" d="M2189.13,1442.76c1.92,2,8.8,7,11.79,14.56,3.53,7,3.16,16.61,2.91,16.32-.42.26,5.91-7.1,6.62-17.3,1.46-9.9-2.7-22.66-7.08-26.41-7.92-8.78-19.18-8-20.58-2.91S2185.19,1438.07,2189.13,1442.76Z" transform="translate(-306.04 -302)"/><path class="cls-3" d="M2156.76,1485c2.72,1.44,12.24,4.06,17,11.18,5.42,6.34,6.1,17.19,5.74,17-.5.46,6.79-10.46,6.47-22.16.68-11.68-6.26-24.12-12.37-26.43-11.32-6.4-25.8-.69-27,5.6C2145.27,1476.52,2151.08,1481.48,2156.76,1485Z" transform="translate(-306.04 -302)"/><path class="cls-3" d="M2122.68,1549c2.93,1,12.75,2,18.67,8.17,6.41,5.33,8.91,15.91,8.52,15.75-.43.54,4.93-11.45,2.65-22.92-1.3-11.63-10.23-22.73-16.65-24-12.23-4.41-25.55,3.66-25.66,10.06C2109.92,1542.57,2116.49,1546.49,2122.68,1549Z" transform="translate(-306.04 -302)"/><path class="cls-3" d="M2223.52,1593.61c2.13,1.33,9.72,4,13.21,10.07,4.05,5.46,4,14.32,3.71,14.12-.44.35,6.12-8.12,6.53-17.65,1.21-9.46-3.72-20-8.57-22.2-8.84-5.86-20.94-2-22.27,3S2219.1,1590.41,2223.52,1593.61Z" transform="translate(-306.04 -302)"/><path class="cls-3" d="M2276,1415.58c-1.28-1.06-4.5-4.94-9.08-6.42a19.93,19.93,0,0,0-9.77-1.1,21.44,21.44,0,0,1,10-4.58c5.8-1.24,13.51.73,15.9,3.18,5.51,4.35,5.48,11,2.51,12.07S2278.94,1417.73,2276,1415.58Z" transform="translate(-306.04 -302)"/><path class="cls-3" d="M2263.79,1388.38c.05,1.65,1.16,6.58-.46,11.1a19.71,19.71,0,0,1-5.1,8.41,21.42,21.42,0,0,0,9.73-5.11c4.53-3.84,7.67-11.15,7.19-14.53-.08-7-5.4-11.09-8-9.36S2263.87,1384.74,2263.79,1388.38Z" transform="translate(-306.04 -302)"/><path class="cls-3" d="M2360.07,1538c-1.27-1-4.5-4.94-9.07-6.42a19.86,19.86,0,0,0-9.77-1.09,21.32,21.32,0,0,1,10-4.59c5.81-1.24,13.52.74,15.91,3.18,5.5,4.35,5.47,11,2.51,12.07S2363,1540.11,2360.07,1538Z" transform="translate(-306.04 -302)"/><path class="cls-3" d="M2345.32,1510.52c.19,1.64,1.7,6.46.46,11.1a19.88,19.88,0,0,1-4.39,8.8,21.5,21.5,0,0,0,9.27-5.89c4.2-4.2,6.73-11.74,6-15.08-.66-7-6.29-10.6-8.76-8.67S2345.1,1506.89,2345.32,1510.52Z" transform="translate(-306.04 -302)"/><path class="cls-3" d="M2335.06,1687.79c-62.28,6.83-120.28,34.32-176.11,61.13-37.65,18.07-35.75,23.22-43.43,25.91a1.54,1.54,0,0,1-1.88-2.11c3-5.84,10.69-9.79,16.07-13.15a205.66,205.66,0,0,1,19.46-10.6c14.21-6.9,28.79-13.11,43.28-19.4,29.47-12.81,59.42-24.85,90.55-33a318.75,318.75,0,0,1,52-9.27.25.25,0,0,1,0,.5Z" transform="translate(-306.04 -302)"/><path class="cls-3" d="M2278.93,1668.49c.41,2.55,3.07,10,1.43,17.3-1,7.23-6.25,14.36-6.29,14-.46,0,8.22-2.35,14.09-9.79,6.28-6.82,9.75-18.76,8.36-23.91-1.48-10.86-10.5-16.14-14.23-13S2278.36,1662.84,2278.93,1668.49Z" transform="translate(-306.04 -302)"/><path class="cls-3" d="M2224.07,1688.13c.4,2.56,3.06,10,1.42,17.3-1,7.23-6.25,14.36-6.29,14-.45,0,8.23-2.35,14.1-9.78,6.28-6.83,9.75-18.77,8.36-23.92-1.48-10.85-10.51-16.13-14.24-13S2223.49,1682.48,2224.07,1688.13Z" transform="translate(-306.04 -302)"/><path class="cls-3" d="M2168.32,1713c.41,2.55,3.07,10,1.43,17.3-1,7.23-6.25,14.36-6.29,14-.46,0,8.22-2.35,14.09-9.79,6.28-6.82,9.75-18.76,8.36-23.91-1.47-10.85-10.5-16.13-14.23-13S2167.75,1707.33,2168.32,1713Z" transform="translate(-306.04 -302)"/><path class="cls-3" d="M2295.31,1719.75c-1.13-2.11-3.31-9.06-8.61-13.55-4.75-4.78-12.62-7.09-12.45-6.81-.32.27,7.37-2.86,15.85-.66,8.44,1.53,17.65,8.39,19.5,13,5,8.82,1.27,17.75-3.25,17.5S2298,1724.23,2295.31,1719.75Z" transform="translate(-306.04 -302)"/><path class="cls-3" d="M2238.24,1740c-1.12-2.11-3.3-9.07-8.6-13.55-4.75-4.78-12.63-7.1-12.45-6.81-.33.27,7.37-2.86,15.84-.66,8.44,1.53,17.66,8.38,19.51,13,5,8.82,1.26,17.75-3.26,17.49S2241,1744.43,2238.24,1740Z" transform="translate(-306.04 -302)"/><path class="cls-3" d="M2338.77,1699c-1-1.17-3.27-5.25-7.19-7.36a18.48,18.48,0,0,0-8.72-2.64,19.75,19.75,0,0,1,9.86-2.5c5.5-.16,12.2,2.93,14,5.55,4.29,4.89,3.14,11,.27,11.42S2341.07,1701.41,2338.77,1699Z" transform="translate(-306.04 -302)"/><path class="cls-3" d="M2332.18,1672.12c-.22,1.52,0,6.19-2.27,10.05a18.48,18.48,0,0,1-6,6.8,19.77,19.77,0,0,0,9.71-3c4.77-2.75,8.86-8.88,9-12,1.1-6.41-3.07-11-5.74-9.87S2332.86,1668.83,2332.18,1672.12Z" transform="translate(-306.04 -302)"/><path class="cls-3" d="M728.28,1307c-73.18-65.25-110.8-159-129.48-226.07-20.28-72.87-23.23-131-23.26-131.6l-4-.25c0,.58,3,59.17,23.4,132.52,18.85,67.78,56.87,162.45,130.95,228.51Z" transform="translate(-306.04 -302)"/><path class="cls-3" d="M583.87,932.5c3.61,16.77.59,32.62-7.1,44.07-12.06-8.88-21.54-23.1-25.15-39.88s-.58-32.63,7.11-44.07C570.78,901.5,580.27,915.72,583.87,932.5Z" transform="translate(-306.04 -302)"/><path class="cls-3" d="M561.43,980.27c12.61,11.73,20,27.14,21.4,42-13.84.63-29.06-5-41.67-16.72s-20-27.14-21.41-42C533.59,962.93,548.82,968.54,561.43,980.27Z" transform="translate(-306.04 -302)"/><path class="cls-3" d="M555.51,1030.47a64.22,64.22,0,0,1,36.13,29.08c-11.38,7.3-26.61,9.4-42.28,4.49A64.25,64.25,0,0,1,513.24,1035C524.61,1027.65,539.84,1025.55,555.51,1030.47Z" transform="translate(-306.04 -302)"/><path class="cls-3" d="M579.64,1090.85c12.41,3.92,22.34,13.93,28,26.57a35.51,35.51,0,0,1-34.14,7c-12.41-3.91-22.34-13.93-28-26.57A35.51,35.51,0,0,1,579.64,1090.85Z" transform="translate(-306.04 -302)"/><path class="cls-3" d="M600.83,1004.67A43,43,0,0,1,636.06,992a48.17,48.17,0,0,1-13.64,36.52,43,43,0,0,1-35.23,12.68A48.17,48.17,0,0,1,600.83,1004.67Z" transform="translate(-306.04 -302)"/><path class="cls-3" d="M612.16,1047.94a42.94,42.94,0,0,1,35.22-12.68,48.08,48.08,0,0,1-13.64,36.52,42.89,42.89,0,0,1-35.23,12.68A48.15,48.15,0,0,1,612.16,1047.94Z" transform="translate(-306.04 -302)"/><path class="cls-5" d="M684.18,1395.53c-67.58-9.85-125.41-49.88-162-81.73-39.75-34.58-63.78-67.25-64-67.58l-2.4,1.39c.24.32,24.44,33.24,64.45,68.05,37,32.17,95.39,72.61,163.81,82.58Z" transform="translate(-306.04 -302)"/><path class="cls-5" d="M456.51,1233.22c8.54,8.37,12.86,18.74,12.79,28.34A46.8,46.8,0,0,1,439.38,1248c-8.54-8.37-12.86-18.74-12.79-28.34A46.8,46.8,0,0,1,456.51,1233.22Z" transform="translate(-306.04 -302)"/><path class="cls-5" d="M461.8,1269.6a46.73,46.73,0,0,1,28.55,16.19c-7.81,5.68-18.81,8.25-30.64,6.27a46.77,46.77,0,0,1-28.55-16.18C439,1270.2,450,1267.62,461.8,1269.6Z" transform="translate(-306.04 -302)"/><path class="cls-5" d="M477.62,1301.05a44.73,44.73,0,0,1,32.16,3c-3.81,8.6-11.86,15.67-22.85,18.82a44.68,44.68,0,0,1-32.16-3C458.58,1311.27,466.63,1304.21,477.62,1301.05Z" transform="translate(-306.04 -302)"/><path class="cls-5" d="M514.82,1326.89c8.72-2.48,18.33-.47,26.45,4.72a24.75,24.75,0,0,1-17.17,17.17c-8.72,2.48-18.33.47-26.45-4.72A24.75,24.75,0,0,1,514.82,1326.89Z" transform="translate(-306.04 -302)"/><path class="cls-5" d="M494.07,1268.66a29.86,29.86,0,0,1,15.61-20.88,33.48,33.48,0,0,1,6.08,26.46,29.93,29.93,0,0,1-15.61,20.89A33.51,33.51,0,0,1,494.07,1268.66Z" transform="translate(-306.04 -302)"/><path class="cls-5" d="M517.26,1289.48a29.86,29.86,0,0,1,15.61-20.89,33.57,33.57,0,0,1,6.08,26.46,29.93,29.93,0,0,1-15.61,20.89A33.49,33.49,0,0,1,517.26,1289.48Z" transform="translate(-306.04 -302)"/><path class="cls-6" d="M724.87,1597.78c-78,29.59-163.76,14-222-4.36-63.25-19.89-108.59-47.17-109-47.44l-1.73,3.3c.45.28,46.13,27.76,109.79,47.79,58.83,18.52,145.52,34.3,224.43,4.34Z" transform="translate(-306.04 -302)"/><path class="cls-6" d="M384.22,1530.15A56.3,56.3,0,0,1,415,1558.87c-11.42,5.83-25.9,6.71-40.06,1.21a56.26,56.26,0,0,1-30.74-28.71C355.59,1525.53,370.07,1524.65,384.22,1530.15Z" transform="translate(-306.04 -302)"/><path class="cls-6" d="M411.84,1574a49.94,49.94,0,0,1,40.2,3.08,47.94,47.94,0,0,1-28.86,27.34,49.83,49.83,0,0,1-40.19-3.08A47.89,47.89,0,0,1,411.84,1574Z" transform="translate(-306.04 -302)"/><path class="cls-6" d="M447.7,1604.82a47.28,47.28,0,0,1,36.1-16.21,51.69,51.69,0,0,1-13,38.72,47.3,47.3,0,0,1-36.1,16.21A51.73,51.73,0,0,1,447.7,1604.82Z" transform="translate(-306.04 -302)"/><path class="cls-6" d="M497.88,1620.74a47.3,47.3,0,0,1,36.1-16.21,51.73,51.73,0,0,1-13,38.72,47.28,47.28,0,0,1-36.1,16.21A51.69,51.69,0,0,1,497.88,1620.74Z" transform="translate(-306.04 -302)"/><path class="cls-6" d="M450.67,1569.3c-8.63-11.24-12.48-24.78-11.57-37.06,11.37,1.32,23,7.92,31.62,19.16s12.48,24.78,11.57,37.07C470.92,1587.14,459.3,1580.54,450.67,1569.3Z" transform="translate(-306.04 -302)"/><path class="cls-6" d="M502.79,1585.62c-8.79-11.11-12.85-24.61-12.13-36.94,11.36,1.13,23.06,7.54,31.86,18.65s12.85,24.6,12.13,36.93C523.29,1603.13,511.58,1596.72,502.79,1585.62Z" transform="translate(-306.04 -302)"/><path class="cls-6" d="M563.82,1625.1a19.41,19.41,0,0,1,12.25-11.6,22.31,22.31,0,0,1,.72,17.69,19.45,19.45,0,0,1-12.26,11.6A22.27,22.27,0,0,1,563.82,1625.1Z" transform="translate(-306.04 -302)"/><path class="cls-3" d="M892.17,1774.3s99.31-392.78,66.38-432.25c-45.52-54.54-83.06,126.4-86.74,111-34.79-145.14-44.06-330.84-156.29-350.5-63.8-11.17,14.73,138.1,10,178.47S605.83,1187.38,536,1117.16s-106-25.76-61.8,62.54c42.68,85.38,180.77,178.69,152.31,189.76S425.2,1270.27,404,1317.4c-25.94,57.79,233.28,136.45,208.87,149.43s-148.3-29.77-144.92,14.42,169.93,42.55,167.08,62c-4.6,31.48-114.76-39.77-119.6,3.78-5,44.55,144.92,36.42,142.32,71.17-1.49,20-33.65-10.15-38.39,17.51-10.8,63.06,186.76,139.88,186.76,139.88Z" transform="translate(-306.04 -302)"/><path class="cls-5" d="M967.89,1776.71s-94.51-144.92-140-172.28c-48.47-29.16-11.57,58.13-11.57,58.13s-99-117.85-126.56-93.9-2.55,51.67-2.55,51.67-88.91-26.35-104.89,6.29c-24.55,50.14,121.83,91.73,121.83,91.73s-62.84-.67-51.28,33.19C670.31,1802.59,967.89,1776.71,967.89,1776.71Z" transform="translate(-306.04 -302)"/><path class="cls-6" d="M582.33,1626.62c16-32.64,104.89-6.29,104.89-6.29s-25-27.73,2.55-51.67,106.75,47.72,106.75,47.72-8.31-59.1,51.35-7c42.61,37.19,120,167.36,120,167.36Z" transform="translate(-306.04 -302)"/><path class="cls-6" d="M853.16,1412.85l4.25-2.9C780.45,1293.4,757,1155,750.81,1059.48c-6.68-103.69,5-180.77,5.16-181.53l-5.25-1.53c-.13.77-11.94,78.36-5.23,182.67C751.68,1155.46,775.39,1295.06,853.16,1412.85Z" transform="translate(-306.04 -302)"/><path class="cls-6" d="M771.12,859.79c.17,23.41-8,42.77-20.92,54.38a104.3,104.3,0,0,1-21.76-62.76c-.17-23.41,7.95-42.77,20.92-54.38A104.32,104.32,0,0,1,771.12,859.79Z" transform="translate(-306.04 -302)"/><path class="cls-6" d="M729.44,912.42c13.11,20.7,18.5,43.94,16.38,63.88-18-5.12-36.13-19-49.25-39.67s-18.5-43.94-16.38-63.89C698.2,877.86,716.32,891.72,729.44,912.42Z" transform="translate(-306.04 -302)"/><path class="cls-6" d="M708.41,975.29a102.42,102.42,0,0,1,38.79,53.41c-16.6,4.63-36.8.83-55.68-12.31A102.45,102.45,0,0,1,652.73,963C669.34,958.35,689.53,962.16,708.41,975.29Z" transform="translate(-306.04 -302)"/><path class="cls-6" d="M733,1085.05a42.82,42.82,0,0,1,17.71,21.26c-6.76,2.52-15.27,1.59-23.5-3.32a42.72,42.72,0,0,1-17.7-21.26C716.3,1079.21,724.8,1080.14,733,1085.05Z" transform="translate(-306.04 -302)"/><path class="cls-6" d="M739.73,1125.72a42.74,42.74,0,0,1,17.7,21.25c-6.76,2.52-15.26,1.6-23.5-3.32a42.72,42.72,0,0,1-17.7-21.26C723,1119.88,731.49,1120.8,739.73,1125.72Z" transform="translate(-306.04 -302)"/><path class="cls-6" d="M773.71,961.13c15.21-8.62,33-8.53,48.78-1.4-2.64,17.57-12.12,33.11-27.33,41.73s-33,8.53-48.79,1.4C749,985.29,758.5,969.75,773.71,961.13Z" transform="translate(-306.04 -302)"/><path class="cls-6" d="M776.75,1022.38c15.21-8.62,33-8.53,48.78-1.4-2.64,17.57-12.12,33.11-27.33,41.73s-33,8.53-48.79,1.4C752.06,1046.55,761.53,1031,776.75,1022.38Z" transform="translate(-306.04 -302)"/><path class="cls-6" d="M773.73,1110.05c9.9-5.61,21.48-5.55,31.75-.91-1.72,11.43-7.89,21.55-17.79,27.16s-21.48,5.55-31.75.91C757.66,1125.78,763.83,1115.66,773.73,1110.05Z" transform="translate(-306.04 -302)"/><path class="cls-7" d="M1859.61,1455.66c8.94,1.45,8.41,2.91,9.56,3.06,1.36.19,17.5-7.92,17.5-7.92s47.74-23.56,50.27-24.93l34.45-43.34,26.55,12.24s-38.75,46.09-41.2,48.12-70.89,26-76.84,28.35c0,0-6,5.48-9.89,8.79s-9.07,4.63-10.31,5.38a42.88,42.88,0,0,1-10.52,3.69c-5.22,1.14-.87-2.4-.87-2.4s9.23-3.9,8.77-4.6c-.35-.55-5.25,1.89-11,3.21-1.48.34-2.94.66-4.29,1-3.53.77-5.08-1.25-1.53-2.66a34.12,34.12,0,0,1,4.94-1.6,29.84,29.84,0,0,0,4.54-1.78,38.53,38.53,0,0,0,4.66-1.87c-.14-.12.24-.73-1.34-.42-1.9.37-5.74,2.08-8.59,2.4-1.62.19-5,.78-5,.78s-5.92.57-6-.26c-.09-1.82,3.56-2.83,5.8-2.78a23.22,23.22,0,0,1,5-1.24s6.87-2.72,6.47-3.73c-.16-.41-4.32.22-8.73.52-4.66.32-8,.32-8.29-.59-.4-1.43,3.32-2,3.32-2s3.27-.48,4.34-.72c1.26-.29,4.95-1.45,4.95-1.45s12.63-4.64,12.17-5.57-2.54-2.88-3.43-2.88-2.48.9-3.38.9-2.8-.17-2.94-1.29,4.82-3.44,4.82-3.44S1857,1455.24,1859.61,1455.66Z" transform="translate(-306.04 -302)"/><path class="cls-8" d="M1947.41,1409.37s8.6,7.81,12.18,10.38c3,2.14,17.45,9.12,17.45,9.12s14.41-22.07,20.71-33.13c7.65-13.43,12.94-33.39,11.13-33.93-5.07-1.52-12.05-2.45-18.49.51C1968.1,1372.55,1947.41,1409.37,1947.41,1409.37Z" transform="translate(-306.04 -302)"/><path class="cls-9" d="M1868,1467.19c-3.83.6-7.74-.12-9.43-3.62C1858.14,1467.72,1864.44,1469.78,1868,1467.19Z" transform="translate(-306.04 -302)"/><path class="cls-10" d="M799.58,1312.41c.53-12.85-1.36-25.54-7.08-37.5-4.93-10.3-17.11-16.14-28.23-16.15-35.29,0-39.77,46.78-62.24,64.84-6.86,5.52-14.53,10-21,16-24,22-13.18,62.66,8.84,81.93,15.28,13.37,39.3,21,58.14,10.52,9.83-5.46,17.3-14.53,22.61-24.47,7.55-14.1,12.41-30.37,17.78-45.4C794.09,1346.15,798.87,1329.49,799.58,1312.41Z" transform="translate(-306.04 -302)"/><path class="cls-11" d="M805.34,1374.63c-11-33.43-25.57-32.91-25.57-32.91l11.76,71.2c6.8-1.86,15.67-6,22.47-7.92A306.88,306.88,0,0,0,805.34,1374.63Z" transform="translate(-306.04 -302)"/><path class="cls-12" d="M861.05,1488.68l-40.3-30.74s-4-28.68-9.48-54.13c-6.8,1.92-12.94,7.25-19.74,9.11l10.24,57,52.82,27.25,14.92,19.18,3.39-19.69Z" transform="translate(-306.04 -302)"/><path class="cls-13" d="M1228.39,1440.66a69.4,69.4,0,0,1,34.41,9.07,36.48,36.48,0,0,0,4.16,2c31,12.72,64.85-10.83,64.85-44.31V1242.78H1167.17c-33.48,0-57-33.89-44.32-64.86a36.33,36.33,0,0,1,2-4.15,69.81,69.81,0,1,0-122-.87,37.6,37.6,0,0,1,2,4.23c12.62,31.47-11.31,65.65-45.22,65.65H796.43v375.15a160.23,160.23,0,0,0,160.23,160.23h375.15V1614.07c0-33.64-34-57.35-65.15-44.67a38.57,38.57,0,0,0-4.18,2,69.81,69.81,0,1,1-34.09-130.73Z" transform="translate(-306.04 -302)"/><path class="cls-14" d="M1585.23,1349.34a69.42,69.42,0,0,1,10.66-33.95,37,37,0,0,0,2.2-4.06c14.15-30.34-7.8-65.29-41.24-66.85l-164.46-7.69-7.69,164.46c-1.56,33.44-36.51,55.39-66.85,41.24a37,37,0,0,1-4.06-2.2,69.81,69.81,0,1,0-6.56,121.8,38.91,38.91,0,0,1,4.32-1.79c32-11.13,65,14.37,63.46,48.24l-7.62,163,374.74,17.52a160.23,160.23,0,0,0,167.54-152.58l17.52-374.74-163.92-7.66c-33.6-1.57-58.86,31.28-47.66,63a38.66,38.66,0,0,0,1.8,4.26,69.81,69.81,0,1,1-132.18,27.95Z" transform="translate(-306.04 -302)"/><path class="cls-14" d="M1127,1090.38a69.42,69.42,0,0,1-7.32,34.82,36.66,36.66,0,0,0-1.8,4.25c-11.14,31.57,14.08,64.23,47.52,62.55l164.43-8.27-8.27-164.43c-1.68-33.44,31-58.67,62.55-47.52a38.47,38.47,0,0,1,4.25,1.79,69.81,69.81,0,0,0,100.79-69.2,69.81,69.81,0,0,0-106-52.65,39.85,39.85,0,0,1-4.12,2.19c-30.8,14.18-66.14-8-67.84-41.87l-8.2-163L928.23,667.86a160.24,160.24,0,0,0-152,168.08l18.84,374.68L959,1202.38c33.6-1.69,55.56-36.83,41.34-67.32a36.31,36.31,0,0,0-2.2-4.07A69.81,69.81,0,1,1,1127,1090.38Z" transform="translate(-306.04 -302)"/><path class="cls-15" d="M1463.52,999.63a69.46,69.46,0,0,1-34.41-9.07,36.31,36.31,0,0,0-4.15-2c-31-12.72-64.86,10.83-64.86,44.31v164.65h164.65c33.47,0,57,33.88,44.31,64.85a37.31,37.31,0,0,1-2,4.16,69.81,69.81,0,1,0,122,.86,36.8,36.8,0,0,1-2-4.23c-12.62-31.47,11.32-65.64,45.22-65.64h163.23V822.36a160.24,160.24,0,0,0-160.24-160.23H1360.1v164.1c0,33.64,34,57.34,65.16,44.66a36.79,36.79,0,0,0,4.18-2,69.81,69.81,0,1,1,34.08,130.73Z" transform="translate(-306.04 -302)"/><path class="cls-16" d="M689.26,1726.11s-2.48,17.28-6.76,22.86c-1.44,1.87-4.06,4.24-5.78,7.62-2.68,5.27-1.2,13.11.78,17.43,1,2.22-.07,2.21,2.24,2.92a14.17,14.17,0,0,0,17-8,40.58,40.58,0,0,0,3.34-14.73c.73-15.69,5.6-23.67,5.6-23.67Z" transform="translate(-306.04 -302)"/><path class="cls-16" d="M764.1,1734s1.53,19.49.28,25.83c-.66,3.39-4.38,10.37-2.67,13.56s3.65,4,3.65,4l44.17.72c2.41,0,.82-1.52-1.12-2.95-3.18-2.34-5.74-3.88-15.88-8.8-.67-.32-3.08-1.86-3.94-2.39a30.47,30.47,0,0,1-6.32-5.59c-3.17-3.54-3.45-20.71-3.45-20.71Z" transform="translate(-306.04 -302)"/><path class="cls-8" d="M798.62,1474.94s5.56,31.64,1.91,52.39-21.18,213.05-21.18,213.05l-19.48,1.1s-4.09-80.33-3.35-91.5,6.51-29.87,6.51-29.87l-1.94-64.85,24.58-85.21Z" transform="translate(-306.04 -302)"/><path class="cls-17" d="M741.37,1468.28s-15.34,23.14-19,42.29,2.69,78-4.34,103.1c-3.8,13.59-18.22,34.56-20.41,52.12s-10.79,63.54-10.79,63.54l19.48,3.87,45.25-114.84,35.49-103.8,9.1-53.46Z" transform="translate(-306.04 -302)"/><path class="cls-11" d="M753.78,1336.62s-20.31-1.3-28.34,7.48,17.82,78.21,19.28,89.38-7.44,40.88-7.44,40.88,47.7,9.62,61.34.58c0,0,1.46-80.34,0-88.31S785,1346.19,782.06,1343,753.78,1336.62,753.78,1336.62Z" transform="translate(-306.04 -302)"/><path class="cls-16" d="M760.54,1309.42s-.1.6-.29,1.62c-.91,4.89-4.39,21.13-6.75,25.59-2.84,5.39,9.75,22.6,21.87,20.5,3.61-.63-3-15.81-2.73-17.42l2.29-11.58c.48-2.43,1-4.89,1.42-7.21,1.3-6.57,2.36-12,2.36-12Z" transform="translate(-306.04 -302)"/><path class="cls-18" d="M760.25,1311c.19-1,.29-1.62.29-1.62l18.17-.45s-1.06,5.38-2.36,12c-.45,2.3-.93,4.75-1.41,7.17a17,17,0,0,1-8.67-4.36,23,23,0,0,1-6.57-9.79C759.92,1312.79,760.11,1311.8,760.25,1311Z" transform="translate(-306.04 -302)"/><path class="cls-16" d="M772.77,1268s-8.56-1-13.93,6-11.15,28.46,2.18,40.16,26.5-1.54,28.46-15.58S792.19,1267.54,772.77,1268Z" transform="translate(-306.04 -302)"/><path class="cls-16" d="M793.42,1298.38c-1.59,3.1-4.26,4.82-6,3.84s-1.79-4.3-.2-7.4,4.26-4.81,6-3.83S795,1295.28,793.42,1298.38Z" transform="translate(-306.04 -302)"/><path class="cls-10" d="M773.73,1265.74s-11.44,20.46-19.62,21.4-9.26,11.82-9.26,11.82,2.93-25,11-29.88S773.73,1265.74,773.73,1265.74Z" transform="translate(-306.04 -302)"/><path class="cls-18" d="M698.1,1765.47c-10.61,1.94-17.68-4.28-21.35-8.94-2.7,5.28-4,13.15-2,17.49,1.75,3.82,6.85,3.71,10.88,3.86,4.25.16,7.54-2.21,9.65-5.92A35.59,35.59,0,0,0,698.1,1765.47Z" transform="translate(-306.04 -302)"/><path class="cls-18" d="M788.58,1764c-11.68,3-20.32,1-25.15-1-1.24,3.53-2.9,8-2,10.53,1.07,3.14,2.6,3.85,4,3.88,10.67.28,39.09.67,47.22.77a1.33,1.33,0,0,0,1-2.19C811.6,1773.56,789.45,1764.5,788.58,1764Z" transform="translate(-306.04 -302)"/><path class="cls-16" d="M756.25,1292.28c.67,3.64-.67,7-3,7.44s-4.73-2.08-5.39-5.71.67-7,3-7.44S755.59,1288.65,756.25,1292.28Z" transform="translate(-306.04 -302)"/><path class="cls-19" d="M769.61,1304.86l10.33.47s-.42,3.91-5,3.84C769.43,1309.08,769.61,1304.86,769.61,1304.86Z" transform="translate(-306.04 -302)"/><path class="cls-20" d="M1650.19,481.44c1.29.05,4.81,1.23,10,11,6.58,12.44,16.2,50,16.2,50l-28.71,10.69-3.68-7.84-6.08-60.37S1649.84,481.43,1650.19,481.44Z" transform="translate(-306.04 -302)"/><path class="cls-18" d="M1612.24,476c8.21,0,28.52,2.4,38,5.41,0,0,6.93,59.53-6.23,104.76-3,10.13,2.43,42,2.43,42l-85.06-1.12s10.07-77,6.28-89.43-3.89-55.78-3.89-55.78l19.11-3.29A192.13,192.13,0,0,1,1612.24,476Z" transform="translate(-306.04 -302)"/><path class="cls-16" d="M1602.33,738.65s1.88,21.73,5.34,27.74-.18,16.24-.36,17.64-7.29,3.41-18.58,2.21-11.11-3.81-10.2-8,6.92-9.62,7.29-13.63-3.46-18.45-3.46-18.45Z" transform="translate(-306.04 -302)"/><path class="cls-21" d="M1636.79,610.25s58.73-3.26,71.84,4.68-9.32,46.91-9.32,46.91-40.86-1.88-120.89,2.74c-19,1.09-20.59-49.42-17-53.6S1636.79,610.25,1636.79,610.25Z" transform="translate(-306.04 -302)"/><path class="cls-20" d="M1587.32,787.93c-11.62-1.24-10.18-7-9.25-11.29.59-2.72,3.93-5.92,5.91-8.94,1,.82,2.73,2.29,7.78,3.78,5.25,1.55,12.43-1.52,17-3.44a56,56,0,0,1,1.56,15C1610.14,784.48,1599,789.16,1587.32,787.93Z" transform="translate(-306.04 -302)"/><path class="cls-11" d="M1593.74,652.25c2.35,17.76,14,106.13,14,106.13l-27,3.34s-33.14-115.35-31.44-133,14.1-19.13,14.1-19.13S1587.53,605.26,1593.74,652.25Z" transform="translate(-306.04 -302)"/><path class="cls-16" d="M1562.8,488.46c8-3,11.84,68.68,12.91,98.18,14.09,1.35,38.64,0,44.75-.45,2.87-.22,9.5-2.65,12.36-3a28.85,28.85,0,0,1,7-.33c.53.09,15.21,6.09,16.46,7.41,1.56,1.63,5.77,5.75,5.06,7.53s-8.1-5-8.1-5l-3.61-2c4.5,4.39,13.07,10.18,11.83,12.28s-8.93-3.81-14.44-7.81c4.72,4.27,10.6,11.91,9.24,13.1-1.21,1.07-7.89-7.78-15-10.32-2.65-.95-5.29,1.67-7.37,2-1.53.23-3.89.73-5.39.3l-7.73-2.19c-2.63.24-2.7,1.8-5.36,2.36-3.08.66-8.15,1.35-12.08,2.31-22.64,5.53-30.19,8.1-37.12,8.1C1545.22,610.88,1544,495.51,1562.8,488.46Z" transform="translate(-306.04 -302)"/><path class="cls-20" d="M1547.7,555.74c-1.49-30.21-1.27-67.45,15.67-73.81,6.68-2.5,18.46,12.57,16.34,74.42C1570.67,557.1,1557.4,557.7,1547.7,555.74Z" transform="translate(-306.04 -302)"/><path class="cls-16" d="M1681.14,757.23s-2.35,7.54,1.86,12.53,21.71,9.88,24,12.58a7.53,7.53,0,0,1,2.12,5L1660,786l.54-14.83,2.26-10.66Z" transform="translate(-306.04 -302)"/><path class="cls-20" d="M1686.06,772.25s-12.62,5.1-18.72,2.08-5.91-3.86-7.67-2.73-2.4,15-2.4,15l55.23,1.62c3.84-.09,5.78-2.92,2.66-5.34a45.22,45.22,0,0,0-6-3.58C1704.82,776.85,1686.06,772.25,1686.06,772.25Z" transform="translate(-306.04 -302)"/><path class="cls-11" d="M1679.28,624.16c3.8-8,12.43-18.38,27.62-12.12,14.49,6,18.38,20.66,13.81,35.69S1686,751.15,1685,763.31l-24,.15s4.37-70,5.44-86.9C1667.44,660.29,1672.71,638,1679.28,624.16Z" transform="translate(-306.04 -302)"/><path d="M1718.29,542.76H1638a5.23,5.23,0,0,0-4.84,3.26l-24.73,60.52h-44.28a2.24,2.24,0,0,0-2.24,2.25h0a2.24,2.24,0,0,0,2.24,2.24h126a8.78,8.78,0,0,0,8-5.21l24.9-55.66A5.24,5.24,0,0,0,1718.29,542.76Z" transform="translate(-306.04 -302)"/><path class="cls-19" d="M1675.05,578c-.55,2.72-2.91,4.53-5.28,4.06s-3.86-3.07-3.32-5.79,2.91-4.53,5.28-4.06S1675.59,575.28,1675.05,578Z" transform="translate(-306.04 -302)"/><path class="cls-22" d="M1631.33,403.32a61.23,61.23,0,0,1-7.11-2.84,35.41,35.41,0,0,0-8.1-3.05c-4.48-.7-12.18-.23-16.43,4.38-5.3,5.75-14.71,1-12.82,31.13C1589,467,1608,463.27,1608.42,462.7s16.9-21.8,16.9-21.8,5.74,12.57,5.74,12.11S1660.41,413.12,1631.33,403.32Z" transform="translate(-306.04 -302)"/><path class="cls-16" d="M1617,465.21l1.63,12.18s3.67,17.53-1,20.92-20-21.42-20-21.42l1.62-30.85Z" transform="translate(-306.04 -302)"/><path class="cls-18" d="M1598.59,456c3.89,10.52,13.16,17,19.74,19.49L1617,465.21,1599.11,446Z" transform="translate(-306.04 -302)"/><path class="cls-16" d="M1616,412.47a16.23,16.23,0,0,1,18.69,16.42,122.18,122.18,0,0,1-1.36,15.61c-2.17,14.06-11.76,26.43-18.1,25.32s-22.29-13.22-19.48-33.22C1597.46,424.25,1605.5,414.17,1616,412.47Z" transform="translate(-306.04 -302)"/><path class="cls-16" d="M1600.13,439c-.54,3.09-3,5.24-5.53,4.8s-4.13-3.3-3.59-6.39,3-5.24,5.52-4.8S1600.66,435.9,1600.13,439Z" transform="translate(-306.04 -302)"/><path class="cls-22" d="M1596.53,432.6s7.67,1.9,10.51-3,13-15.57,26-11.16-11.38-10.72-12.41-10.72l-13.45-.09s-9.57,7.87-9.91,8.74-3.11,10.29-3.11,10.29Z" transform="translate(-306.04 -302)"/><path class="cls-19" d="M1610.56,453.17l13.94,2.66s-1.33,5.26-7.49,4.26C1609.49,458.88,1610.56,453.17,1610.56,453.17Z" transform="translate(-306.04 -302)"/><path class="cls-7" d="M1374.63,1424.19a14.52,14.52,0,0,0,1.52,3.68c4.38,8,14.52,19.32,14.52,19.32l7.85-17.68s-1.28-5.56-3.5-13.49C1387.44,1418,1380.22,1419.14,1374.63,1424.19Z" transform="translate(-306.04 -302)"/><path class="cls-10" d="M1419.64,1408.85s-43.78,18.85-45.2,18.49c-.91-.23-18-28.76-18.14-55.59-.08-12.4,12.79-27.3,27.15-24.36,7.23,1.49,7.11,3.5,17.81,19S1419.64,1408.85,1419.64,1408.85Z" transform="translate(-306.04 -302)"/><path class="cls-16" d="M1457,1746.88s-1,17.19-1,17.23c-.38,2.18-1.89,7.58-1.89,9.56,0,7.46,35.4-6.33,27.47-9.63-.72-.3-4.48-2.56-4.72-5.1-.36-3.91-1.28-11.82-1.28-11.82Z" transform="translate(-306.04 -302)"/><path class="cls-20" d="M1481.46,1764s-8.31,2.28-12.57,2.85-9.87-4.23-12.88-2.94c-3.31,1.43-3.18,14.28-3.18,14.28s44.57,3.66,57.11-.13C1514.9,1776.53,1498.46,1769.28,1481.46,1764Z" transform="translate(-306.04 -302)"/><path class="cls-16" d="M1384.59,1746.88s-1,17.19-1,17.23c-.39,2.18-1.89,7.58-1.89,9.56,0,7.46,35.4-6.33,27.47-9.63-.72-.3-5.6-4.25-5.83-6.79-.37-3.91-.18-10.13-.18-10.13Z" transform="translate(-306.04 -302)"/><path class="cls-20" d="M1409,1764s-8.31,2.28-12.57,2.85-9.87-4.23-12.88-2.94c-3.31,1.43-3.45,14.28-3.45,14.28s44.78,4.26,57.37-.13C1442.4,1776.33,1426,1769.28,1409,1764Z" transform="translate(-306.04 -302)"/><path class="cls-16" d="M1395.41,1433.72l31.18-43.68c.13-.38.41-1.17.85-2.36,1.57-4.34,4.84-13.35,7.68-22.33l0-.09c.9-3.14,2.79-8.61,4.63-13.9,2-5.89,4.56-13.19,4.65-14.43-.08-.21-.22-.59-.42-1.1a100.31,100.31,0,0,1-3.23-13.11c-.35-2-.7-6.71,1.63-6.71,3.65,0,1.91,4.75,3.6,7.71a74.36,74.36,0,0,0,2.53-9.9l.61-9.28c.12-.7-.62-5.82,1.94-5.82h.12c2.31.17,2.26,5.61,3.21,14.83.31-1.06.61-2.34.84-3.52a32.59,32.59,0,0,1,.78-4.86c-.46-2.56-.19-6.61,2.54-6.23,1.37.19,1.26,5.84,1.26,5.84,0,.78-.1,6.75-.06,7.93.28-2,1.38-10.55,3.53-10.55,1.77,0,1.92,2.3,1.88,4.12,0,1.08-1.14,10.34-1.2,11.41.84-1.4,1.83-9.56,2.66-9.56,3.47,0,2.21,11.6.94,14.63a13.48,13.48,0,0,0-.4,1.62,28.33,28.33,0,0,1-3,8.63c-2.18,3.73-5.18,9.65-5.64,10.56-.33,1.85-1.38,8.5-2.69,16.87-.56,3.58-1.18,7.51-1.82,11.57h0c-.12.88-.77,3.68-3.24,14.18-3.37,14.37-3.72,15-3.87,15.25-1.47,2.6-35.09,48.25-36.52,50.2l-.84,1.14Z" transform="translate(-306.04 -302)"/><path class="cls-18" d="M1453.4,1331.84s-2.53-6.47-7-6.48a5.16,5.16,0,0,1,4.67.8C1453.2,1327.87,1453.4,1331.84,1453.4,1331.84Z" transform="translate(-306.04 -302)"/><path class="cls-16" d="M1387.88,1319.34l-4,25.38s15.3,12.28,24.21,9.69c7.48-2.17,2.35-12,2.35-12s-4-13.55-2.76-20.65S1387.88,1319.34,1387.88,1319.34Z" transform="translate(-306.04 -302)"/><path class="cls-9" d="M1390.76,1327a62.48,62.48,0,0,0,17.31,4.88,33.41,33.41,0,0,1-.41-10.08c.56-3.28-3.61-4.06-8.26-3.94-6.09.52-11.52,1.47-11.52,1.47l-.78,4.88A12.56,12.56,0,0,0,1390.76,1327Z" transform="translate(-306.04 -302)"/><path class="cls-16" d="M1368.57,1290.06c-.63,0,6,28.36,16.38,33.24s25.75,2.33,28.64-5.31c3.2-8.44-8.47-37.37-23-41S1368.57,1290.06,1368.57,1290.06Z" transform="translate(-306.04 -302)"/><path class="cls-10" d="M1380.53,1264a32.47,32.47,0,0,0-13.31,14.72c-3.88,1.83-8.57,5.81-10.82,16.52-2.76,13.18,7.07,23.33,17.5,26.38s12,10,12,10l1.18-7.43s-2.32-6.46-5.8-9.7,1.65-8,2.1-11.8c.35-3-1.83-8.71-1.36-13.57,0,0,5.79-8.78,11.51-10.95C1403.3,1274.43,1391.12,1257.89,1380.53,1264Z" transform="translate(-306.04 -302)"/><path class="cls-16" d="M1384.92,1307.59c1.35,3.28.8,6.53-1.23,7.26s-4.77-1.32-6.12-4.59-.8-6.53,1.23-7.27S1383.57,1304.31,1384.92,1307.59Z" transform="translate(-306.04 -302)"/><path class="cls-7" d="M1423.41,1434.42l60.15-9.8s-6.84-17.23-9.29-17.23-45.48,18.78-45.48,18.78l-3.42,6.88Z" transform="translate(-306.04 -302)"/><path class="cls-15" d="M1392.61,1475.66s-6,29-3.56,51,2.64,100.12,2.64,100.12l-9.33,125,22.14.49s26.25-125,25.76-121.74,8.8-88,8.8-88l-31.29-69.65Z" transform="translate(-306.04 -302)"/><path class="cls-10" d="M1398.47,1474.28s-3.91,26.12,1,37.58,41.94,123.84,42.43,133,12.81,110.45,12.81,110.45l25.75-.72L1486,1642l-11.66-141.53L1463,1464.66Z" transform="translate(-306.04 -302)"/><path class="cls-16" d="M1383.86,1344.72s6.35,4.17,12.27,3.69,14.29-6,14.29-6l-1.16-3.94s-15.32-2.23-15.7-2S1383.86,1344.72,1383.86,1344.72Z" transform="translate(-306.04 -302)"/><path class="cls-7" d="M1451.52,1406.54s22.75,21.47,33,17.8,14.52-16.19-10.54-34.53C1451.58,1373.41,1451.52,1406.54,1451.52,1406.54Z" transform="translate(-306.04 -302)"/><path class="cls-8" d="M1466.94,1433.05c-3.38-18.39-27.88-75.61-29.83-86.14-.95-5.13-14.17-5.24-26.75-4.57-13.29.7-26.5,2.38-26.5,2.38s-11.76,1.94-16.94,6.79-6.55,18.26.89,43.73c5.87,20.11,13.16,31.15,16.76,45.79.73,4.91,1.36,9.76,2.18,15.42,1.33,21.9,0,50.82,0,50.82s64.06,13.29,88-6.87C1474.76,1500.4,1470.4,1451.88,1466.94,1433.05Z" transform="translate(-306.04 -302)"/><path class="cls-17" d="M1483.27,1393.51s-25.14,20.75-26.6,20.75c-1,0-35.87-25.69-43.94-46.8-4.45-11.67,4.9-24.72,15.57-24.68,7.4,0,10.7,1.94,25.37,14.31S1483.27,1393.51,1483.27,1393.51Z" transform="translate(-306.04 -302)"/><path class="cls-10" d="M1041.09,467.35c4.12-9.92,8.31-19.85,19-24.87,8.65-4.06,17.68-2.53,25.37,3.25,21.77,16.37,2.8,34.41,27.59,65.46,7.7,9.65,17,17.44,21.64,28.75,6.46,15.82-1.24,23.42-13.57,31-59,36.27-89.92-38.19-88.81-55.23C1033.13,503,1038.44,473.73,1041.09,467.35Z" transform="translate(-306.04 -302)"/><path class="cls-16" d="M979.86,660.34c2.49-.39,8.53-4.72,10.66-5.11,1.66-.31,5.23-.85,6.75-1.08,1.87-7,11.35-44.95,12.41-56.09,1.15-12.06,9.68-64.25,9.68-64.25l22.09,4s-9.18,40.15-11.71,59.62c-2.18,16.72-20.53,54.32-22.86,58.28a2.81,2.81,0,0,1,0,.29c-.35,5.9-3.2,3.94-3.2,3.94l-4.62,1.18s-16.34,1.57-17.41,2S977.38,660.73,979.86,660.34Z" transform="translate(-306.04 -302)"/><path class="cls-23" d="M1038.62,503.3c-15.62,5.3-24.49,47.75-24.49,47.75s24.49,6.84,30.77,3.25c0,0,7.13-31.58,9.68-30.48Z" transform="translate(-306.04 -302)"/><path class="cls-16" d="M917.83,733.69a166.29,166.29,0,0,0-7.48,26.21c-.11.7.89,4.13.79,4.86-9.59,13.08-23.37,16-35.19,16.78,6-5.88,14.87-11.45,15.29-13.31a229.74,229.74,0,0,0,6.1-34.45C904.69,737.18,909.68,734.48,917.83,733.69Z" transform="translate(-306.04 -302)"/><path d="M1053.73,592.71l21.1,59.44s-33.91,6.38-46.59,8.7-83.51,5.42-85.31,6.68c-1.33.94-16,48.26-22.5,74.36-7.42,1.63-20.11-.33-26.86-2.65,3.65-37.34,16.82-96.5,21-102.94C921.49,625.81,1053.73,592.71,1053.73,592.71Z" transform="translate(-306.04 -302)"/><path class="cls-16" d="M971.29,759.74a168.27,168.27,0,0,0-2.44,27.15c0,.71,1.65,3.89,1.7,4.63-7,14.65-20,20-31.43,23.07,4.82-6.9,12.46-14,12.53-15.94a231,231,0,0,0-.46-35C959,765.63,963.44,762.05,971.29,759.74Z" transform="translate(-306.04 -302)"/><path d="M1078.37,595.79l8.18,14a40.06,40.06,0,0,1-20.08,57.59l-.37.14c-12,4.66-81,21-82.55,22.54-1.13,1.17-6.64,50.4-8.17,77.26-7,3-19.81,3.45-26.88,2.43-3.41-37.36-1.56-97.94,1.38-105.06C954.67,653.09,1078.37,595.79,1078.37,595.79Z" transform="translate(-306.04 -302)"/><path class="cls-10" d="M967.79,787.3c1.84-2,8.59,9.14,10.27,11.52,1.9,2.68,1.36,4.7,1.13,5.12-.6,1.11-36.17,22-44.84,23.52a4.36,4.36,0,0,1-2.6-.69c-3.39-3,12.22-25.16,19.22-28.07C955.5,796.82,959.53,796.43,967.79,787.3Z" transform="translate(-306.04 -302)"/><path class="cls-10" d="M909.21,760.3c2.19-1.65,6.72,10.58,7.93,13.24,1.36,3,.45,4.87.15,5.24-.8,1-39.66,14.86-48.46,14.7a4.35,4.35,0,0,1-2.42-1.17c-2.76-3.58,16.72-22.42,24.14-24C895.36,767.34,899.38,767.72,909.21,760.3Z" transform="translate(-306.04 -302)"/><path class="cls-24" d="M1053.43,503.18h0a5.87,5.87,0,0,1-1.58-.33c-2.9-.51-9.24-1.27-14.17.81-6,2.53-15.3,26.18-14.75,50.46.23,3.72.45,7,.64,9.36,1.52,18.34,6.78,52.75,7.06,52.93,7.16,4.61,50.35-13.25,53.32-17.17s4.71-51.6,6.16-54l2.84-41.45C1087.94,502.31,1061.11,503.12,1053.43,503.18Z" transform="translate(-306.04 -302)"/><path class="cls-16" d="M1070.93,487.91s-2.78,14.38-2.22,20.06-2.12,23.95-14.13,24-2.28-23.25-1.15-28.81,1.4-22.77,1.4-22.77Z" transform="translate(-306.04 -302)"/><path class="cls-18" d="M1054.58,489c.19-4.7.25-8.63.25-8.63l16.1,7.5s-.57,2.94-1.14,6.69C1062.74,496,1057.63,493.41,1054.58,489Z" transform="translate(-306.04 -302)"/><path class="cls-16" d="M1076.82,448.22a20,20,0,0,1,8.47,10.9c2.27,7.46-.31,26.72-16.34,31.36s-23-10.6-19.67-22.52S1059.76,441,1076.82,448.22Z" transform="translate(-306.04 -302)"/><path class="cls-16" d="M1047.27,463.34c.32,3.2,2.08,5.65,4,5.47s3.12-2.93,2.8-6.13-2.08-5.65-3.94-5.47S1047,460.14,1047.27,463.34Z" transform="translate(-306.04 -302)"/><path class="cls-10" d="M1074.94,447.24s2.9,21.48,9.85,25.36,4,13.4,4,13.4,6.29-22.12.8-29.23S1074.94,447.24,1074.94,447.24Z" transform="translate(-306.04 -302)"/><path class="cls-16" d="M1080.68,475.68c-1.89,2.8-1.88,6.1,0,7.37s5,0,6.84-2.76,1.87-6.1,0-7.37S1082.56,472.88,1080.68,475.68Z" transform="translate(-306.04 -302)"/><path class="cls-19" d="M1057.32,476.88l11.3,2.84a5.14,5.14,0,0,1-6.36,3.19C1056.15,481.56,1057.32,476.88,1057.32,476.88Z" transform="translate(-306.04 -302)"/><path class="cls-5" d="M1113.41,658.55l48.7-2.45s-20,14.36-20.39,14.36-15.92-6.12-16.6-6.12S1113.41,658.55,1113.41,658.55Z" transform="translate(-306.04 -302)"/><path class="cls-16" d="M2088.5,1747.58s1,16.9,1,16.93c.35,2.15,1.73,7.44,1.73,9.39,0,7.33-32.49-6.21-25.21-9.46.66-.29,4.11-2.52,4.33-5,.33-3.84,1.18-11.61,1.18-11.61Z" transform="translate(-306.04 -302)"/><path class="cls-11" d="M2065.67,1764.51a117.16,117.16,0,0,0,11.53,2.8c3.91.56,9.06-4.15,11.83-2.88,3,1.4,2.92,14,2.92,14s-40.91,3.59-52.42-.13C2035,1776.86,2050.07,1769.73,2065.67,1764.51Z" transform="translate(-306.04 -302)"/><path class="cls-16" d="M2142.62,1746.71s1,16.89,1,16.93c.35,2.14,1.73,7.44,1.73,9.39,0,7.32-32.5-6.22-25.21-9.47.66-.29,5.13-4.17,5.35-6.66.33-3.85.16-10,.16-10Z" transform="translate(-306.04 -302)"/><path class="cls-11" d="M2120.18,1763.5a117.16,117.16,0,0,0,11.53,2.8c3.91.56,9.06-4.16,11.83-2.89,3,1.41,3.16,14,3.16,14s-40.62,1.67-52.66-.13C2089.3,1776.61,2104.58,1768.71,2120.18,1763.5Z" transform="translate(-306.04 -302)"/><path class="cls-8" d="M2133,1478.39s5.51,28.49,3.26,50.1-2.42,98.37-2.42,98.37l10.36,122.77-22.11.51s-24.1-122.75-23.65-119.6-8.08-86.43-8.08-86.43l28.73-68.43Z" transform="translate(-306.04 -302)"/><path class="cls-17" d="M2125.28,1460s24.95,26.28,15.67,55c-3.73,11.53-38.5,121.67-38.95,130.68s-11.76,108.51-11.76,108.51l-23.63-.71-5.11-110.64,6.75-149.07,14.34-25.14Z" transform="translate(-306.04 -302)"/><path class="cls-18" d="M1973.8,1374.45c8.17-9.12,26-22.09,26-22.09s10.59-9,14.91-10.54c6.36-2.19,17.25-8,33,15.83,11.27,17.08,82.38,105.51,94,108.49l-76.22,36.46c-2.09-17.42-39.76-50.32-45.19-56.46C2008.18,1432.42,1966.06,1383.08,1973.8,1374.45Z" transform="translate(-306.04 -302)"/><path class="cls-16" d="M1977.35,1337.39l23.75,13.91s.67,20.26-7.1,25.53c-6.51,4.42-11.47-6.19-11.47-6.19s-8.83-12.23-15.53-16S1977.35,1337.39,1977.35,1337.39Z" transform="translate(-306.04 -302)"/><path class="cls-18" d="M1981.34,1346.32a49.72,49.72,0,0,1-6.17,15.37,38.35,38.35,0,0,0-8.17-7.09c-3.1-1.76-1.13-5.56,1.89-9.14,4.26-4.44,8.46-8.07,8.46-8.07l4.57,2.68A21.73,21.73,0,0,1,1981.34,1346.32Z" transform="translate(-306.04 -302)"/><path class="cls-16" d="M1965,1302.56c.39-.5,19.91,23.8,17.51,35.2s-14.21,21.79-22.41,18.93c-9.07-3.16-25.94-31.76-19.89-45.65S1965,1302.56,1965,1302.56Z" transform="translate(-306.04 -302)"/><path class="cls-10" d="M1943.61,1294.89c8.51-4.73,22.39-6.09,32.76-.66,12.75,6.68,15.66,23.47,11.67,33.72s.57,16,.57,16l-6.76-4s-3.95-6.17-4.47-11.08-7.68-4-11.18-6.28c-2.7-1.71-6.14-7.29-10.5-10.19,0,0-11-1.34-16.38,1.69C1930.12,1319.34,1931.43,1301.67,1943.61,1294.89Z" transform="translate(-306.04 -302)"/><path class="cls-16" d="M1971.68,1326.78c-.06,3.64,1.66,6.63,3.85,6.66s4-2.89,4.08-6.53-1.66-6.63-3.85-6.67S1971.75,1323.13,1971.68,1326.78Z" transform="translate(-306.04 -302)"/><path class="cls-19" d="M1951.69,1346.12l10.34-7.72s2.73,4.17-1.72,7.7C1954.89,1350.41,1951.69,1346.12,1951.69,1346.12Z" transform="translate(-306.04 -302)"/><path class="cls-7" d="M1925.74,1499.83c2.59-3.78,3.72-9.24,7.3-13.4a31.64,31.64,0,0,1,5.29-4.54c17.22-10.08,62.06-36,63.81-38.06,2.07-2.39,32.68-53.24,32.68-53.24l-27.49-6.23-26.87,47.44c-2.24,1.78-44.89,33.3-44.89,33.3s-8.48,6.63-13.12,9.73a37,37,0,0,1-6.6,2.94,41.77,41.77,0,0,0-8.23,4.09c-1.12,1-3.36,3.1-4.7,4.38s-3,2.74-3.57,3.51a9.65,9.65,0,0,1-2.42,1.54,1.59,1.59,0,0,0,.26,2.94c1.31.37,3.07-.45,4.16-1,3.09-1.45,6.86-5.37,7.06-4.89s-3.63,8.87-4,9.86-4.78,10.77-5,13,1.08,2.68,2.06,1.88,7.92-13.74,7.92-13.74.9-1.67,1.25-.71-6,12.82-6.67,14.77-.13,3.54,1.68,2.86c2.19-.83,8.24-13.92,8.24-13.92s.78-1.63,1.32-1.06-5.07,10.57-5.14,11.72a1.51,1.51,0,0,0,2.5,1.33c1.78-1.13,7.08-12.87,7.08-12.87s.66-.77.86-.23-4,9.42-3.66,10.72a1,1,0,0,0,1.24.87C1920.28,1512.8,1923.15,1503.61,1925.74,1499.83Z" transform="translate(-306.04 -302)"/><path class="cls-8" d="M2027.29,1417.45s-9-2.85-14.7-5.48c-3.84-1.76-20.62-10.11-20.62-10.11s7.23-30.51,12.12-41.48c18-40.26,38.34-12.49,41.11-6C2051.39,1368.83,2027.29,1417.45,2027.29,1417.45Z" transform="translate(-306.04 -302)"/><path class="cls-19" d="M1401.93,1312l8.51-6.37A4.71,4.71,0,0,1,1409,1312C1404.56,1315.56,1401.93,1312,1401.93,1312Z" transform="translate(-306.04 -302)"/><path d="M2402.14,1777.55H422.66c-2.47,0-4.48,2.56-4.48,5.72h0c0,3.16,2,5.72,4.48,5.72H2402.14c2.48,0,4.48-2.56,4.48-5.72h0C2406.62,1780.11,2404.62,1777.55,2402.14,1777.55Z" transform="translate(-306.04 -302)"/><path class="cls-16" d="M1163.22,656.05c-.2-.51-.66-.52-1.12-.53a114.82,114.82,0,0,1-13.36-1,9.7,9.7,0,0,1-2.15-.55,5.6,5.6,0,0,0-3.7-.14,7.45,7.45,0,0,1-2.05.22c-2.25,0-8.66-2.19-12-2.77a1.92,1.92,0,0,1-1.53-1.44c-3.24-12.81-10.19-41.57-11.1-51-1.15-12.09-9.5-66.61-9.5-66.61l-22.34,6.24s9.19,40.24,11.74,59.75c2,15.07,17,47,21.74,56.24,2.31,6.84,7.48,7,8.68,7.18a2.77,2.77,0,0,1,1.77.94,12.76,12.76,0,0,0,2.82,2.46,6.75,6.75,0,0,1,1.93,1.91c.94,1.39,1.79,2.83,2.63,4.29.56,1,1.14,1.26,2,1a1.75,1.75,0,0,0,1.29-2,8.78,8.78,0,0,0-1.33-4.4,2.39,2.39,0,0,1,.18-3.19,9.9,9.9,0,0,1,1.67-1.87,2.91,2.91,0,0,1,2.29-.83,36.33,36.33,0,0,0,4.87.91l1.35.28s.74.15.74.15,2.49.29,3.3.29,1.72,0,2.62.09a14.64,14.64,0,0,0,2.6-.39,3.11,3.11,0,0,0,2.08-.83c.25-.22.48-.47.36-.84a.84.84,0,0,0-.73-.54c-.54-.1-3.31-.44-3.28-.55.82,0,3.4-.06,4.23-.09a3.88,3.88,0,0,0,2.84-1.24C1163.07,656.89,1163.42,656.57,1163.22,656.05Z" transform="translate(-306.04 -302)"/><path class="cls-24" d="M1093.22,503.72c11-2,20.12,47.33,20.12,47.33s-24.5,6.84-30.78,3.25c0,0-7.12-31.58-9.67-30.48Z" transform="translate(-306.04 -302)"/><path class="cls-16" d="M826.59,1390.51c.73-2.09-9.44-3.78-10-5.9s12.84-2.28,13.32-4.13c.88-3.43-14.67-.72-14.36-2.33s16.2-5.17,14.49-7.92-16.1,5.43-16.54,3.57,14.06-6.4,13.8-10.49c-.14-2.19-23.78,10.89-26.53,9.7s3-11.45.77-13-8.45,20.86-10,21.61-33.45,19-44.81,21.88c-1.38-3.81-4.37-9-5.59-12.55-6.37,4.54-11.11,6.82-17.69,11,4.77,12,11.55,25,14.88,26.53,10.11,4.58,49.24-27.87,57-33.43s12.29-3.75,17.58-5.51S825.86,1392.6,826.59,1390.51Z" transform="translate(-306.04 -302)"/><path class="cls-11" d="M722.14,1407.67s-8.75-38.67-7.23-49.89S729.76,1336.11,739,1340s13.42,57.86,13.42,57.86Z" transform="translate(-306.04 -302)"/></svg>