<svg id="Camada_1" data-name="Camada 1" xmlns="http://www.w3.org/2000/svg" viewBox="0 0 226.94 216.37"><defs><style>.cls-1{fill:#92c3fb;}.cls-2{fill:#fff;}.cls-3{fill:#3565a3;}.cls-4{fill:#a6e9fc;}</style></defs><path class="cls-1" d="M415.38,233.46a101.48,101.48,0,0,1-13.74,51,116.39,116.39,0,0,1-97.86-5.54c33.94-17.15,57.42-50.55,59-89.32q.09-2.1.09-4.23a101.35,101.35,0,0,0-12.08-48C388.93,154.12,415.38,190.85,415.38,233.46Z" transform="translate(-190.79 -125.28)"/><path class="cls-2" d="M358.62,295.05a117.88,117.88,0,0,1-56-14.05l-4-2.15,4-2c34.1-17.23,56.22-50.68,57.73-87.31.06-1.41.08-2.8.08-4.13a98.43,98.43,0,0,0-11.79-46.92l-3.23-6,6.25,2.75c40.08,17.64,66,56.21,66,98.27a103.9,103.9,0,0,1-14.05,52.19l-.41.7-.75.31A117.54,117.54,0,0,1,358.62,295.05Zm-49.75-16.16A114,114,0,0,0,400,282.58a99.26,99.26,0,0,0,13-49.12c0-38-22.19-73.09-57.07-91.06a102.9,102.9,0,0,1,9.3,43c0,1.39,0,2.84-.09,4.32C363.64,226.58,342.2,260.36,308.87,278.89Z" transform="translate(-190.79 -125.28)"/><path class="cls-3" d="M401.64,284.47c-18.91,32.68-55.43,54.83-97.38,54.83-43.2,0-80.65-23.5-99-57.8a101.39,101.39,0,0,1-9.43-25c6.72-28.86,25.83-53.28,51.73-68,.63,38.74,23.13,72.43,56.25,90.37a116.39,116.39,0,0,0,97.86,5.54Z" transform="translate(-190.79 -125.28)"/><path class="cls-2" d="M304.26,341.65c-42.85,0-81.6-22.62-101.1-59a104,104,0,0,1-9.66-25.56l-.12-.54.12-.53c6.74-28.93,26-54.25,52.86-69.47l3.45-2,.07,4c.6,36.43,21.68,70.28,55,88.33a113.92,113.92,0,0,0,95.86,5.43l6.33-2.53-3.42,5.9C383.7,320.19,345.6,341.65,304.26,341.65Zm-106-85.13a99.22,99.22,0,0,0,9.09,23.87c18.69,34.88,55.84,56.55,96.95,56.55,37.32,0,71.86-18.2,91.76-47.9a118.82,118.82,0,0,1-93.36-8c-33.61-18.2-55.3-51.81-57.35-88.4C221.53,207.23,204.48,230.31,198.22,256.52Z" transform="translate(-190.79 -125.28)"/><path class="cls-4" d="M362.89,185.38q0,2.13-.09,4.23a115.95,115.95,0,0,0-115.27-1.05c-25.9,14.68-45,39.1-51.73,68a100.9,100.9,0,0,1-2.65-23.06c0-43.92,28.09-81.58,68.1-97.6a116.53,116.53,0,0,1,89.56,1.49A101.35,101.35,0,0,1,362.89,185.38Z" transform="translate(-190.79 -125.28)"/><path class="cls-2" d="M195.8,266.88l-2.3-9.83a104.16,104.16,0,0,1-2.71-23.59c0-43.7,27.31-82.87,69.58-99.78a118.83,118.83,0,0,1,91.39,1.51l.75.33.38.71a103,103,0,0,1,12.36,49.15c0,1.39,0,2.84-.09,4.32l-.16,4-3.4-2a113.61,113.61,0,0,0-112.91-1c-25.72,14.57-44.16,38.79-50.6,66.44ZM304.26,130a112.76,112.76,0,0,0-42.14,8.06c-40.47,16.2-66.62,53.65-66.62,95.41a99.57,99.57,0,0,0,.82,12.7c8.45-24.8,26.28-46.18,50-59.65a118.43,118.43,0,0,1,114.17-.9v-.23a98.36,98.36,0,0,0-11.41-46.2A112.42,112.42,0,0,0,304.26,130Z" transform="translate(-190.79 -125.28)"/></svg>