<svg xmlns="http://www.w3.org/2000/svg" xmlns:xlink="http://www.w3.org/1999/xlink" viewBox="0 0 2746.53 2629.41"><defs><style>.cls-1{isolation:isolate;}.cls-2,.cls-22{fill:#a6e9fc;}.cls-2,.cls-6{opacity:0.3;}.cls-3{fill:#37dd52;}.cls-13,.cls-20,.cls-26,.cls-4,.cls-44{fill:#fff;}.cls-4{mix-blend-mode:soft-light;}.cls-5{fill:#e54687;}.cls-7{fill:url(#linear-gradient);}.cls-8{fill:url(#linear-gradient-2);}.cls-9{fill:url(#linear-gradient-3);}.cls-10{fill:url(#linear-gradient-4);}.cls-11{fill:url(#linear-gradient-5);}.cls-12{fill:url(#linear-gradient-6);}.cls-13{opacity:0.56;}.cls-14{fill:url(#linear-gradient-7);}.cls-15{fill:url(#linear-gradient-8);}.cls-16{fill:url(#linear-gradient-9);}.cls-17{fill:url(#linear-gradient-10);}.cls-18{fill:url(#linear-gradient-11);}.cls-19{fill:#696969;}.cls-21{fill:#92c3fb;}.cls-22{opacity:0.35;}.cls-23{fill:#fc0000;}.cls-23,.cls-24,.cls-25{opacity:0.74;}.cls-24{fill:#fdff00;}.cls-25{fill:#00f301;}.cls-26{opacity:0.67;}.cls-27{fill:url(#linear-gradient-12);}.cls-28{fill:url(#linear-gradient-13);}.cls-29{fill:url(#linear-gradient-14);}.cls-30{fill:url(#linear-gradient-15);}.cls-31{fill:url(#linear-gradient-16);}.cls-32{fill:url(#linear-gradient-17);}.cls-33{fill:url(#linear-gradient-18);}.cls-34{fill:url(#Gradiente_sem_nome_10);}.cls-35{fill:url(#linear-gradient-19);}.cls-36{fill:url(#linear-gradient-20);}.cls-37{fill:url(#linear-gradient-21);}.cls-38{fill:url(#linear-gradient-22);}.cls-39{fill:url(#linear-gradient-23);}.cls-40{fill:url(#linear-gradient-24);}.cls-41{fill:url(#linear-gradient-25);}.cls-42{fill:url(#linear-gradient-26);}.cls-43{fill:url(#linear-gradient-27);}.cls-44{opacity:0.23;}.cls-45{fill:url(#linear-gradient-28);}.cls-46{fill:url(#linear-gradient-29);}.cls-47{fill:url(#linear-gradient-30);}.cls-48{fill:url(#linear-gradient-31);}</style><linearGradient id="linear-gradient" x1="2198.1" y1="368.4" x2="2813.32" y2="368.4" gradientTransform="translate(51.96 40.6) rotate(10.92)" gradientUnits="userSpaceOnUse"><stop offset="0" stop-color="#b37cff"/><stop offset="1" stop-color="#f895e7"/></linearGradient><linearGradient id="linear-gradient-2" x1="2843.23" y1="206.33" x2="2879.17" y2="206.33" xlink:href="#linear-gradient"/><linearGradient id="linear-gradient-3" x1="3029.75" y1="480.88" x2="3054.41" y2="480.88" xlink:href="#linear-gradient"/><linearGradient id="linear-gradient-4" x1="2425.99" y1="761.36" x2="3059.69" y2="761.36" xlink:href="#linear-gradient"/><linearGradient id="linear-gradient-5" x1="2362.82" y1="894.96" x2="2398.3" y2="894.96" xlink:href="#linear-gradient"/><linearGradient id="linear-gradient-6" x1="2746.58" y1="747.52" x2="2077.63" y2="1773.25" gradientUnits="userSpaceOnUse"><stop offset="0" stop-color="#fdf53f"/><stop offset="1" stop-color="#d93c65"/></linearGradient><linearGradient id="linear-gradient-7" x1="1832.15" y1="880.86" x2="1849.69" y2="880.86" xlink:href="#linear-gradient"/><linearGradient id="linear-gradient-8" x1="1825.04" y1="683.84" x2="2168.73" y2="683.84" xlink:href="#linear-gradient"/><linearGradient id="linear-gradient-9" x1="1978.45" y1="1013.31" x2="2370.72" y2="1013.31" xlink:href="#linear-gradient"/><linearGradient id="linear-gradient-10" x1="1935.32" y1="1037.87" x2="1962.15" y2="1037.87" xlink:href="#linear-gradient"/><linearGradient id="linear-gradient-11" x1="2162.27" y1="799.05" x2="1805.5" y2="1621.61" xlink:href="#linear-gradient-6"/><linearGradient id="linear-gradient-12" x1="14116.39" y1="2823.09" x2="13668.49" y2="3310.27" gradientTransform="translate(-12907.78 -63.47) rotate(0.54)" gradientUnits="userSpaceOnUse"><stop offset="0" stop-color="#2b3582"/><stop offset="1" stop-color="#150e42"/></linearGradient><linearGradient id="linear-gradient-13" x1="13971.01" y1="2859.27" x2="14010.79" y2="2859.27" gradientTransform="translate(-12907.78 -63.47) rotate(0.54)" gradientUnits="userSpaceOnUse"><stop offset="0" stop-color="#f9b776"/><stop offset="1" stop-color="#f47960"/></linearGradient><linearGradient id="linear-gradient-14" x1="14015.91" y1="2730.7" x2="13568" y2="3217.9" xlink:href="#linear-gradient-12"/><linearGradient id="linear-gradient-15" x1="13827.62" y1="2857.22" x2="13861.97" y2="2857.22" xlink:href="#linear-gradient-13"/><linearGradient id="linear-gradient-16" x1="14134.77" y1="1821.32" x2="14338.03" y2="1821.32" xlink:href="#linear-gradient-13"/><linearGradient id="linear-gradient-17" x1="-3846.02" y1="1786.32" x2="-3709.63" y2="2096.64" gradientTransform="matrix(-1, -0.01, -0.01, 1, -2461.06, 36.7)" xlink:href="#linear-gradient-13"/><linearGradient id="linear-gradient-18" x1="14337.05" y1="1683.91" x2="14393.97" y2="1596.41" xlink:href="#linear-gradient-13"/><linearGradient id="Gradiente_sem_nome_10" x1="-1176.02" y1="1967.83" x2="-1411.53" y2="2874.56" gradientTransform="matrix(-1, 0, 0, 1, -364.17, 0)" gradientUnits="userSpaceOnUse"><stop offset="0" stop-color="#060011"/><stop offset="1" stop-color="#4c246d"/></linearGradient><linearGradient id="linear-gradient-19" x1="13689.99" y1="2109.21" x2="13947.21" y2="2109.21" xlink:href="#linear-gradient-13"/><linearGradient id="linear-gradient-20" x1="13887.51" y1="1834.23" x2="13989.21" y2="1834.23" xlink:href="#linear-gradient-13"/><linearGradient id="linear-gradient-21" x1="4917.25" y1="7838.4" x2="4879.25" y2="7713.05" gradientTransform="matrix(0.75, -0.66, 0.66, 0.75, -7774.38, -818.16)" xlink:href="#linear-gradient-13"/><linearGradient id="linear-gradient-22" x1="4878.4" y1="7837.81" x2="4844.21" y2="7725.04" gradientTransform="matrix(0.75, -0.66, 0.66, 0.75, -7774.38, -818.16)" xlink:href="#linear-gradient-13"/><linearGradient id="linear-gradient-23" x1="13727.86" y1="2012.35" x2="13869.79" y2="2603.75" gradientTransform="translate(-12639.5)" xlink:href="#linear-gradient-12"/><linearGradient id="linear-gradient-24" x1="13630.6" y1="2168.81" x2="13711.02" y2="2168.81" gradientTransform="translate(-12639.5)" xlink:href="#linear-gradient-13"/><linearGradient id="linear-gradient-25" x1="-1509.74" y1="2075.43" x2="-1488.52" y2="2163.81" gradientTransform="matrix(-1, 0, 0, 1, -364.17, 0)" gradientUnits="userSpaceOnUse"><stop offset="0" stop-color="#53d8ff"/><stop offset="1" stop-color="#3840f7"/></linearGradient><linearGradient id="linear-gradient-26" x1="1769.49" y1="1923.12" x2="3090.93" y2="1004.72" gradientUnits="userSpaceOnUse"><stop offset="0" stop-color="#a737d5"/><stop offset="1" stop-color="#ef497a"/></linearGradient><linearGradient id="linear-gradient-27" x1="1830.05" y1="2010.26" x2="3151.5" y2="1091.85" xlink:href="#linear-gradient-26"/><linearGradient id="linear-gradient-28" x1="1147.52" y1="1768.4" x2="2474.93" y2="2785.07" xlink:href="#linear-gradient-6"/><linearGradient id="linear-gradient-29" x1="1144.29" y1="1706.72" x2="2525.35" y2="2764.48" xlink:href="#linear-gradient-6"/><linearGradient id="linear-gradient-30" x1="1526.72" y1="2181.2" x2="3153.37" y2="3112.18" xlink:href="#linear-gradient-6"/><linearGradient id="linear-gradient-31" x1="1567.91" y1="2109.22" x2="3194.57" y2="3040.2" xlink:href="#linear-gradient-6"/></defs><g class="cls-1"><g id="Illustration"><path class="cls-2" d="M3088,2170.13c-276.11,620.58-1005,887.13-1576,841.69-155.92-12.41-469.65-37.38-714.61-260.13-470.42-427.77-398-1321.92,52.36-1848.35,58-67.8,459.42-522,1085-515.93,458,4.45,779.45,253.22,818.54,284.21,49.37,39.16,158.28,132.19,256.44,279.78C3240.27,1298.2,3260.55,1782.33,3088,2170.13Z" transform="translate(-465.61 -387.35)"/><path class="cls-3" d="M515.93,1055.4c4.62-5.09,10.73-12.58,15.25-9,73.16,58.46,251.77,235.13,235.75,556.84C746.83,2006.91,846.09,2150,962.4,2235c-24.14,2.79-70,5.65-122.4-9C434.42,2112.48,417.1,1164.31,515.93,1055.4Z" transform="translate(-465.61 -387.35)"/><path class="cls-4" d="M577.76,1178.78c12,44.37,23.15,88.91,32.56,133.73q14.46,67.14,24.61,134.85c6.56,45.13,12.24,90.34,15.89,135.65,3.87,45.3,5.68,90.65,7.34,136.17,1.93,45.5,3.6,91.34,10.2,137.31s18.94,91.92,39.75,134.72c5.2,10.67,10.62,21.3,16.64,31.53,5.82,10.34,12.12,20.45,18.6,30.46a521,521,0,0,0,43.38,57.33c31.81,36.23,69.25,68,109.84,94.56a9.43,9.43,0,0,0,12.81-2.14,8.63,8.63,0,0,0-2.44-12.09l0,0c-9.69-6.72-19.28-13.53-28.54-20.71-4.69-3.53-9.21-7.24-13.8-10.87-4.45-3.78-9.05-7.41-13.37-11.32a498.25,498.25,0,0,1-49.1-49.35c-30.36-34.85-55.55-74-75.5-114.89a441.73,441.73,0,0,1-24.33-63.28,488.49,488.49,0,0,1-14.5-66c-6.77-44.61-8.82-90-11.08-135.47s-5-91.22-9.65-136.83q-3.39-34.2-8.06-68.31c-1.49-11.37-3.2-22.72-4.9-34.07s-3.69-22.67-5.66-34q-12-67.87-28.3-135c-11.12-44.7-23.47-89.15-37.59-133.12a2.59,2.59,0,0,0-3.1-1.66A2.28,2.28,0,0,0,577.76,1178.78Z" transform="translate(-465.61 -387.35)"/><path class="cls-3" d="M1154.28,2352c14.89,13,38.1,1.85,37.46-17.88-7.06-217.26-50.83-1080-307.56-1608.9-18.33-37.76-71.3-40.05-92.45-3.78C658.11,950.62,354.59,1655.59,1154.28,2352Z" transform="translate(-465.61 -387.35)"/><path class="cls-5" d="M851.11,999.44c-3,28.49-3.94,57.1-4.4,85.7s0,57.22,1.09,85.81c2.1,57.19,6.88,114.26,13.47,171.12s15.26,113.48,25.5,169.82,22.56,112.29,36,168l10.41,41.68,11.14,41.5,5.6,20.73,6,20.64,12,41.25c16.91,54.73,34.31,109.35,53.85,163.22q57.67,162,129.94,318.29a11.65,11.65,0,0,0,21.16-9.75l-.09-.18q-74.07-154.12-134.33-314.45c-20.29-53.29-38.48-107.36-56.2-161.57l-12.61-40.88-6.3-20.44-5.91-20.56-11.75-41.13-11-41.34c-14.27-55.23-27.44-110.78-38.55-166.76s-20.62-112.27-28.15-168.86-13.16-113.44-16.17-170.47q-2.37-42.76-2.48-85.62c0-28.54.52-57.15,3-85.57v0a.6.6,0,0,0-.55-.65A.59.59,0,0,0,851.11,999.44Z" transform="translate(-465.61 -387.35)"/><g class="cls-6"><path class="cls-7" d="M2107.25,1059.62a10.78,10.78,0,0,1-8.69-11.51c1-12.14,2.64-24.41,4.73-36.48a10.77,10.77,0,0,1,12.46-8.79l.21,0a10.78,10.78,0,0,1,8.58,12.43c-2,11.46-3.49,23.12-4.49,34.65a10.79,10.79,0,0,1-11.68,9.82A10.41,10.41,0,0,1,2107.25,1059.62Zm18.47-92.13a11.3,11.3,0,0,1-1.24-.32,10.78,10.78,0,0,1-7-13.55c3.71-11.66,8-23.27,12.62-34.52a10.79,10.79,0,0,1,19.93,8.26c-4.44,10.69-8.47,21.73-12,32.81A10.79,10.79,0,0,1,2125.72,967.49ZM2164,881.71a10.55,10.55,0,0,1-3.44-1.3,10.78,10.78,0,0,1-3.81-14.77c6.2-10.52,12.93-20.9,20-30.85a10.78,10.78,0,1,1,17.57,12.51c-6.72,9.45-13.12,19.31-19,29.3A10.79,10.79,0,0,1,2164,881.71Zm56.53-75.07a10.61,10.61,0,0,1-5.36-2.76,10.79,10.79,0,0,1-.42-15.25c8.4-8.87,17.29-17.48,26.42-25.6a10.78,10.78,0,0,1,14.33,16.12c-8.66,7.71-17.1,15.89-25.09,24.32A10.74,10.74,0,0,1,2220.56,806.64Zm71.85-60.58a10.78,10.78,0,0,1-3.95-19.56c10.14-6.77,20.71-13.2,31.42-19.11a10.79,10.79,0,0,1,10.42,18.89c-10.18,5.62-20.22,11.73-29.86,18.16A10.74,10.74,0,0,1,2292.41,746.06Zm83.46-43.17a10.79,10.79,0,0,1-1.83-20.67c11.4-4.36,23.13-8.3,34.87-11.68a10.79,10.79,0,0,1,6,20.73c-11.15,3.22-22.3,7-33.13,11.1A10.68,10.68,0,0,1,2375.87,702.89Zm393,49.62a10.68,10.68,0,0,1-4.19-1.79c-9.45-6.71-19.32-13.09-29.34-19a10.78,10.78,0,1,1,10.92-18.6c10.55,6.19,21,12.91,30.9,20a10.79,10.79,0,0,1-8.29,19.39ZM2466.76,679.3a10.79,10.79,0,0,1,.52-21.27c12.09-1.73,24.4-2.94,36.59-3.62a10.79,10.79,0,0,1,1.2,21.54c-11.58.64-23.27,1.8-34.74,3.43A10.65,10.65,0,0,1,2466.76,679.3Zm219.79,27.83a10.08,10.08,0,0,1-2.08-.62c-10.72-4.42-21.77-8.43-32.85-11.94a10.79,10.79,0,0,1,6.51-20.57c11.65,3.69,23.29,7.92,34.57,12.57a10.78,10.78,0,0,1-6.15,20.56Zm-125.91-30.52a10.79,10.79,0,0,1,3-21.34c12.15,1,24.42,2.59,36.47,4.66l.23,0a10.79,10.79,0,0,1-3.87,21.22c-11.44-1.95-23.1-3.44-34.65-4.41C2561.4,676.73,2561,676.68,2560.64,676.61Z" transform="translate(-465.61 -387.35)"/><path class="cls-8" d="M2826.39,801.75a10.66,10.66,0,0,1-5.67-3.06c-3.88-4-7.91-8-12-11.8a10.78,10.78,0,0,1,14.82-15.67c4.28,4,8.52,8.22,12.6,12.41a10.79,10.79,0,0,1-9.77,18.12Z" transform="translate(-465.61 -387.35)"/></g><g class="cls-6"><path class="cls-9" d="M2945.76,1108.17a10.79,10.79,0,0,1-8.73-10.93c.18-5.56.24-11.22.18-16.81a10.79,10.79,0,0,1,21.58-.21c.05,5.89,0,11.85-.2,17.7a10.79,10.79,0,0,1-11.12,10.44A11.77,11.77,0,0,1,2945.76,1108.17Z" transform="translate(-465.61 -387.35)"/><path class="cls-10" d="M2446.73,1507.78q-7.3-1.41-14.63-3.08a10.79,10.79,0,0,1,4.8-21c11.25,2.57,22.59,4.67,33.82,6.27a10.79,10.79,0,0,1-3,21.36C2460.73,1510.3,2453.68,1509.12,2446.73,1507.78Zm-69.15-19.5a11.11,11.11,0,0,1-1.77-.5c-11.27-4.24-22.48-9-33.32-14.16a10.78,10.78,0,0,1,9.26-19.48c10.3,4.9,20.95,9.42,31.65,13.45a10.79,10.79,0,0,1-5.82,20.69Zm146.71,27.1a10.79,10.79,0,0,1,2.1-21.38c11.4,0,23-.38,34.34-1.3a10.78,10.78,0,1,1,1.73,21.5c-12,1-24.16,1.43-36.16,1.37A11,11,0,0,1,2524.29,1515.38Zm-229.17-69a10.94,10.94,0,0,1-3.88-1.58c-10-6.6-19.93-13.72-29.38-21.14a10.78,10.78,0,0,1,13.32-17c9,7,18.36,13.8,27.91,20.07a10.79,10.79,0,0,1-8,19.61Zm321.06,59.17a10.79,10.79,0,0,1-.29-21.13c11.12-2.46,22.3-5.42,33.21-8.82a10.79,10.79,0,1,1,6.41,20.6c-11.49,3.57-23.26,6.7-35,9.28A10.7,10.7,0,0,1,2616.18,1505.55Zm87.51-29.76a10.78,10.78,0,0,1-2.54-20.36c10.35-4.84,20.61-10.18,30.5-15.86a10.79,10.79,0,0,1,10.75,18.71c-10.42,6-21.22,11.59-32.1,16.69A10.75,10.75,0,0,1,2703.69,1475.79Zm78.94-48.12a10.79,10.79,0,0,1-4.54-19.13c9-7,17.91-14.43,26.32-22.12a10.79,10.79,0,1,1,14.56,15.92c-8.86,8.09-18.18,15.93-27.7,23.28A10.78,10.78,0,0,1,2782.63,1427.67Zm66.56-64.19A10.79,10.79,0,0,1,2843,1346c7.3-8.79,14.31-18,20.83-27.35a10.79,10.79,0,1,1,17.7,12.33c-6.87,9.86-14.25,19.55-21.94,28.8A10.77,10.77,0,0,1,2849.19,1363.48Zm50.87-77.27a10.79,10.79,0,0,1-7.57-15.49c5.17-10.16,10-20.67,14.28-31.25a10.79,10.79,0,1,1,20,8.13c-4.53,11.14-9.59,22.21-15,32.91A10.79,10.79,0,0,1,2900.06,1286.21Zm32.63-86.5-.65-.14a10.79,10.79,0,0,1-7.77-13.13c2.1-8.15,4-16.45,5.55-24.69.58-3,1.12-6,1.62-9a10.79,10.79,0,0,1,12.45-8.82,10.67,10.67,0,0,1,8.82,12.44c-.53,3.14-1.1,6.27-1.71,9.41-1.67,8.67-3.63,17.41-5.83,26A10.78,10.78,0,0,1,2932.69,1199.71Z" transform="translate(-465.61 -387.35)"/><path class="cls-11" d="M2223.74,1387.16a10.74,10.74,0,0,1-5.71-3.1c-4.06-4.2-8.1-8.57-12-13a10.78,10.78,0,1,1,16.12-14.33c3.73,4.19,7.57,8.34,11.42,12.33a10.79,10.79,0,0,1-9.81,18.08Z" transform="translate(-465.61 -387.35)"/></g><path class="cls-12" d="M2261.72,1267.07a5,5,0,0,0,5.25,2.58l60.55-9.89a267.54,267.54,0,0,0,67.09,54.76l2.49,61.26a5.05,5.05,0,0,0,3.59,4.63l70.49,21.15a5.07,5.07,0,0,0,5.55-1.89l35.8-49.78a267.37,267.37,0,0,0,86.15-8.78l45.11,41.59a5,5,0,0,0,5.8.73l64.8-34.89a5,5,0,0,0,2.59-5.25l-9.89-60.56a267.11,267.11,0,0,0,54.75-67.09l61.27-2.49a5,5,0,0,0,4.62-3.58l21.15-70.5a5,5,0,0,0-1.88-5.54l-49.78-35.8a267.31,267.31,0,0,0-8.78-86.15L2830,966.47a5.06,5.06,0,0,0,.73-5.81l-34.9-64.8a5.05,5.05,0,0,0-5.25-2.59l-60.55,9.9A267.15,267.15,0,0,0,2663,848.41l-2.49-61.27a5.05,5.05,0,0,0-3.59-4.62l-70.49-21.15a5,5,0,0,0-5.54,1.89L2545.05,813a267.28,267.28,0,0,0-86.14,8.78l-45.12-41.59a5,5,0,0,0-5.8-.73l-64.8,34.89a5,5,0,0,0-2.59,5.25l9.89,60.56a267.11,267.11,0,0,0-54.75,67.09l-61.27,2.48a5,5,0,0,0-4.62,3.59l-21.15,70.5a5,5,0,0,0,1.89,5.54l49.78,35.8a267.06,267.06,0,0,0,8.78,86.15l-41.59,45.11a5,5,0,0,0-.73,5.81Z" transform="translate(-465.61 -387.35)"/><path class="cls-13" d="M2514.73,1154.1a74,74,0,1,1,10.79,1.27A74.1,74.1,0,0,1,2514.73,1154.1Zm24.92-128.32a57.69,57.69,0,0,0-8.35-1,56.45,56.45,0,1,0,8.35,1Z" transform="translate(-465.61 -387.35)"/><path class="cls-13" d="M2496,1259.3a182.56,182.56,0,0,1-18.15-4.46h0c-1.9-.56-3.78-1.16-5.66-1.79a183.12,183.12,0,0,1-26.79-11.43l-.35-.18-1-.53-1.92-1.05a4.31,4.31,0,0,1-2.16-4.59,4.45,4.45,0,0,1,.47-1.27,4.31,4.31,0,0,1,5.86-1.69,173.44,173.44,0,0,0,197.18-20.72,172.17,172.17,0,0,0,52.6-81.19,177.75,177.75,0,0,0,4.26-17.32,173.31,173.31,0,0,0-120.44-198.44c-91.55-27.45-188.3,24.67-215.75,116.18a169.84,169.84,0,0,0-4.2,17.1,172.65,172.65,0,0,0,2.15,75.18,4.44,4.44,0,0,1,.06,1.88,4.32,4.32,0,0,1-8.42.24,181.43,181.43,0,0,1-2.27-78.93q1.76-9,4.41-18c28.82-96.07,130.46-150.77,226.5-122a182,182,0,0,1,126.44,208.32q-1.77,9.13-4.47,18.18A181.95,181.95,0,0,1,2496,1259.3Z" transform="translate(-465.61 -387.35)"/><g class="cls-6"><path class="cls-14" d="M1692,1269a6.66,6.66,0,0,1-5.37-5.91c-.53-5.63-.91-11.35-1.11-17a6.66,6.66,0,1,1,13.32-.46c.19,5.39.55,10.84,1.06,16.21a6.64,6.64,0,0,1-7.9,7.17Z" transform="translate(-465.61 -387.35)"/><path class="cls-15" d="M1691.84,1217.79a6.66,6.66,0,0,1-5.36-7.13,289.53,289.53,0,0,1,4.07-29q.59-3,1.24-6a6.89,6.89,0,0,1,7.91-5.12,6.67,6.67,0,0,1,5.12,7.91c-.42,1.93-.81,3.85-1.18,5.78a277.14,277.14,0,0,0-3.9,27.68,6.65,6.65,0,0,1-7.22,6C1692.29,1217.86,1692.06,1217.83,1691.84,1217.79Zm14.53-67.63a6,6,0,0,1-.92-.25,6.67,6.67,0,0,1-4.12-8.48A288.39,288.39,0,0,1,1715,1108.7a6.66,6.66,0,0,1,12,5.87,275.19,275.19,0,0,0-13,31.23A6.67,6.67,0,0,1,1706.37,1150.16Zm30.5-62.09a6.66,6.66,0,0,1-4.3-10.2,287.68,287.68,0,0,1,21.28-28.39,6.66,6.66,0,0,1,10.14,8.63,273.56,273.56,0,0,0-20.28,27.08A6.68,6.68,0,0,1,1736.87,1088.07Zm44.83-52.69a6.66,6.66,0,0,1-3.23-11.45,287.53,287.53,0,0,1,27.57-22.32,6.66,6.66,0,0,1,7.72,10.86,275.89,275.89,0,0,0-26.29,21.28A6.62,6.62,0,0,1,1781.7,1035.38ZM1838,995.24a6.66,6.66,0,0,1-1.92-12.4,291.88,291.88,0,0,1,32.15-14.94,6.66,6.66,0,1,1,4.87,12.4,278.69,278.69,0,0,0-30.67,14.26A6.66,6.66,0,0,1,1838,995.24ZM1902.4,970a6.67,6.67,0,0,1-.39-13,284.85,284.85,0,0,1,34.81-6.65,6.66,6.66,0,0,1,1.69,13.22,272.17,272.17,0,0,0-33.2,6.34A6.67,6.67,0,0,1,1902.4,970Zm68.57-8.75a6.66,6.66,0,0,1,1.25-13.2,287.78,287.78,0,0,1,35.4,2.1,6.66,6.66,0,0,1-1.61,13.23,274.8,274.8,0,0,0-33.76-2A6,6,0,0,1,1971,961.25ZM2072.69,980a6.61,6.61,0,0,1-1.13-.33,277.87,277.87,0,0,0-28-9c-1.43-.39-2.85-.76-4.27-1.1a6.67,6.67,0,0,1-4.87-8.07,6.6,6.6,0,0,1,8.07-4.87c1.51.38,3,.76,4.52,1.17a289.7,289.7,0,0,1,29.32,9.48,6.66,6.66,0,0,1-3.64,12.76Z" transform="translate(-465.61 -387.35)"/></g><g class="cls-6"><path class="cls-16" d="M1922.51,1519.1A6.66,6.66,0,0,1,1925,1506a274.41,274.41,0,0,0,33,3.89,6.66,6.66,0,1,1-.75,13.3,290.88,290.88,0,0,1-34.63-4.07Zm-33.13-8-.7-.18a292.22,292.22,0,0,1-32.68-12.2,6.67,6.67,0,0,1,5.41-12.19,276.79,276.79,0,0,0,31.18,11.65,6.67,6.67,0,0,1-3.21,12.92Zm101,11.84a6.66,6.66,0,0,1,.82-13.19,274.28,274.28,0,0,0,33-4.22,6.67,6.67,0,0,1,2.49,13.1,288.72,288.72,0,0,1-34.61,4.41A6.46,6.46,0,0,1,1990.42,1522.92Zm-163.23-39.49a6.63,6.63,0,0,1-2.17-.83,284,284,0,0,1-28.78-19.75,6.66,6.66,0,1,1,8.2-10.5,275.21,275.21,0,0,0,27.44,18.83,6.66,6.66,0,0,1-4.69,12.25Zm230,26.78a6.66,6.66,0,0,1-.77-12.89,273.77,273.77,0,0,0,31-12,6.66,6.66,0,0,1,5.57,12.11,289.54,289.54,0,0,1-32.52,12.62A6.72,6.72,0,0,1,2057.24,1510.21Zm61.82-28.37a6.67,6.67,0,0,1-2.23-12.22,278,278,0,0,0,27.26-19.1,6.66,6.66,0,0,1,8.29,10.43,292,292,0,0,1-28.57,20A6.64,6.64,0,0,1,2119.06,1481.84Zm53.26-42.36a6.67,6.67,0,0,1-3.48-11.22,272.33,272.33,0,0,0,21.87-25.08,6.66,6.66,0,1,1,10.56,8.13,287.58,287.58,0,0,1-22.94,26.3A6.68,6.68,0,0,1,2172.32,1439.48Z" transform="translate(-465.61 -387.35)"/><path class="cls-17" d="M1773.3,1441.36a6.62,6.62,0,0,1-3.45-1.83c-4-4-8-8.2-11.68-12.39a6.66,6.66,0,1,1,10-8.85c3.55,4,7.3,8,11.15,11.82a6.66,6.66,0,0,1-6,11.25Z" transform="translate(-465.61 -387.35)"/></g><path class="cls-18" d="M1795,1357.91a3.38,3.38,0,0,0,3.51,1.73l40.53-6.62a179.1,179.1,0,0,0,44.89,36.64l1.66,41a3.4,3.4,0,0,0,2.4,3.1l47.18,14.15a3.38,3.38,0,0,0,3.7-1.26l24-33.31a178.89,178.89,0,0,0,57.65-5.88l30.18,27.83a3.39,3.39,0,0,0,3.89.49l43.36-23.35a3.37,3.37,0,0,0,1.73-3.51l-6.62-40.52a178.71,178.71,0,0,0,36.64-44.9l41-1.66a3.36,3.36,0,0,0,3.09-2.4l14.15-47.17a3.36,3.36,0,0,0-1.26-3.71l-33.31-24a178.88,178.88,0,0,0-5.87-57.65l27.83-30.18a3.39,3.39,0,0,0,.49-3.89l-23.35-43.36a3.38,3.38,0,0,0-3.52-1.73l-40.52,6.62a178.66,178.66,0,0,0-44.89-36.64l-1.67-41a3.35,3.35,0,0,0-2.4-3.09l-47.17-14.15a3.36,3.36,0,0,0-3.71,1.26l-23.95,33.31A178.61,178.61,0,0,0,1927,1060l-30.19-27.83a3.34,3.34,0,0,0-3.88-.49L1849.55,1055a3.37,3.37,0,0,0-1.73,3.52l6.61,40.52a178.84,178.84,0,0,0-36.63,44.89l-41,1.67a3.35,3.35,0,0,0-3.09,2.4l-14.16,47.17a3.38,3.38,0,0,0,1.27,3.71l33.31,24a178.85,178.85,0,0,0,5.87,57.64l-27.83,30.19a3.38,3.38,0,0,0-.49,3.88Z" transform="translate(-465.61 -387.35)"/><path class="cls-13" d="M1964.1,1283.18a50.57,50.57,0,1,1,7.42.87A51.85,51.85,0,0,1,1964.1,1283.18Zm16.68-85.87a38.3,38.3,0,0,0-5.4-.64,37.07,37.07,0,0,0-3.27,74.07h0a37.07,37.07,0,0,0,8.67-73.43Z" transform="translate(-465.61 -387.35)"/><path class="cls-13" d="M1951,1356.39q-6.21-1.2-12.39-3.05a126,126,0,0,1-23.62-9.78l-1-.56a6.66,6.66,0,1,1,6.43-11.66,112.6,112.6,0,0,0,22,9.23h0l1.26.37a111.06,111.06,0,0,0,54.9,1.84,112.87,112.87,0,0,0,28.36-10.4l.22-.12.67-.36a112.15,112.15,0,1,0-162-71.26,6.66,6.66,0,1,1-12.91,3.27,125.25,125.25,0,0,1-1.57-54.45q1.22-6.26,3-12.38a125.51,125.51,0,0,1,243.5,59.58c-.81,4.19-1.84,8.38-3.08,12.53C2076.18,1331.36,2013.36,1368.42,1951,1356.39Z" transform="translate(-465.61 -387.35)"/><path class="cls-19" d="M660.08,2661.73a43.09,43.09,0,0,0,43,42.95H3027.69a43.1,43.1,0,0,0,43-42.95L3090,1325.83c0-23.62-27.83-69.73-78.83-66.26L739.31,1200.78a108.33,108.33,0,0,0-111.15,110.8Z" transform="translate(-465.61 -387.35)"/><path class="cls-20" d="M702.52,2620.53a40.79,40.79,0,0,0,40.67,40.67H2971.63a40.79,40.79,0,0,0,40.67-40.67l18.25-1212.74c-2.15-73-66.13-99.21-104.91-97.66L748.25,1251.71a76.13,76.13,0,0,0-78.11,77.91Z" transform="translate(-465.61 -387.35)"/><rect class="cls-19" x="471.5" y="2698.2" width="2740.64" height="117.38" rx="5.65" transform="translate(3218.02 5126.42) rotate(180)"/><path class="cls-21" d="M3028.74,1530.09l1.81-121.52c-2.15-73-66.13-99.6-104.91-98L748.25,1251.91a76,76,0,0,0-55.76,22.1,77.72,77.72,0,0,0-22.35,56.45l5,199.63Z" transform="translate(-465.61 -387.35)"/><rect class="cls-22" x="303.25" y="1201.98" width="1330.43" height="558.58" rx="11.17"/><rect class="cls-22" x="1703.08" y="1201.98" width="795.55" height="558.58" rx="8"/><rect class="cls-22" x="303.25" y="1841.8" width="2195.38" height="379.16" rx="9.83"/><circle class="cls-23" cx="786.04" cy="1387.05" r="27.96" transform="translate(-936.58 19.03) rotate(-22.5)"/><circle class="cls-24" cx="879.24" cy="1389.74" r="27.96" transform="translate(-1140.94 1538.82) rotate(-76.72)"/><circle class="cls-25" cx="500.63" cy="1007.57" r="27.96"/><circle class="cls-26" cx="1562.56" cy="1943.98" r="147.14" transform="translate(-1382.55 1286.93) rotate(-45)"/><circle class="cls-26" cx="1564.38" cy="1943.98" r="95.88" transform="translate(-1382.02 1288.21) rotate(-45)"/><path class="cls-27" d="M1039.86,2928.66s-4.89,26.22-7.41,52.19a17.91,17.91,0,0,0,16.94,19.57c34.61,1.77,108.63,5.28,135.21,4.35a5.83,5.83,0,0,0,5.21-7.93,13.06,13.06,0,0,0-6.61-7.1l-121.78-57.38Z" transform="translate(-465.61 -387.35)"/><path class="cls-28" d="M1036.21,2913.2l3.42,31.44s21.33,10.18,36.07-.91l-8.54-35.09Z" transform="translate(-465.61 -387.35)"/><path d="M1044.64,2322.69c-1.69,8.19-12.55,409.25,28.62,589.43a6.11,6.11,0,0,1-3.65,7.06,106.31,106.31,0,0,1-35,6.76,10.5,10.5,0,0,1-10.35-7.64c-11.86-41.82-68.6-251.35-74.35-451-6.44-223.14.07-7.6.07-7.6l6.33-137.83Z" transform="translate(-465.61 -387.35)"/><path class="cls-29" d="M899,2941s-7.51,13.19-15,48.35a10.92,10.92,0,0,0,9.49,13.17c11.42,1.24,29,2.85,43.1,2.89a10.89,10.89,0,0,0,10.9-12c-1.44-12.88-6.1-34-21-50.6Z" transform="translate(-465.61 -387.35)"/><path class="cls-30" d="M892.93,2900.56l8.25,47.58s8.55,6.49,25.63,2L923.14,2899Z" transform="translate(-465.61 -387.35)"/><path d="M874.81,2333.38c-37.09,211.31,2.62,523.16,16.43,584.26a9.49,9.49,0,0,0,7.6,7.29c6.42,1.13,17,2.1,27.44-.83a8.71,8.71,0,0,0,6.34-8c2.41-49.26,1.82-351.84,35.63-471.1a27.22,27.22,0,0,1,10.62-14.88l63.85-44.48,5.56-72.84Z" transform="translate(-465.61 -387.35)"/><path d="M1102.09,1934.49C997,1931.75,880.78,1960,880.78,1960c-33.07,182.49-9.24,393.57-9.24,393.57,81.16,22.11,173.27-11.4,173.27-11.4,14.25-76.27,79.4-290.68,79.4-290.68,51.41-5.89,93.85-20.3,128.87-39.55-26.28-31.06-38.43-70.37-43.65-93.58C1172.16,1929.53,1134.5,1935.34,1102.09,1934.49Z" transform="translate(-465.61 -387.35)"/><path class="cls-31" d="M1414,1782.66c-10.2-12.57-23.33-6.8-23.33-6.8-16.09,65.18-97.68,117.38-181.24,142.48,5.22,23.21,17.37,62.52,43.65,93.58C1392.08,1935.5,1414,1782.66,1414,1782.66Z" transform="translate(-465.61 -387.35)"/><path class="cls-32" d="M1411.46,1785.8c1,3.45-11.51,8.56-18.74-5.56-.19-6.73-4-35.61.06-41.06,21.71-29,63.59-65.21,63.59-65.21,7,7,1.1,13.74,1.1,13.74l-20.34,20.8c4.14,7.65,9.22,14.13,11.54,23.37a28.2,28.2,0,0,1-3,20.75c-3.59,6.34-8.5,14.57-13.12,21C1423.78,1785.83,1411.46,1785.8,1411.46,1785.8Z" transform="translate(-465.61 -387.35)"/><path class="cls-33" d="M1428.18,1722l-18.51,15.39-5.91,15.44,16.2,18.32s5.8-30.7,10-37.31S1432,1724,1428.18,1722Z" transform="translate(-465.61 -387.35)"/><path class="cls-34" d="M920.12,2062.12,880.78,1960S782,2025.74,765,2110.15c18.53,1.54,52.24,6.69,85.11,23.69C857.79,2094,920.12,2062.12,920.12,2062.12Z" transform="translate(-465.61 -387.35)"/><path class="cls-35" d="M1005,2158.7s-110.81,61.23-147.49,7.69c-7.62-11.11-9.36-22.11-7.36-32.55-32.87-17-66.58-22.15-85.11-23.69-5.11,25.45-2.8,52.59,11.92,80.13,64,119.79,242.36-4.27,242.36-4.27Z" transform="translate(-465.61 -387.35)"/><path class="cls-36" d="M996.46,1848.16l-34.37,96.38a3.5,3.5,0,0,0,1.55,4.21c9.07,5.13,41.77,20,81.59-4.7a16.42,16.42,0,0,0,7.66-11.65l11.63-83.59Z" transform="translate(-465.61 -387.35)"/><path class="cls-37" d="M1070.07,1759.3s36.06,69.47,31.09,97.35-50.47,25.44-90,2.38l-27.06-74.9Z" transform="translate(-465.61 -387.35)"/><path d="M1013.28,1822.39a2.84,2.84,0,0,0,1.28-4.15c-2.9-4.53-8.32-13.75-10-21.79,0,0-6.56-4.29,16.9-9.67s58.43-13.74,66-33.59c7.34-19.35-11-68.37-41.34-29.74a2.84,2.84,0,0,1-4.51,0c-4.86-6.44-17.65-19.84-35.67-12-16.86,7.37-18.86,19.65-18.69,25.86a2.83,2.83,0,0,1-3.39,2.86c-8.47-1.7-28.82-3.28-38.53,17.52-8,17.14-3,26.93,1.59,31.74a2.83,2.83,0,0,1-1.26,4.7c-5.59,1.66-12.84,6.32-12.24,19.39.82,18.08,21,16.68,26.79,15.91a2.89,2.89,0,0,1,2.53.92c4.88,5.5,26.87,28.89,50.89,31.91a2.87,2.87,0,0,0,3-3.77l-10.12-30.35a2.86,2.86,0,0,1,1.58-3.53Z" transform="translate(-465.61 -387.35)"/><path class="cls-38" d="M1017.42,1826.73s-26-18.19-28-3.1,23.34,22.1,36,16.59Z" transform="translate(-465.61 -387.35)"/><path class="cls-39" d="M982.34,2255.47l60.36-210.79a6.17,6.17,0,0,1,5.2-4.43c10.94-1.27,42.63-4.86,79.22-8,44.07-3.73,95.25-6.75,125.83-4.18a6.17,6.17,0,0,1,5,8.88c-17.4,35.18-88.94,178.31-124.76,225.2a6.19,6.19,0,0,1-5,2.44l-140-1.3A6.17,6.17,0,0,1,982.34,2255.47Z" transform="translate(-465.61 -387.35)"/><path class="cls-40" d="M996.93,2204.55s-8.41-34.58-5-46.85,10-28,31.87-24.53,47.74,12.73,47.74,12.73-1.31,16-18,10.83l10.32,8s-1.48,12.8-15.54,6l9.6,10.6s-6,10.5-16.38,3.76S1026.26,2208.71,996.93,2204.55Z" transform="translate(-465.61 -387.35)"/><path class="cls-41" d="M1123.09,2095.23a17.72,17.72,0,1,0,17.72-17.72A17.72,17.72,0,0,0,1123.09,2095.23Z" transform="translate(-465.61 -387.35)"/><path class="cls-20" d="M1049.53,2106.91l12.29-41.69a14.32,14.32,0,0,1,10.74-10c38.52-8,144-9.74,145-9.75l-.07-4.71c-4.35.06-106.94,1.73-145.9,9.85a19,19,0,0,0-14.3,13.31L1045,2105.57Z" transform="translate(-465.61 -387.35)"/><path class="cls-42" d="M1862.34,1930.08,1680,1942.5a9.16,9.16,0,0,1-7.06-15.81l174.85-129.48Z" transform="translate(-465.61 -387.35)"/><path class="cls-43" d="M2904,1346.52l-1026.91-6.28c-23.52-.14-42.61,17.28-42.43,38.71l4.32,517c.18,21.55,19.77,38.76,43.41,38.11l1015.8-27.83c22.56-.62,40.59-17.33,40.88-37.91l6.79-482.93C2946.18,1364.13,2927.4,1346.67,2904,1346.52Z" transform="translate(-465.61 -387.35)"/><path class="cls-20" d="M1913.12,1894.83c-11.88,0-23.11-4.31-31-11.92a32.32,32.32,0,0,1-10.29-23l-4.07-450.78a32.18,32.18,0,0,1,9.79-23c7.93-8,19.48-12.36,31.78-12.42l965.9,5.48c12.19.07,23.65,4.68,31.46,12.65a32.07,32.07,0,0,1,9.55,22.95l-6.39,421.05c-.29,18.88-17.88,34.11-40.06,34.68l-955.44,24.26Zm-4.06-517.78c-11.29,0-21.9,4.17-29.16,11.45a28.88,28.88,0,0,0-8.82,20.64l4.06,450.79a29.07,29.07,0,0,0,9.28,20.6c7.53,7.27,18.4,11.27,29.86,11l955.44-24.26c20.4-.52,36.58-14.32,36.84-31.42l6.39-421a28.78,28.78,0,0,0-8.61-20.59c-7.19-7.35-17.81-11.59-29.12-11.66l-965.9-5.48Z" transform="translate(-465.61 -387.35)"/><path class="cls-44" d="M2872.22,1378.15l-961.61-5.49c-22-.12-39.89,15.1-39.73,33.82l4,451.75c.17,18.83,17.26,35.5,39.39,34.94l952.45-26c21.13-.54,38-15.15,38.28-33.12l6.36-421.94C2911.7,1393.53,2894.11,1378.28,2872.22,1378.15Z" transform="translate(-465.61 -387.35)"/><path class="cls-20" d="M2110.54,1503v19.71l-96.14,201.12h-30.91l95.8-195.35v-.68h-108V1503Z" transform="translate(-465.61 -387.35)"/><path class="cls-20" d="M2233.87,1723.81v-60.13h-102.6V1644l98.53-141h32.27v137.25H2293v23.45h-30.91v60.13Zm0-83.58v-73.72q0-17.33,1-34.65h-1c-6.79,12.91-12.23,22.42-18.34,32.61l-54,75.08v.68Z" transform="translate(-465.61 -387.35)"/><path class="cls-20" d="M2333.08,1702.74c6.45.68,13.93,0,24.12-1,17.32-2.38,33.63-9.52,46.2-21.41,14.61-13.25,25.14-32.61,29.22-58.77h-1c-12.23,15-29.9,23.78-52,23.78-39.75,0-65.23-29.9-65.23-67.61,0-41.78,30.24-78.47,75.42-78.47s73,36.69,73,93.08c0,48.58-16.3,82.56-38,103.62-17,16.65-40.42,26.84-64.2,29.56a139.85,139.85,0,0,1-27.52,1.69Zm10.87-127c0,27.51,16.65,46.88,42.47,46.88,20,0,35.67-9.85,43.48-23.1,1.7-2.72,2.72-6.12,2.72-10.87,0-37.71-13.93-66.59-45.19-66.59C2362,1522,2344,1544.43,2344,1575.69Z" transform="translate(-465.61 -387.35)"/><path class="cls-20" d="M2490,1723.81v-18.35l23.44-22.76c56.39-53.68,81.87-82.21,82.21-115.51,0-22.42-10.87-43.14-43.82-43.14-20,0-36.69,10.19-46.88,18.68l-9.52-21.06a96.9,96.9,0,0,1,62.51-22.42c47.56,0,67.61,32.61,67.61,64.21,0,40.76-29.56,73.72-76.1,118.56l-17.67,16.31v.68H2631v24.8Z" transform="translate(-465.61 -387.35)"/><path class="cls-20" d="M2756.73,1723.81v-60.13h-102.6V1644l98.52-141h32.28v137.25h30.91v23.45h-30.91v60.13Zm0-83.58v-73.72q0-17.33,1-34.65h-1c-6.8,12.91-12.23,22.42-18.35,32.61l-54,75.08v.68Z" transform="translate(-465.61 -387.35)"/><path class="cls-45" d="M1846.28,2221.6c-40.4,43.91-35.31,130,10,197.05,1.91,2.69,3.92,5.37,6,8q57.4,72.26,114.83,144.49c43.55,54.76,71.61,116.69,115.18,171.44,3.66,4.6,24.65.19,30.53.41a20.17,20.17,0,0,0,15.55-6.46q117.58-126.83,234.27-252.73a20.19,20.19,0,0,0-3.18-30.23q-67-47-133.75-94.22-94.72-66.95-189.09-134.26c-2.68-1.94-5.43-3.75-8.2-5.51C1969.89,2178.28,1886.41,2177.91,1846.28,2221.6Z" transform="translate(-465.61 -387.35)"/><path class="cls-46" d="M1591.82,1992.89c-5,5.29,14.68,17.11,16.83,24.06l130.92,478c2.14,6.9,21.75,2,28.79,3.62a20.17,20.17,0,0,0,19.28-6l323-351.11a20.17,20.17,0,0,0-10-33.22L1632.8,1991.42C1625.74,1989.66,1596.83,1987.6,1591.82,1992.89Z" transform="translate(-465.61 -387.35)"/><path class="cls-47" d="M1819,2221.6c-40.4,43.91-35.31,130,10,197.05,1.91,2.69,3.92,5.37,6,8q57.4,72.26,114.83,144.49,65.32,82.14,130.67,164.26a20.18,20.18,0,0,0,30.59,1.13q117.58-126.83,234.27-252.73a20.19,20.19,0,0,0-3.18-30.23q-67-47-133.75-94.22-94.73-66.95-189.09-134.26c-2.68-1.94-5.43-3.75-8.2-5.51C1942.61,2178.28,1859.12,2177.91,1819,2221.6Z" transform="translate(-465.61 -387.35)"/><path class="cls-48" d="M1586,1997.13a20.18,20.18,0,0,0-4.61,19.82l144.88,467.87a20.16,20.16,0,0,0,34.1,7.69l323-351.11a20.17,20.17,0,0,0-10-33.22l-467.88-116.76A20.18,20.18,0,0,0,1586,1997.13Z" transform="translate(-465.61 -387.35)"/></g></g></svg>