<?xml version="1.0" encoding="utf-8"?>
<!-- Generator: Adobe Illustrator 25.2.1, SVG Export Plug-In . SVG Version: 6.00 Build 0)  -->
<svg version="1.1" id="Camada_1" xmlns="http://www.w3.org/2000/svg" xmlns:xlink="http://www.w3.org/1999/xlink" x="0px" y="0px"
	 viewBox="0 0 3710 3710" style="enable-background:new 0 0 3710 3710;" xml:space="preserve">
<style type="text/css">
	.st0{fill:#A6E9FC;}
	.st1{fill:url(#SVGID_1_);}
	.st2{fill:url(#SVGID_2_);}
	.st3{fill:url(#SVGID_3_);}
	.st4{fill:url(#SVGID_4_);}
	.st5{opacity:0.5;fill:url(#SVGID_5_);enable-background:new    ;}
	.st6{fill:#97A6B7;}
	.st7{fill:#FFFFFF;}
	.st8{fill:url(#SVGID_6_);}
	.st9{fill:#F4F7FA;}
	.st10{fill:url(#SVGID_7_);}
	.st11{opacity:0.4;fill:url(#SVGID_8_);enable-background:new    ;}
	.st12{opacity:0.2;fill:url(#SVGID_9_);enable-background:new    ;}
	.st13{fill:url(#SVGID_10_);}
	.st14{fill:url(#SVGID_11_);}
	.st15{opacity:0.3;}
	.st16{fill:url(#SVGID_12_);}
	.st17{fill:url(#SVGID_13_);}
	.st18{fill:url(#SVGID_14_);}
	.st19{fill:url(#SVGID_15_);}
	.st20{opacity:0.2;fill:url(#SVGID_16_);enable-background:new    ;}
	.st21{fill:url(#SVGID_17_);}
	.st22{fill:url(#SVGID_18_);}
	.st23{fill:url(#SVGID_19_);}
	.st24{fill:url(#SVGID_20_);}
	.st25{fill:url(#SVGID_21_);}
	.st26{fill:url(#SVGID_22_);}
	.st27{fill:url(#SVGID_23_);}
	.st28{fill:url(#SVGID_24_);}
	.st29{fill:url(#SVGID_25_);}
	.st30{fill:url(#SVGID_26_);}
	.st31{fill:url(#SVGID_27_);}
	.st32{opacity:0.5;fill:url(#SVGID_28_);enable-background:new    ;}
	.st33{fill:url(#SVGID_29_);}
	.st34{fill:url(#SVGID_30_);}
	.st35{fill:url(#SVGID_31_);}
	.st36{fill:url(#SVGID_32_);}
	.st37{fill:url(#SVGID_33_);}
	.st38{fill:url(#SVGID_34_);}
	.st39{fill:url(#SVGID_35_);}
	.st40{opacity:0.3;fill:url(#SVGID_36_);enable-background:new    ;}
	.st41{fill:url(#SVGID_37_);}
	.st42{fill:url(#SVGID_38_);}
	.st43{fill:url(#SVGID_39_);}
	.st44{opacity:0.3;fill:url(#SVGID_40_);enable-background:new    ;}
	.st45{fill:url(#SVGID_41_);}
	.st46{fill:url(#SVGID_42_);}
	.st47{fill:url(#SVGID_43_);}
	.st48{fill:url(#SVGID_44_);}
</style>
<g id="Illustration">
	<g>
		<path class="st0" d="M1921.2,455.6C1188.1,433.9,553,968.8,457,1670.8c-104.9,767.5,472.5,1458,1183,1568.6
			c883.7,137.6,1740.8-658.3,1663.9-1521.7C3245.9,1067.3,2666.5,477.8,1921.2,455.6z"/>
		<g>
			
				<linearGradient id="SVGID_1_" gradientUnits="userSpaceOnUse" x1="3284.4673" y1="1773.9072" x2="2321.2163" y2="2355.1106" gradientTransform="matrix(1 0 0 -1 0 3710)">
				<stop  offset="0" style="stop-color:#FFC444"/>
				<stop  offset="0.9964" style="stop-color:#F36F56"/>
			</linearGradient>
			<path class="st1" d="M2872.9,1770.9c44.2,22.4,99.7,1.8,123.9-46c24.3-47.8,8.2-104.8-36-127.2c-2.3-1.2-4.6-2.1-7-3.1
				c8.2-26.5,14.4-53.1,18.5-79.8c2.5,0,5.1,0,7.7-0.3c50.4-4.5,90.4-50.8,89.3-103.4c-1.1-52.6-42.8-91.7-93.2-87.2
				c-2.6,0.2-5.2,0.7-7.8,1.1c-5.3-26.1-12.5-51.6-21.6-76.2c2.3-1.4,4.6-2.8,6.9-4.3c43.1-30.2,56.9-89.8,30.8-133.2
				c-26.1-43.3-82.2-54-125.3-23.8c-2.2,1.5-4.3,3.2-6.3,4.9c-17-18.8-35.7-36.3-55.9-52.2c1.4-2.3,2.8-4.7,4.1-7.2
				c24.3-47.8,56-100.1,11.5-121.8c-103-50.3-147.2-7.2-171.5,40.6c-1.3,2.5-2.3,5-3.4,7.5c-24.8-6.9-49.9-11.7-75.1-14.3
				c0.2-2.7,0.3-5.3,0.2-8c-1.1-52.6,14.6-81.1-36-82.1c-110.3-2.1-147.5,45.7-146.5,98.4c0.1,2.8,0.3,5.4,0.6,8.1
				c-25.3,7.2-50.1,16.4-74.3,27.6c-1.1-2.3-2.3-4.7-3.7-6.9c-26.1-43.3-82.2-54-125.3-23.8s-56.9,89.8-30.8,133.2
				c1.3,2.2,2.8,4.3,4.3,6.3c-19.1,19.1-37,39.8-53.5,62.1c-2.1-1.3-4.3-2.7-6.6-3.8c-44.2-22.4-99.7-1.8-123.9,46
				c-24.3,47.8-8.2,104.8,36,127.2c2.3,1.2,4.6,2.1,7,3.1c-8.2,26.5-14.4,53.1-18.5,79.8c-2.5,0-5.1,0-7.7,0.3
				c-50.4,4.5-90.4,50.8-89.3,103.4s42.8,91.7,93.2,87.2c2.6-0.2,5.2-0.6,7.8-1.1c5.3,26.1,12.5,51.6,21.6,76.2
				c-2.3,1.4-4.6,2.8-6.9,4.3c-43.1,30.2-56.9,89.8-30.8,133.2c26.1,43.3,112.6,63.5,155.7,33.3c2.2-1.5-26-12.7-24-14.4
				c17,18.8,35.7,36.3,55.9,52.2c-1.4,2.3-2.8,4.7-4.1,7.2c-24.3,47.8-8.2,104.8,36,127.2c44.2,22.4,99.7,1.8,123.9-46
				c1.3-2.5,2.3-5,3.4-7.5c24.8,6.9,49.9,11.7,75.1,14.3c-0.2,2.7-0.3,5.3-0.2,8c1.1,52.6,42.8,91.7,93.2,87.2s90.4-50.8,89.3-103.4
				c-0.1-2.8-0.3-5.4-0.6-8.1c25.3-7.2,50.1-16.4,74.3-27.6c1.1,2.3,2.3,4.7,3.7,6.9c26.1,43.3,82.2,54,125.3,23.8
				s56.9-89.8,30.8-133.2c-1.3-2.2-2.8-4.3-4.3-6.3c19.1-19.1,37-39.8,53.5-62.1C2868.4,1768.4,2870.6,1769.7,2872.9,1770.9z
				 M2322.2,1777.8c-160.4-81.4-218.9-288.2-130.7-461.9s289.7-248.4,450-167c160.4,81.4,218.9,288.2,130.7,461.9
				C2684.1,1784.5,2482.6,1859.3,2322.2,1777.8z"/>
			
				<linearGradient id="SVGID_2_" gradientUnits="userSpaceOnUse" x1="3296.5837" y1="1793.9878" x2="2333.3333" y2="2375.1909" gradientTransform="matrix(1 0 0 -1 0 3710)">
				<stop  offset="0" style="stop-color:#FFC444"/>
				<stop  offset="0.9964" style="stop-color:#F36F56"/>
			</linearGradient>
			<path class="st2" d="M2980.1,1514.5c50.4-4.5,90.4-50.8,89.3-103.4c-1.1-52.6-42.8-91.7-93.2-87.2c-2.6,0.2-5.2,0.7-7.8,1.1
				c-5.3-26.1-12.5-51.6-21.6-76.2c2.3-1.4,4.6-2.8,6.9-4.3c43.1-30.2,96.5-103.2,66-143.6c-57.7-76.7-117.5-43.5-160.6-13.3
				c-2.2,1.5-4.3,3.2-6.3,4.9c-17-18.8-35.7-36.3-55.9-52.2c1.4-2.3,2.8-4.7,4.1-7.2c13.2-26,14.4-54.7,5.7-79.1
				c-41.6,73.3-82.7,146.9-123.1,220.9c127.9,93.8,168.7,278.5,88.7,436c-67.8,133.5-202.5,208.4-334,199
				c-5.9,15.2-11.6,30.5-17.9,45.6c-17.1,40.9-36.4,81-55.8,121c12.2,2.3,24.4,4.1,36.7,5.4c-0.2,2.7-0.3,5.3-0.2,8
				c1.1,52.6,33,97.4,124.3,92.5c50.5-2.7,59.2-56.1,58.2-108.8c-0.1-2.7-0.3-5.4-0.6-8.1c25.3-7.2,50.1-16.4,74.3-27.6
				c1.1,2.3,2.3,4.7,3.7,6.9c26.1,43.3,116.7,61.8,159.8,31.5c43.1-30.2,22.4-97.6-3.7-140.9c-1.3-2.2-2.8-4.3-4.3-6.3
				c19.1-19.1,37-39.8,53.5-62.1c2.1,1.3,4.3,2.7,6.6,3.8c44.2,22.4,99.7,1.8,123.9-46c24.3-47.8,8.2-104.8-36-127.2
				c-2.3-1.2-4.6-2.1-7-3.1c8.2-26.5,14.4-53.1,18.5-79.8C2974.9,1514.8,2977.5,1514.7,2980.1,1514.5z"/>
			
				<linearGradient id="SVGID_3_" gradientUnits="userSpaceOnUse" x1="2901.178" y1="2864.0452" x2="1285.2587" y2="156.2921" gradientTransform="matrix(1 0 0 -1 0 3710)">
				<stop  offset="0" style="stop-color:#FFC444"/>
				<stop  offset="0.9964" style="stop-color:#F36F56"/>
			</linearGradient>
			<path class="st3" d="M2920.4,1776.3c44.2,22.4,99.7,1.8,123.9-46c24.3-47.8,8.2-104.8-36-127.2c-2.3-1.2-4.6-2.1-7-3.1
				c8.2-26.5,14.4-53.1,18.5-79.8c2.5,0,5.1,0,7.7-0.3c50.4-4.5,90.4-50.8,89.3-103.4c-1.1-52.6-42.8-91.7-93.2-87.2
				c-2.6,0.2-5.2,0.7-7.8,1.1c-5.3-26.1-12.5-51.6-21.6-76.2c2.3-1.4,4.6-2.8,6.9-4.3c43.1-30.2,56.9-89.8,30.8-133.2
				c-26.1-43.3-82.2-54-125.3-23.8c-2.2,1.5-4.3,3.2-6.3,4.9c-17-18.8-35.7-36.3-55.9-52.2c1.4-2.3,2.8-4.7,4.1-7.2
				c24.3-47.8,8.2-104.8-36-127.2s-99.7-1.8-123.9,46c-1.3,2.5-2.3,5-3.4,7.5c-24.8-6.9-49.9-11.7-75.1-14.3c0.2-2.7,0.3-5.3,0.2-8
				c-1.1-52.6-42.8-91.7-93.2-87.2s-90.4,50.8-89.3,103.4c0.1,2.8,0.3,5.4,0.6,8.1c-25.3,7.2-50.1,16.4-74.3,27.6
				c-1.1-2.3-2.3-4.7-3.7-6.9c-26.1-43.3-82.2-54-125.3-23.8s-56.9,89.8-30.8,133.2c1.3,2.2,2.8,4.3,4.3,6.3
				c-19.1,19.1-37,39.8-53.5,62.1c-2.1-1.3-4.3-2.7-6.6-3.8c-44.2-22.4-99.7-1.8-123.9,46c-24.3,47.8-8.2,104.8,36,127.2
				c2.3,1.2,4.6,2.1,7,3.1c-8.2,26.5-14.4,53.1-18.5,79.8c-2.5,0-5.1,0-7.7,0.3c-50.4,4.5-90.4,50.8-89.3,103.4s42.8,91.7,93.2,87.2
				c2.6-0.2,5.2-0.6,7.8-1.1c5.3,26.1,12.5,51.6,21.6,76.2c-2.3,1.4-4.6,2.8-6.9,4.3c-43.1,30.2-56.9,89.8-30.8,133.2
				c26.1,43.3,82.2,54,125.3,23.8c2.2-1.5,4.3-3.2,6.3-4.9c17,18.8,35.7,36.3,55.9,52.2c-1.4,2.3-2.8,4.7-4.1,7.2
				c-24.3,47.8-8.2,104.8,36,127.2c44.2,22.4,99.7,1.8,123.9-46c1.3-2.5,2.3-5,3.4-7.5c24.8,6.9,49.9,11.7,75.1,14.3
				c-0.2,2.7-0.3,5.3-0.2,8c1.1,52.6,42.8,91.7,93.2,87.2s90.4-50.8,89.3-103.4c-0.1-2.8-0.3-5.4-0.6-8.1
				c25.3-7.2,50.1-16.4,74.3-27.6c1.1,2.3,2.3,4.7,3.7,6.9c26.1,43.3,82.2,54,125.3,23.8s56.9-89.8,30.8-133.2
				c-1.3-2.2-2.8-4.3-4.3-6.3c19.1-19.1,37-39.8,53.5-62.1C2915.9,1773.8,2918.1,1775.1,2920.4,1776.3z M2369.8,1783.2
				c-160.4-81.4-218.9-288.2-130.7-461.9s289.7-248.4,450-167c160.4,81.4,218.9,288.2,130.7,461.9S2530.1,1864.7,2369.8,1783.2z"/>
		</g>
		<g>
			
				<linearGradient id="SVGID_4_" gradientUnits="userSpaceOnUse" x1="487" y1="1776.5586" x2="2882.5" y2="1776.5586" gradientTransform="matrix(1 0 0 -1 0 3710)">
				<stop  offset="0" style="stop-color:#D8DEE8"/>
				<stop  offset="1" style="stop-color:#FFFFFF"/>
			</linearGradient>
			<path class="st4" d="M2744.3,1735.6c7.4,17.7,14.1,37.3,14.1,57.9v147.2c0,75.8-58.2,140-128.4,143.3l-1753.3,84l-62.4,4
				c18.9,20.4,38.5,46.9,60.3,64.4h-3.8c-165.8,0-304.5-93-304.5-93c-48.1-31-79.3-81.6-79.3-138.7v-195c0-56,30-105.7,76.5-138.5
				c36.9-26,84.4-41.3,135.7-40.7l1928.3,24.1c4.2,0.1,9.5,0.3,12.9,0.8l0,0h-0.2c3.9,0,47.9,6.3,114,30
				c69.2,24.8,92,27.8,128.3,55.4C2811.5,1735.4,2769.8,1734.7,2744.3,1735.6z"/>
			
				<linearGradient id="SVGID_5_" gradientUnits="userSpaceOnUse" x1="487.1" y1="1756.2001" x2="875.2" y2="1756.2001" gradientTransform="matrix(1 0 0 -1 0 3710)">
				<stop  offset="0" style="stop-color:#D8DEE8"/>
				<stop  offset="1" style="stop-color:#FFFFFF"/>
			</linearGradient>
			<path class="st5" d="M813.6,2172c18.9,20.4,39.2,46.9,61.1,64.4h-3.8c-165.8,0-304.5-93-304.5-93c-48.1-31-79.3-81.6-79.3-138.7
				v-195c0-56,30-105.7,76.5-138.5c27.9,25.3,106.1,78.1,289.5,103.4c-26.2,52.2-1.4,248.5,22.1,393.9L813.6,2172z"/>
			<g>
				<path class="st6" d="M2922.9,1851.1v147.2c0,5.1,0.8,10.3,0.4,15.3c-7.1,77.8-66.7,141.4-139.6,144.9l-1909.9,92.1
					c-4.2,0.2-9.2,0.2-13.3,0.2c-120.7,0-216-82.7-216-188.6v-195c0-97.1,82-178.9,187.9-194.3c12-1.8,25.2-3.5,37.8-3.5h3.3
					l1908.9,25C2860.4,1695.5,2922.9,1766.2,2922.9,1851.1z"/>
				<path class="st7" d="M2908.9,1851.1c0-75.8-55.8-138-125.3-138.9l-1909.1-24.1c-114.9-1.5-209,78.7-209,179.2v195
					c0,100.4,93.9,177.2,208.8,171.7l1910-92.3c69.5-3.4,124.6-67.5,124.6-143.3V1851.1z"/>
				<g>
					<g>
						<path class="st6" d="M1284.5,1952.1c0,17.4-15.6,31.8-34.9,32.2c-19.4,0.4-35.1-13.4-35.1-31c0-17.5,15.8-31.9,35.1-32.2
							C1269,1920.9,1284.5,1934.8,1284.5,1952.1z"/>
						<g>
							<g>
								<path class="st6" d="M1140.8,1954.7c0,68.5-62.8,126.1-141.5,128.6c-80.1,2.6-146.2-52.7-146.2-123.5s66-128.4,146.2-128.7
									C1078,1830.8,1140.8,1886.2,1140.8,1954.7z"/>
								
									<linearGradient id="SVGID_6_" gradientUnits="userSpaceOnUse" x1="884.9999" y1="1752.8245" x2="1110.7" y2="1752.8245" gradientTransform="matrix(1 0 0 -1 0 3710)">
									<stop  offset="0" style="stop-color:#40447E"/>
									<stop  offset="0.9964" style="stop-color:#3C3B6B"/>
								</linearGradient>
								<path class="st8" d="M1110.7,1955.2c0,54-49.5,99.1-111.4,100.9c-62.8,1.8-114.3-41.6-114.3-96.9s51.5-100.6,114.3-101
									C1061.2,1857.8,1110.7,1901.3,1110.7,1955.2z"/>
							</g>
							<path class="st9" d="M1093.1,1946.7c0,23.2-21.2,42.4-47.6,43c-26.5,0.6-48.1-18-48.1-41.4s21.6-42.7,48.1-43
								C1071.9,1905,1093.1,1923.5,1093.1,1946.7z"/>
						</g>
					</g>
					<g>
						<path class="st6" d="M2505.6,1930.6c0,14.9,11.4,26.7,25.4,26.4c14-0.3,25.2-12.5,25.2-27.3s-11.3-26.6-25.2-26.4
							C2517,1903.5,2505.6,1915.7,2505.6,1930.6z"/>
						<g>
							<g>
								<path class="st6" d="M2608,1928.8c0,57,42.8,101.8,94.9,100.1c51.4-1.6,92.5-47.9,92.5-103.4s-41.1-100.3-92.5-100.1
									C2650.8,1825.5,2608,1871.8,2608,1928.8z"/>
								
									<linearGradient id="SVGID_7_" gradientUnits="userSpaceOnUse" x1="250.8914" y1="1782.8378" x2="397.8914" y2="1782.8378" gradientTransform="matrix(-1 0 0 -1 3026.5913 3710)">
									<stop  offset="0" style="stop-color:#40447E"/>
									<stop  offset="0.9964" style="stop-color:#3C3B6B"/>
								</linearGradient>
								<path class="st10" d="M2628.7,1928.4c0,44.6,33.4,79.7,74.3,78.6c40.4-1.2,72.7-37.5,72.7-81.1s-32.4-78.8-72.7-78.6
									C2662.1,1847.5,2628.7,1883.8,2628.7,1928.4z"/>
							</g>
							<path class="st9" d="M2701.7,1919.9c0,18.9,14.1,33.9,31.4,33.6c17.2-0.4,31.1-15.9,31.1-34.6s-13.9-33.8-31.1-33.6
								C2715.8,1885.5,2701.7,1901,2701.7,1919.9z"/>
						</g>
					</g>
				</g>
			</g>
			
				<linearGradient id="SVGID_8_" gradientUnits="userSpaceOnUse" x1="644.6" y1="1747.6001" x2="2924.3999" y2="1747.6001" gradientTransform="matrix(1 0 0 -1 0 3710)">
				<stop  offset="0" style="stop-color:#D8DEE8"/>
				<stop  offset="1" style="stop-color:#FFFFFF"/>
			</linearGradient>
			<path class="st11" d="M2924.4,2013.7c-7.1,77.8-67.2,141.4-140.2,144.9l-1910.1,92.1c-4.2,0.2-9.3,0.2-13.4,0.2
				c-120.7,0-216.1-82.7-216.1-188.6v-195c0-97.1,82-178,187.9-193.4c1,5.4,2.8,10.9,4.5,16.5c17.6,58.8,74.2,124.6,235.9,135
				c301.3,19.3,629.9-70.3,1073.4,159c364.6,188.5,614.8,104.3,760,37.8C2912.5,2019.3,2918.6,2016.5,2924.4,2013.7z"/>
		</g>
		
			<linearGradient id="SVGID_9_" gradientUnits="userSpaceOnUse" x1="837.7" y1="1310.2002" x2="2691.2" y2="1310.2002" gradientTransform="matrix(1 0 0 -1 0 3710)">
			<stop  offset="3.597120e-03" style="stop-color:#E38DDD"/>
			<stop  offset="1" style="stop-color:#9571F6"/>
		</linearGradient>
		<path class="st12" d="M1077,1889.3l1614.2,586c0,0-732.7,887.9-1853.5,210.6c55.3-673.2,51.1-697.5,51.1-697.5
			s-27.3-71,56.9-113.6C1029.7,1832.2,1077,1889.3,1077,1889.3z"/>
		<g>
			<g>
				<g>
					
						<linearGradient id="SVGID_10_" gradientUnits="userSpaceOnUse" x1="1265.9462" y1="788.6595" x2="1868.0265" y2="788.6595" gradientTransform="matrix(1 0 0 -1 0 3710)">
						<stop  offset="0" style="stop-color:#311944"/>
						<stop  offset="1" style="stop-color:#A03976"/>
					</linearGradient>
					<path class="st13" d="M1817.6,3050.7c1.2-1.5,2.4-3,3.6-4.5c0.9-1.1,1.8-2.3,2.7-3.4c1.2-1.5,2.3-3.1,3.5-4.7
						c0.8-1.1,1.7-2.3,2.5-3.4c0.2-0.3,0.5-0.7,0.7-1c0.3-0.5,0.6-1,1-1.5c2.4-3.5,4.7-7.1,6.9-10.8c0.4-0.7,0.8-1.3,1.2-2
						c2.4-4,4.6-8.1,6.7-12.3c0.5-0.9,0.9-1.9,1.4-2.9c2.1-4.3,4-8.6,5.8-12.9c0.1-0.1,0.1-0.3,0.1-0.4c1.7-4.3,3.3-8.6,4.7-13
						c0.3-1,0.6-1.9,0.9-2.9c1.4-4.4,2.6-8.9,3.6-13.4c0.2-0.8,0.3-1.6,0.5-2.4c0.9-4.1,1.7-8.3,2.3-12.5c0.1-0.8,0.3-1.5,0.4-2.3
						c0.7-4.6,1.1-9.2,1.4-13.9c0.1-1,0.1-2.1,0.2-3.1c0.2-4.8,0.4-9.6,0.3-14.5c-0.9-37.2-12.4-72.2-32.1-103.2
						c-4.4-6.9-9.2-13.6-14.4-20c-20.7-25.9-47.6-48.3-78.9-66c-7.8-4.4-16-8.5-24.3-12.4c-25.1-11.4-52.5-20-81.5-25.3
						c-19.3-3.5-39.4-1.7-59.9-2c-5.1-0.1-10.3,3.9-15.5,3.9l0,0c-5,0-9.9-3.5-14.9-3.2c-1.6,0.1-3.3-1.6-4.9-1.5
						c-3.3,0.2-6.5-0.5-9.8-0.1c-2,0.2-3.9,0-5.8,0.2c-2.9,0.3-5.8,0.4-8.6,0.8c-2.1,0.3-4.1,0.5-6.2,0.8c-2.7,0.4-5.4,0.8-8,1.3
						c-2.1,0.4-4.2,0.8-6.3,1.2c-2.6,0.5-5.1,1-7.7,1.6c-2.1,0.5-4.2,0.9-6.3,1.5c-2.5,0.6-5,1.2-7.4,1.9c-2.1,0.5-4.2,1.1-6.2,1.7
						c-2.4,0.7-4.8,1.4-7.2,2.1c-2,0.6-4.1,1.2-6.1,1.9c-0.8,0.2-1.5,0.5-2.3,0.7c0,0,0,0,0.1,0C1341.7,2736,1263.6,2825,1266,2927
						c3.1,132.4,140.4,236.5,306.7,232.6c46-1.1,89.4-10.3,128.1-25.9c43.3-17.5,80.6-43,109-74l0,0c0.4-0.4,0.8-0.9,1.2-1.3
						c1.3-1.4,2.5-2.9,3.8-4.3C1815.7,3052.9,1816.6,3051.8,1817.6,3050.7z"/>
					<g>
						
							<linearGradient id="SVGID_11_" gradientUnits="userSpaceOnUse" x1="-25601.5254" y1="-24895.1191" x2="-26830.8535" y2="-26299.4668" gradientTransform="matrix(-1 0 0 1 5456.3906 -5929.2563)">
							<stop  offset="0" style="stop-color:#FFC444"/>
							<stop  offset="0.9964" style="stop-color:#F36F56"/>
						</linearGradient>
						<path class="st14" d="M1218,2927c-3.1-132.4,129.2-242.8,295.4-246.7s303.6,100.2,306.7,232.6c1,43.6-12.7,84.9-37.5,120.8
							c-29.6,42.8-74.9,77.8-129.9,100c-38.7,15.6-82.1,24.9-128.1,25.9C1358.4,3163.5,1221.1,3059.3,1218,2927z"/>
						<g class="st15">
							
								<linearGradient id="SVGID_12_" gradientUnits="userSpaceOnUse" x1="-27817.2578" y1="-19242.1895" x2="-27529.7168" y2="-18983.8184" gradientTransform="matrix(-0.9997 2.350000e-02 2.350000e-02 0.9997 5416.3994 -6609.7329)">
								<stop  offset="0" style="stop-color:#FFC444"/>
								<stop  offset="0.9964" style="stop-color:#F36F56"/>
							</linearGradient>
							<path class="st16" d="M1441.8,2743c38,69.9,2.8,136.9,53,181.5c51,45.3,114.8,0.6,185.4,36.8c27.3,14,58,41.3,81.6,98.4
								c37.8-41.2,59.6-92.2,58.3-146.8c-3.1-132.4-140.4-236.5-306.7-232.6c-38.1,0.9-74.4,7.4-107.7,18.4
								C1422.7,2713.4,1434,2728.6,1441.8,2743z"/>
						</g>
					</g>
				</g>
			</g>
			<g>
				<path class="st7" d="M1522.9,2896.2c42.8,0,77.5-34.7,77.5-77.5s-34.7-77.5-77.5-77.5s-77.5,34.7-77.5,77.5
					S1480.1,2896.2,1522.9,2896.2z"/>
				<path class="st7" d="M1681.1,3040.2c-29.2-58.7-89.7-99-159.6-99s-130.5,40.3-159.6,99c-1.9,3.8-1.7,8.8,0.6,12.4
					c2.2,3.6,6.2,6.3,10.4,6.3h297.3c4.2,0,8.2-2.7,10.4-6.3C1682.7,3049,1683,3044,1681.1,3040.2z"/>
			</g>
		</g>
		<g>
			<g>
				<g>
					
						<linearGradient id="SVGID_13_" gradientUnits="userSpaceOnUse" x1="1766.5571" y1="1383.7062" x2="2240.2397" y2="1383.7062" gradientTransform="matrix(1 0 0 -1 0 3710)">
						<stop  offset="0" style="stop-color:#311944"/>
						<stop  offset="1" style="stop-color:#A03976"/>
					</linearGradient>
					<path class="st17" d="M2200.6,2428c1-1.2,1.9-2.3,2.8-3.5c0.7-0.9,1.4-1.8,2.1-2.7c0.9-1.2,1.8-2.4,2.7-3.7
						c0.7-0.9,1.3-1.8,2-2.7c0.2-0.3,0.4-0.5,0.6-0.8c0.3-0.4,0.5-0.8,0.8-1.2c1.9-2.8,3.7-5.6,5.4-8.5c0.3-0.5,0.7-1,1-1.6
						c1.9-3.2,3.6-6.4,5.2-9.7c0.4-0.7,0.7-1.5,1.1-2.2c1.6-3.4,3.2-6.7,4.6-10.2c0-0.1,0.1-0.2,0.1-0.3c1.4-3.4,2.6-6.8,3.7-10.2
						c0.2-0.8,0.5-1.5,0.7-2.3c1.1-3.5,2-7,2.9-10.5c0.1-0.6,0.3-1.2,0.4-1.9c0.7-3.3,1.3-6.5,1.8-9.8c0.1-0.6,0.2-1.2,0.3-1.8
						c0.5-3.6,0.9-7.3,1.1-10.9c0.1-0.8,0.1-1.6,0.1-2.4c0.2-3.8,0.3-7.6,0.2-11.4c-0.7-29.3-9.7-56.8-25.3-81.2
						c-3.5-5.4-7.2-10.7-11.3-15.8c-16.3-20.4-37.4-38-62.1-51.9c-6.2-3.5-12.5-6.7-19.1-9.7c-19.7-9-41.3-15.7-64.1-19.9
						c-15.2-2.7-31-1.7-47.1-1.9c-4-0.1-8.1,2.7-12.2,2.7l0,0c-3.9,0-7.8-2.4-11.7-2.1c-1.3,0.1-2.6-1.1-3.8-1
						c-2.6,0.2-5.1-0.3-7.7,0c-1.5,0.2-3,0-4.6,0.2c-2.3,0.3-4.5,0.4-6.8,0.7c-1.6,0.2-3.2,0.4-4.9,0.7c-2.1,0.3-4.2,0.6-6.3,1
						c-1.7,0.3-3.3,0.6-4.9,0.9c-2,0.4-4,0.8-6,1.2c-1.7,0.4-3.3,0.7-5,1.1c-2,0.5-3.9,1-5.8,1.5c-1.6,0.4-3.3,0.9-4.9,1.3
						c-1.9,0.5-3.8,1.1-5.7,1.7c-1.6,0.5-3.2,1-4.8,1.5c-0.6,0.2-1.2,0.4-1.8,0.6l0,0c-88.2,29.3-149.6,99.2-147.7,179.5
						c2.4,104.1,110.4,186,241.2,182.9c36.2-0.8,70.3-8.1,100.8-20.4c34.1-13.8,63.4-33.8,85.7-58.2l0,0c0.3-0.3,0.6-0.7,0.9-1
						c1-1.1,2-2.3,3-3.4C2199.1,2429.7,2199.9,2428.9,2200.6,2428z"/>
					<g>
						
							<linearGradient id="SVGID_14_" gradientUnits="userSpaceOnUse" x1="-19743.4277" y1="-18287.4863" x2="-20710.3652" y2="-19392.0879" gradientTransform="matrix(-1 0 0 1 5456.3906 -5929.2563)">
							<stop  offset="0" style="stop-color:#FF9085"/>
							<stop  offset="1" style="stop-color:#FB6FBB"/>
						</linearGradient>
						<path class="st18" d="M1729,2330.7c-2.4-104.1,101.6-191,232.4-194c130.8-3.1,238.8,78.8,241.2,182.9
							c0.8,34.3-10,66.8-29.5,95c-23.3,33.6-58.9,61.2-102.1,78.7c-30.4,12.3-64.6,19.6-100.8,20.4
							C1839.5,2516.7,1731.5,2434.8,1729,2330.7z"/>
						<g class="st15">
							
								<linearGradient id="SVGID_15_" gradientUnits="userSpaceOnUse" x1="-21461.1641" y1="-13705.1748" x2="-21234.9961" y2="-13501.9512" gradientTransform="matrix(-0.9997 2.350000e-02 2.350000e-02 0.9997 5416.3994 -6609.7329)">
								<stop  offset="0" style="stop-color:#FF9085"/>
								<stop  offset="1" style="stop-color:#FB6FBB"/>
							</linearGradient>
							<path class="st19" d="M1905,2186c29.9,55,2.2,107.7,41.7,142.8c40.1,35.6,90.3,0.5,145.9,28.9c21.5,11,45.6,32.5,64.2,77.4
								c29.7-32.4,46.9-72.5,45.9-115.5c-2.4-104.1-110.4-186-241.2-182.9c-30,0.7-58.5,5.8-84.7,14.5
								C1890,2162.7,1898.9,2174.7,1905,2186z"/>
						</g>
					</g>
				</g>
			</g>
			<g>
				<path class="st7" d="M1968.8,2306.5c33.7,0,61-27.3,61-61s-27.3-61-61-61s-61,27.3-61,61
					C1907.9,2279.2,1935.2,2306.5,1968.8,2306.5z"/>
				<path class="st7" d="M2093.2,2419.7c-22.9-46.1-70.5-77.8-125.6-77.8c-55,0-102.6,31.7-125.6,77.8c-1.5,3-1.3,7.7,0.4,10.5
					c1.8,2.8,4.9,5.7,8.2,5.7h233.8c3.3,0,6.4-2.9,8.2-5.7C2094.5,2427.4,2094.7,2422.7,2093.2,2419.7z"/>
			</g>
		</g>
		
			<linearGradient id="SVGID_16_" gradientUnits="userSpaceOnUse" x1="2601.3" y1="1571.2639" x2="3258.3" y2="1571.2639" gradientTransform="matrix(1 0 0 -1 0 3710)">
			<stop  offset="3.597120e-03" style="stop-color:#E38DDD"/>
			<stop  offset="1" style="stop-color:#9571F6"/>
		</linearGradient>
		<path class="st20" d="M2630.5,1945.8l-29.2,481.6c0,0,542.5,53,657-293.4c-125.7-109.1-144.5-127-144.5-127l-351.3-126.6
			c0,0-20.9-46.5-81.4-29.5C2620.5,1868,2630.5,1945.8,2630.5,1945.8z"/>
		<g>
			<g>
				<g>
					
						<linearGradient id="SVGID_17_" gradientUnits="userSpaceOnUse" x1="2949.7998" y1="1575.926" x2="3307.5308" y2="1575.926" gradientTransform="matrix(1 0 0 -1 0 3710)">
						<stop  offset="0" style="stop-color:#444B8C"/>
						<stop  offset="0.9964" style="stop-color:#26264F"/>
					</linearGradient>
					<path class="st21" d="M3277.7,2210.8c0.7-0.9,1.4-1.8,2.2-2.7c0.5-0.7,1.1-1.3,1.6-2c0.7-0.9,1.4-1.8,2.1-2.8
						c0.5-0.7,1-1.4,1.5-2c0.1-0.2,0.3-0.4,0.4-0.6c0.2-0.3,0.4-0.6,0.6-0.9c1.4-2.1,2.8-4.2,4.1-6.4c0.2-0.4,0.5-0.8,0.7-1.2
						c1.4-2.4,2.7-4.8,4-7.3c0.3-0.6,0.6-1.1,0.8-1.7c1.2-2.5,2.4-5.1,3.5-7.7c0-0.1,0.1-0.2,0.1-0.2c1-2.5,1.9-5.1,2.8-7.7
						c0.2-0.6,0.4-1.2,0.6-1.7c0.8-2.6,1.5-5.3,2.2-7.9c0.1-0.5,0.2-0.9,0.3-1.4c0.5-2.5,1-4.9,1.4-7.4c0.1-0.5,0.2-0.9,0.2-1.4
						c0.4-2.7,0.7-5.5,0.8-8.3c0-0.6,0.1-1.2,0.1-1.8c0.1-2.9,0.2-5.7,0.2-8.6c-0.5-22.1-7.3-42.9-19.1-61.3
						c-2.6-4.1-5.5-8.1-8.5-11.9c-12.3-15.4-28.3-28.7-46.9-39.2c-4.7-2.6-9.5-5.1-14.5-7.3c-14.9-6.8-31.2-11.9-48.4-15
						c-11.5-2.1-23.4-1.1-35.6-1.3c-3.1-0.1-6.1,2.2-9.2,2.2l0,0c-3,0-5.9-2-8.8-1.8c-1,0.1-1.9-0.9-2.9-0.9
						c-1.9,0.1-3.9-0.2-5.8-0.1c-1.2,0.1-2.3,0-3.5,0.1c-1.7,0.2-3.4,0.3-5.1,0.5c-1.2,0.2-2.5,0.3-3.7,0.5
						c-1.6,0.3-3.2,0.5-4.8,0.8c-1.3,0.2-2.5,0.5-3.7,0.7c-1.5,0.3-3.1,0.6-4.6,0.9c-1.3,0.3-2.5,0.6-3.7,0.9
						c-1.5,0.4-2.9,0.7-4.4,1.1c-1.2,0.3-2.5,0.7-3.7,1c-1.4,0.4-2.9,0.8-4.3,1.3c-1.2,0.4-2.4,0.7-3.6,1.1
						c-0.4,0.1-0.9,0.3-1.3,0.4l0,0c-66.6,22.1-113,75-111.6,135.6c1.8,78.7,83.4,140.6,182.3,138.2c27.4-0.6,53.2-6.1,76.1-15.4
						c25.8-10.4,47.9-25.6,64.8-44l0,0c0.2-0.3,0.5-0.5,0.7-0.8c0.8-0.8,1.5-1.7,2.3-2.6C3276.6,2212.1,3277.1,2211.4,3277.7,2210.8
						z"/>
					<g>
						
							<linearGradient id="SVGID_18_" gradientUnits="userSpaceOnUse" x1="-15200.9902" y1="-11994.4189" x2="-15931.6699" y2="-12829.127" gradientTransform="matrix(-1 0 0 1 5456.3906 -5929.2563)">
							<stop  offset="0" style="stop-color:#AA80F9"/>
							<stop  offset="0.9964" style="stop-color:#6165D7"/>
						</linearGradient>
						<path class="st22" d="M2921.3,2137.3c-1.8-78.7,76.8-144.3,175.6-146.6c98.8-2.3,180.4,59.6,182.3,138.2
							c0.6,25.9-7.5,50.5-22.3,71.8c-17.6,25.4-44.5,46.3-77.2,59.4c-23,9.3-48.8,14.8-76.1,15.4
							C3004.8,2277.8,2923.2,2215.9,2921.3,2137.3z"/>
						<g class="st15">
							
								<linearGradient id="SVGID_19_" gradientUnits="userSpaceOnUse" x1="-16461.9863" y1="-8359.0518" x2="-16291.0771" y2="-8205.4834" gradientTransform="matrix(-0.9997 2.350000e-02 2.350000e-02 0.9997 5416.3994 -6609.7329)">
								<stop  offset="0" style="stop-color:#AA80F9"/>
								<stop  offset="0.9964" style="stop-color:#6165D7"/>
							</linearGradient>
							<path class="st23" d="M3054.3,2027.9c22.6,41.6,1.7,81.4,31.5,107.9c30.3,26.9,68.2,0.3,110.2,21.9
								c16.2,8.3,34.4,24.5,48.5,58.5c22.4-24.5,35.4-54.8,34.7-87.3c-1.8-78.7-83.5-140.6-182.3-138.2c-22.6,0.5-44.2,4.4-64,11
								C3043,2010.3,3049.7,2019.4,3054.3,2027.9z"/>
						</g>
					</g>
				</g>
			</g>
			<g>
				<path class="st7" d="M3102.6,2119c25.5,0,46.1-20.6,46.1-46.1s-20.6-46.1-46.1-46.1s-46.1,20.6-46.1,46.1
					S3077.1,2119,3102.6,2119z"/>
				<path class="st7" d="M3196.6,2204.5c-17.3-34.9-53.3-58.8-94.9-58.8c-41.6,0-77.5,24-94.9,58.8c-1.1,2.3-1,6.9,0.3,9
					s3.7,5.4,6.2,5.4H3190c2.5,0,4.9-3.2,6.2-5.4C3197.6,2211.4,3197.7,2206.8,3196.6,2204.5z"/>
			</g>
		</g>
		<g>
			<g>
				<g>
					
						<linearGradient id="SVGID_20_" gradientUnits="userSpaceOnUse" x1="642.7607" y1="1108.4137" x2="1109.9392" y2="1108.4137" gradientTransform="matrix(1 0 0 -1 0 3710)">
						<stop  offset="0" style="stop-color:#444B8C"/>
						<stop  offset="0.9964" style="stop-color:#26264F"/>
					</linearGradient>
					<path class="st24" d="M1070.8,2702c1-1.1,1.9-2.3,2.8-3.5c0.7-0.9,1.4-1.8,2.1-2.7c0.9-1.2,1.8-2.4,2.7-3.6
						c0.6-0.9,1.3-1.8,1.9-2.7c0.2-0.3,0.4-0.5,0.6-0.8c0.3-0.4,0.5-0.8,0.7-1.2c1.9-2.8,3.7-5.5,5.4-8.4c0.3-0.5,0.6-1,1-1.6
						c1.8-3.1,3.5-6.3,5.2-9.5c0.4-0.7,0.7-1.5,1.1-2.2c1.6-3.3,3.1-6.6,4.5-10c0-0.1,0.1-0.2,0.1-0.3c1.3-3.3,2.5-6.7,3.6-10.1
						c0.2-0.8,0.5-1.5,0.7-2.3c1.1-3.4,2-6.9,2.8-10.4c0.1-0.6,0.3-1.2,0.4-1.8c0.7-3.2,1.3-6.4,1.8-9.7c0.1-0.6,0.2-1.2,0.3-1.8
						c0.5-3.6,0.9-7.2,1.1-10.8c0.1-0.8,0.1-1.6,0.1-2.4c0.2-3.7,0.3-7.5,0.2-11.3c-0.7-28.9-9.6-56-24.9-80.1
						c-3.4-5.3-7.1-10.5-11.2-15.6c-16.1-20.1-36.9-37.5-61.2-51.2c-6.1-3.4-12.4-6.6-18.9-9.6c-19.5-8.9-40.7-15.5-63.2-19.6
						c-15-2.7-30.5,1.2-46.5,0.9c-4-0.1-8,5.5-12,5.5l0,0c-3.9,0-7.7-5.1-11.5-4.9c-1.3,0.1-2.5-2.5-3.8-2.4c-2.5,0.2-5.1-1-7.6-0.7
						c-1.5,0.2-3-0.3-4.5-0.2c-2.2,0.3-4.5,0.2-6.7,0.5c-1.6,0.2-3.2,0.3-4.8,0.6c-2.1,0.3-4.2,0.6-6.2,1c-1.6,0.3-3.3,0.6-4.9,0.9
						c-2,0.4-4,0.8-6,1.2c-1.6,0.4-3.3,0.7-4.9,1.1c-1.9,0.5-3.8,0.9-5.7,1.4c-1.6,0.4-3.2,0.9-4.8,1.3c-1.9,0.5-3.7,1.1-5.6,1.6
						c-1.6,0.5-3.2,1-4.7,1.5c-0.6,0.2-1.2,0.4-1.8,0.5l0,0c-87,28.9-147.5,97.9-145.7,177.1c2.4,102.7,108.9,183.5,237.9,180.4
						c35.7-0.8,69.4-8,99.4-20.1c33.6-13.6,62.6-33.4,84.6-57.4l0,0c0.3-0.3,0.6-0.7,0.9-1c1-1.1,2-2.2,2.9-3.3
						C1069.3,2703.7,1070.1,2702.9,1070.8,2702z"/>
					<g>
						
							<linearGradient id="SVGID_21_" gradientUnits="userSpaceOnUse" x1="-18300.7207" y1="-17651.0605" x2="-19254.5039" y2="-18740.6348" gradientTransform="matrix(-1 0 0 1 5456.3906 -5929.2563)">
							<stop  offset="0" style="stop-color:#AA80F9"/>
							<stop  offset="0.9964" style="stop-color:#6165D7"/>
						</linearGradient>
						<path class="st25" d="M605.6,2606c-2.4-102.7,100.2-188.4,229.2-191.4s235.5,77.8,237.9,180.4c0.8,33.9-9.8,65.9-29.1,93.7
							c-22.9,33.2-58.1,60.4-100.8,77.6c-30,12.1-63.7,19.3-99.4,20.1C714.6,2789.5,608,2708.7,605.6,2606z"/>
						<g class="st15">
							
								<linearGradient id="SVGID_22_" gradientUnits="userSpaceOnUse" x1="-19986.4551" y1="-13149.6611" x2="-19763.3652" y2="-12949.2021" gradientTransform="matrix(-0.9997 2.350000e-02 2.350000e-02 0.9997 5416.3994 -6609.7329)">
								<stop  offset="0" style="stop-color:#AA80F9"/>
								<stop  offset="0.9964" style="stop-color:#6165D7"/>
							</linearGradient>
							<path class="st26" d="M779.2,2463.3c29.5,54.2,2.2,106.2,41.1,140.8c39.5,35.1,89.1,0.4,143.9,28.5
								c21.2,10.9,45,32,63.3,76.3c29.3-32,46.2-71.5,45.2-113.9c-2.4-102.7-108.9-183.5-237.9-180.4c-29.6,0.7-57.7,5.7-83.6,14.3
								C764.4,2440.3,773.2,2452.1,779.2,2463.3z"/>
						</g>
					</g>
				</g>
			</g>
			<g>
				<path class="st7" d="M842.2,2582.2c33.2,0,60.2-26.9,60.2-60.2c0-33.2-26.9-60.2-60.2-60.2c-33.2,0-60.2,26.9-60.2,60.2
					S809,2582.2,842.2,2582.2z"/>
				<path class="st7" d="M964.9,2693.9c-22.6-45.5-69.6-76.8-123.8-76.8c-54.3,0-101.2,31.3-123.8,76.8c-1.5,2.9-1.3,5.4,0.4,8.2
					s4.8,3.4,8.1,3.4h230.7c3.3,0,6.3-0.6,8.1-3.4C966.2,2699.2,966.3,2696.8,964.9,2693.9z"/>
			</g>
		</g>
		<g>
			<g>
				<g>
					
						<linearGradient id="SVGID_23_" gradientUnits="userSpaceOnUse" x1="2488.6404" y1="1123.5739" x2="3167.8381" y2="1123.5739" gradientTransform="matrix(1 0 0 -1 0 3710)">
						<stop  offset="0" style="stop-color:#311944"/>
						<stop  offset="1" style="stop-color:#A03976"/>
					</linearGradient>
					<path class="st27" d="M3110.8,2732.8c1.4-1.7,2.7-3.4,4.1-5.1c1-1.3,2-2.6,3-3.9c1.3-1.7,2.6-3.5,3.9-5.3
						c0.9-1.3,1.9-2.6,2.8-3.9c0.3-0.4,0.6-0.8,0.8-1.2c0.4-0.6,0.7-1.1,1.1-1.7c2.7-4,5.3-8.1,7.8-12.2c0.5-0.8,0.9-1.5,1.4-2.3
						c2.7-4.5,5.2-9.2,7.5-13.9c0.5-1.1,1.1-2.1,1.6-3.2c2.3-4.8,4.6-9.7,6.6-14.6c0.1-0.1,0.1-0.3,0.2-0.4
						c1.9-4.8,3.7-9.7,5.3-14.7c0.4-1.1,0.7-2.2,1.1-3.3c1.5-5,2.9-10,4.1-15.1c0.2-0.9,0.4-1.8,0.6-2.7c1-4.7,1.9-9.4,2.6-14.1
						c0.1-0.9,0.3-1.7,0.4-2.6c0.7-5.2,1.3-10.4,1.6-15.7c0.1-1.2,0.1-2.3,0.2-3.5c0.3-5.4,0.4-10.9,0.3-16.4
						c-1-42-13.9-81.4-36.2-116.4c-5-7.8-10.4-15.3-16.2-22.6c-23.4-29.2-53.7-54.4-89-74.4c-8.8-5-18-9.6-27.4-13.9
						c-28.3-12.9-59.2-22.6-91.9-28.5c-21.8-3.9-44.4-1.8-67.6-2.2c-5.8-0.1-11.6,4.5-17.5,4.5l0,0c-5.6,0-11.2-4-16.8-3.7
						c-1.8,0.1-3.7-1.9-5.5-1.8c-3.7,0.3-7.4-0.5-11-0.2c-2.2,0.2-4.4,0-6.6,0.2c-3.3,0.4-6.5,0.5-9.7,0.9c-2.3,0.3-4.7,0.6-7,0.9
						c-3,0.5-6.1,0.9-9.1,1.4c-2.4,0.4-4.7,0.9-7.1,1.3c-2.9,0.6-5.8,1.1-8.7,1.8c-2.4,0.5-4.8,1.1-7.1,1.6
						c-2.8,0.7-5.6,1.4-8.4,2.1c-2.4,0.6-4.7,1.2-7,1.9c-2.7,0.8-5.4,1.6-8.1,2.4c-2.3,0.7-4.6,1.4-6.9,2.1
						c-0.8,0.3-1.7,0.5-2.6,0.8c0,0,0,0,0.1,0.1c-126.4,42-214.5,142.3-211.8,257.4c3.5,149.3,158.3,266.7,345.8,262.3
						c51.9-1.2,100.9-11.6,144.5-29.2c48.9-19.7,90.9-48.5,122.9-83.4c0,0,0,0,0,0.1c0.4-0.5,0.9-1,1.3-1.5c1.5-1.6,2.9-3.2,4.3-4.9
						C3108.7,2735.4,3109.8,2734.1,3110.8,2732.8z"/>
					<g>
						
							<linearGradient id="SVGID_24_" gradientUnits="userSpaceOnUse" x1="-30629.7188" y1="-29539.9844" x2="-32016.0703" y2="-31123.7129" gradientTransform="matrix(-1 0 0 1 5456.3906 -5929.2563)">
							<stop  offset="0" style="stop-color:#FFC444"/>
							<stop  offset="0.9964" style="stop-color:#F36F56"/>
						</linearGradient>
						<path class="st28" d="M2434.7,2593.3c-3.5-149.3,145.7-273.8,333.1-278.2s342.3,113,345.8,262.3
							c1.2,49.2-14.3,95.8-42.2,136.2c-33.3,48.2-84.5,87.8-146.5,112.8c-43.6,17.6-92.6,28-144.5,29.2
							C2593,2860,2438.2,2742.6,2434.7,2593.3z"/>
						<g class="st15">
							
								<linearGradient id="SVGID_25_" gradientUnits="userSpaceOnUse" x1="-33159.4688" y1="-23210.2422" x2="-32835.1992" y2="-22918.8691" gradientTransform="matrix(-0.9997 2.350000e-02 2.350000e-02 0.9997 5416.3994 -6609.7329)">
								<stop  offset="0" style="stop-color:#FFC444"/>
								<stop  offset="0.9964" style="stop-color:#F36F56"/>
							</linearGradient>
							<path class="st29" d="M2687,2385.9c42.8,78.8,3.2,154.4,59.8,204.7c57.5,51.1,129.4,0.7,209.1,41.5
								c30.8,15.8,65.4,46.5,92,110.9c42.6-46.5,67.2-103.9,65.7-165.6c-3.5-149.3-158.3-266.7-345.8-262.3
								c-43,1-83.9,8.3-121.4,20.8C2665.5,2352.5,2678.2,2369.6,2687,2385.9z"/>
						</g>
					</g>
				</g>
			</g>
			<g>
				<path class="st7" d="M2778.5,2558.7c48.3,0,87.4-39.1,87.4-87.4c0-48.3-39.1-87.4-87.4-87.4c-48.3,0-87.4,39.1-87.4,87.4
					C2691.1,2519.5,2730.3,2558.7,2778.5,2558.7z"/>
				<path class="st7" d="M2956.9,2721c-32.9-66.2-101.1-111.6-180-111.6s-147.1,45.5-180,111.6c-2.1,4.3-1.9,10.8,0.6,14.9
					c2.5,4.1,7,8,11.7,8h335.3c4.8,0,9.2-4,11.7-8C2958.8,2731.8,2959,2725.3,2956.9,2721z"/>
			</g>
		</g>
		<g>
			<g>
				
					<linearGradient id="SVGID_26_" gradientUnits="userSpaceOnUse" x1="883.2809" y1="3213.5176" x2="1380.6218" y2="2413.9246" gradientTransform="matrix(1 0 0 -1 0 3710)">
					<stop  offset="0" style="stop-color:#311944"/>
					<stop  offset="1" style="stop-color:#893976"/>
				</linearGradient>
				<path class="st30" d="M1797.5,1254.5c0.3,35.4-13.9,67.2-37.1,90c-23.1,22.8-55.1,36.5-90.6,35.9l-309.4-5.2l-5.5-0.1
					L1237,1518.7l-17.8,21.7c-10.5,8.2-25.6,6.6-34.3-3.5l-143.8-167.3l-305.4-5.2c-76.9-1.3-140.1-62.4-140.6-136.4l-4-511.7
					c-0.3-44.2,21.7-82.3,55.9-105.2c7.1-4.7,14.7-8.8,22.8-12.2c18.2-7.5,38.5-11.3,60-10.3l934.4,43.1
					c71.2,3.3,129.1,63.3,129.7,134l3,384.3L1797.5,1254.5z"/>
				
					<linearGradient id="SVGID_27_" gradientUnits="userSpaceOnUse" x1="901.6081" y1="3228.4006" x2="1398.9369" y2="2428.8269" gradientTransform="matrix(1 0 0 -1 0 3710)">
					<stop  offset="0" style="stop-color:#FF9085"/>
					<stop  offset="1" style="stop-color:#FB6FBB"/>
				</linearGradient>
				<path class="st31" d="M1816,1239.5c0.3,44-21.7,82.5-55.6,105c-20.5,13.6-45.3,21.3-72.1,20.8l-314.9-5.3l-13,15.1l-122.6,142.8
					c-0.2,0.3-0.5,0.6-0.9,0.9c-10.1,10.7-27.4,10.4-37.1-0.9l-140.3-163.2l-305.4-5.2c-76.9-1.3-140.1-62.4-140.7-136.4l-3.9-511.7
					c-0.3-35.6,14-67.3,37.4-90.2c6.7-6.6,14.2-12.5,22.3-17.4c22.4-13.9,49.6-21.4,78.9-20l934.4,43.1
					c71.3,3.3,129.1,63.3,129.7,134l3.2,415.9L1816,1239.5z"/>
			</g>
			<g>
				<path class="st7" d="M1039.8,990.1l-239.2-6.3c-41.4-1.1-73.6,29.9-71.7,69.1l2.8,57.2l386.1,6.8l-2.7-55.7
					C1113.2,1023,1079.6,991.1,1039.8,990.1z"/>
				<path class="st7" d="M919.6,953.9c50.8,1.5,89.8-36.6,87.5-84.9c-2.3-48.3-45.1-89.2-95.9-91.3c-51.2-2.1-91,35.9-88.6,84.9
					C824.8,911.6,868.5,952.4,919.6,953.9z"/>
				<path class="st7" d="M1429.9,948.6c-3.3-70-43-130.3-121.5-133.4c-68-2.7-114.5,45.5-111.6,104.9c2.8,59,49.1,96.1,101.4,97.4
					c27.9,0.7,47.3-6.7,60.3-20.2l1.4,0.5c-4.5,22.5-16.8,41.7-36,54.7c-15.2,10.2-35.9,15.8-56.7,17.1c-1.1,0.1-2.1,0.1-3.1,0.2
					c-14.3,0.6-22.4,0.5-31.5-0.6l2.6,55.6c8.2,0.6,20.6,1.3,32.9,0.6c20.9-0.4,40.2-3.3,57.6-8.5c22.4-6.7,41.8-17.3,57.5-31.6
					C1415,1055.8,1432.8,1010.7,1429.9,948.6z M1353.8,949c-6.1,10.5-19.3,19.3-38.7,18.8c-29.4-0.8-44.7-23.6-45.9-49.6
					c-2-31.7,15-52.5,39.7-51.6c32.6,1.1,46.3,33.1,47.8,65C1357.1,940.4,1356,944.9,1353.8,949z"/>
				<path class="st7" d="M1678.3,1030.1c-1.6-34.4-16.2-59.2-39-74.8c-21.5-15.6-50.4-22.9-78.6-23.8c-7.3-0.2-12.8-0.4-19.2,0.3
					l4.2-45.4l114.3,4l-2.7-56.6l-163-6.4L1482,983.1c12.4-1.5,23.8-2.1,40.4-1.6c59.4,1.7,84.4,21,85.8,51.4
					c1.5,31.4-28.3,44.3-57.1,43.7c-27-0.6-54.5-9.4-68.2-16.1l-10,52.1c17,9,47.8,17.8,84,18.4
					C1636.3,1132.4,1680.9,1084.8,1678.3,1030.1z"/>
			</g>
			
				<linearGradient id="SVGID_28_" gradientUnits="userSpaceOnUse" x1="590.9968" y1="2640.1272" x2="1816.0031" y2="2640.1272" gradientTransform="matrix(1 0 0 -1 0 3710)">
				<stop  offset="0" style="stop-color:#FF9085"/>
				<stop  offset="1" style="stop-color:#FB6FBB"/>
			</linearGradient>
			<path class="st32" d="M1816,1239.5c0.3,44-21.7,82.5-55.6,105c-23.1,22.8-55.1,36.5-90.6,35.9l-309.4-5.2L1237.8,1518
				c-0.2,0.3-0.5,0.6-0.9,0.9l-17.8,21.7c-10.5,8.2-25.6,6.6-34.3-3.5L1041,1369.8l-305.4-5.2c-76.9-1.3-140.1-62.4-140.6-136.4
				l-4-511.7c-0.3-44.2,21.7-82.3,55.9-105.2c6.7-6.6,14.2-12.5,22.3-17.4c0.1,1.8,0.2,3.5,0.4,5.3c2.8,27.5,10.9,53.4,27.1,75.1
				c48.9,65.4,144.1,61.2,215.6,78.2c59.3,14.1,119.4,41.4,169.2,76.7c51.1,36.3,93.4,84.4,121.9,140.1
				c21.2,41.2,41.2,74.5,63.6,100.4c17.4,20.2,36.4,35.8,58.6,47.2c35.8,18.4,80,25.5,139.9,22.6c25.5-1.3,51.9-4.9,78.5-8.8
				c24.7-3.6,49.6-7.6,74.4-10.3c49.5-5.3,98.6-5.5,144.8,11.8c12.4,4.7,23.5,10.7,33.4,18c6.8,5,13.1,10.6,18.7,16.7L1816,1239.5z"
				/>
		</g>
		<g>
			<g>
				<g>
					
						<linearGradient id="SVGID_29_" gradientUnits="userSpaceOnUse" x1="697.7021" y1="2731.7861" x2="1354.4707" y2="2285.6797" gradientTransform="matrix(-1 0 0 -1 2860.2854 3710)">
						<stop  offset="0" style="stop-color:#311944"/>
						<stop  offset="1" style="stop-color:#6B3976"/>
					</linearGradient>
					<path class="st33" d="M2126.5,1215.5c12.4-8,1.1-31.3,0.4-81.4c-0.8-61.3,15.5-72.8,2.4-96.8c-16-29.4-56.3-41.6-83-42.2
						c-5.9-0.1-7.3-3.3-56.6,9.4c-88.8,23-111.1-1.7-150.8,23c-38.4,23.8-21.6,49.9-58.9,77.8c-60.5,45.2-124.1-3.7-167.3,34.2
						c-40.9,35.8-41.8,127,1.2,176.8c48.8,56.4,136.7,39.5,195.6,28.3c12.4-2.4,75-15.5,140.2-63.6c36.1-26.6,60.8-55.1,76.6-76
						c3.7-4.2,9.5-9.2,17.1-10c9.1-1,16.5,4.6,20,7.1C2082,1214.8,2114.4,1223.4,2126.5,1215.5z"/>
					<path d="M2076.9,1181.9c15.9-14.5,72.6,13.4,110.1,50.4c44.1,43.5,40.7,78.8,79.3,132.8c19.1,26.9,52,63,110.1,94.7
						c-4.1,10.3-8.2,20.6-12.4,30.9c-28.1,1.7-83.3,0.7-134.9-32.9c-35.8-23.4-54.2-54.3-89.6-115.3
						C2104.2,1281.3,2057,1200,2076.9,1181.9z"/>
					
						<linearGradient id="SVGID_30_" gradientUnits="userSpaceOnUse" x1="407.2901" y1="1700.7637" x2="495.751" y2="1700.7637" gradientTransform="matrix(-1 0 0 -1 2860.2854 3710)">
						<stop  offset="0" style="stop-color:#311944"/>
						<stop  offset="1" style="stop-color:#6B3976"/>
					</linearGradient>
					<path class="st34" d="M2434.9,2009.2l-44.3-26.6h-20c0,0-6.8,25.3-6,26.6c8.9,14.6,50.3,25.7,76.2,26.6
						c4.3,0.2,10.3,0.2,11.8-2.9C2455.3,2027.5,2443.6,2016.5,2434.9,2009.2z"/>
					
						<linearGradient id="SVGID_31_" gradientUnits="userSpaceOnUse" x1="448.9023" y1="1665.9783" x2="580.8636" y2="2061.8635" gradientTransform="matrix(-1 0 0 -1 2860.2854 3710)">
						<stop  offset="0" style="stop-color:#D8DEE8"/>
						<stop  offset="1" style="stop-color:#FFFFFF"/>
					</linearGradient>
					<path class="st35" d="M2389.9,1953.5c-2.8,16.5,0.8,25,4.6,29.9c2.7,3.4,5.2,4.3,21.4,18.4c5.4,4.6,8.1,7.1,7.5,8.4
						c-0.7,1.5-5.4,0.7-15.6-1.8c-22.3-5.4-33.4-8.1-36.2-13.5c-2.5-4.8-0.3-7-0.4-20.2c-0.1-8.7-1.9-15.7-3.3-20.1
						C2375.2,1954.2,2382.5,1953.9,2389.9,1953.5z"/>
					
						<linearGradient id="SVGID_32_" gradientUnits="userSpaceOnUse" x1="421.3179" y1="1863.1968" x2="475.4116" y2="1863.1968" gradientTransform="matrix(-1 0 0 -1 2860.2854 3710)">
						<stop  offset="0" style="stop-color:#311944"/>
						<stop  offset="1" style="stop-color:#6B3976"/>
					</linearGradient>
					<path class="st36" d="M2421.9,1823.1c0,0,20,23.9,16.7,50c-3.3,26.2-38.3-12.1-43.2-25s-10.6-31.3-10.6-31.3
						S2409.4,1801.5,2421.9,1823.1z"/>
					
						<linearGradient id="SVGID_33_" gradientUnits="userSpaceOnUse" x1="390.0349" y1="1714.6727" x2="478.3647" y2="1979.663" gradientTransform="matrix(-1 0 0 -1 2860.2854 3710)">
						<stop  offset="0" style="stop-color:#D8DEE8"/>
						<stop  offset="1" style="stop-color:#FFFFFF"/>
					</linearGradient>
					<path class="st37" d="M2414.2,1785.8c0,0-5.4,27.8,4.9,42.5c5.2,7.3,12.1,13.5,10.1,19.5c-1.4,4-6.6,6.8-11,6.4
						c-8.4-0.9-13.1-13.8-16.4-22.9c-4.9-13.5-7.6-42.3-7.6-42.3L2414.2,1785.8z"/>
					
						<linearGradient id="SVGID_34_" gradientUnits="userSpaceOnUse" x1="498.8664" y1="2161.145" x2="564.749" y2="1780.2609" gradientTransform="matrix(-1 0 0 -1 2860.2854 3710)">
						<stop  offset="0" style="stop-color:#AB316D"/>
						<stop  offset="1" style="stop-color:#792D3D"/>
					</linearGradient>
					<path class="st38" d="M2398.3,1809.2c6.1-2.2,12.3-4.5,18.4-6.7c9.6-21.9,21.3-57.9,17.4-101.6
						c-10.1-112.5-114.1-172.1-125.7-178.5c-28.3,14.2-57.1,34.3-58.1,59.6c-1.3,31.8,41.9,48.5,82.6,95
						C2357.4,1704.8,2383.5,1746.3,2398.3,1809.2z"/>
					
						<linearGradient id="SVGID_35_" gradientUnits="userSpaceOnUse" x1="591.8414" y1="1709.7379" x2="685.5189" y2="2006.2112" gradientTransform="matrix(-1 0 0 -1 2860.2854 3710)">
						<stop  offset="0" style="stop-color:#AB316D"/>
						<stop  offset="1" style="stop-color:#792D3D"/>
					</linearGradient>
					<path class="st39" d="M2391.7,1966.4c20.3-79.4,15.1-144.1,9.3-181.4c-8.9-56.4-26.9-171.1-103.5-213.9
						c-16.7-9.3-40.6-17.7-69.8-43.7c-24.3-21.7-39.8-44.5-49.1-60.6c-102.4-30-196.9-17.9-238.6,37.1c-4.8,6.3-16.9,20.1-19.2,40.4
						c-5.3,45.8,39.7,100.9,90.2,112.5c64.2,14.6,101.4-51.3,158.3-29.3c15.9,6.1,29.4,21.3,56.4,51.7
						c34.3,38.7,53.6,74.3,60.9,88.6c21.7,42.5,38.2,73.9,40.6,114.6c0.6,9.5,0.9,28.6,12,49.3c8.5,15.8,20.1,26.4,28.7,32.9
						C2375.8,1965.2,2383.7,1965.8,2391.7,1966.4z"/>
					
						<linearGradient id="SVGID_36_" gradientUnits="userSpaceOnUse" x1="591.8878" y1="1709.7229" x2="685.5651" y2="2006.1962" gradientTransform="matrix(-1 0 0 -1 2860.2854 3710)">
						<stop  offset="0" style="stop-color:#AB316D"/>
						<stop  offset="1" style="stop-color:#792D3D"/>
					</linearGradient>
					<path class="st40" d="M1920.8,1544.4c2.3-20.3,14.4-34.1,19.2-40.4c41.7-54.9,136.2-67.1,238.6-37.1
						c9.3,16.1,24.8,38.9,49.1,60.6c29.1,26,53,34.3,69.8,43.7c46.8,26.1,71.7,79.1,86,129.2c-21.3-33-39.5-41.8-53.6-41.9
						c-20.2-0.2-29.2,17-53.3,14.7c-25.7-2.5-31.6-23.8-52.5-26.2c-6.2-0.7-13.9,0.2-23.2,5.1c-12.3-12.9-21.5-20.5-31.7-24.4
						c-56.9-21.9-94.1,44-158.3,29.3C1960.5,1645.3,1915.5,1590.2,1920.8,1544.4z"/>
					
						<linearGradient id="SVGID_37_" gradientUnits="userSpaceOnUse" x1="723.7069" y1="2199.5825" x2="789.4377" y2="1819.5759" gradientTransform="matrix(-1 0 0 -1 2860.2854 3710)">
						<stop  offset="0" style="stop-color:#AB316D"/>
						<stop  offset="1" style="stop-color:#792D3D"/>
					</linearGradient>
					<path class="st41" d="M2338.6,1606.6c-11.6-0.6-29.4-1-51,1.2c-102.2,10.1-130.4,60.6-214.8,73c-20,2.9-108.9,15.9-147.5-35.5
						c-27.7-36.9-23.5-100.5,6.8-125.6c12.8-10.6,25.5-10.3,107.5-9.6c30.9,0.3,61.8,0.4,92.6,0.8c130.7,1.7,155.7-7.4,179.5,14.2
						C2322.9,1535.2,2339.1,1556.9,2338.6,1606.6z"/>
					<g>
						<g>
							<path d="M2062.6,1187.2c0,0-152.5-44.5-168.4,67.2c-15.2,107,62.5,156.2,27.2,264.6c-4.1,12.6,290.4-45,290.4-45
								c-39.3-49-48.4-89.5-49.4-117.6c-1-30.8,7.9-44.9,0-81.3c0,0-8.8-40.7-40.4-75.6C2117.5,1194.4,2112.1,1189.2,2062.6,1187.2z
								"/>
						</g>
						<path class="st9" d="M1965,1496l-0.8-3.4c1.4-0.4,144.3-38.4,228.8-43.1l0.4,3.5L1965,1496z M2153.6,1456.9
							c-41.4,5.5-88.1,15.2-124.7,23.5L2153.6,1456.9z"/>
					</g>
					<g>
						<path class="st7" d="M2029.5,1120.3c1.4,6.5,8.5,41.6-5.8,50.6c-3.1,2-9.1,3.1-21,5.3c-7.8,1.5-14.4,2.4-19,2.9
							c0.7,5.9,2.6,15.4,9.4,24.1c19,24.4,57.1,18.1,62.5,17.1c19.2-3.5,38-9.4,42.6-13c6.9-5.5,12.4-9.6,15.6-13.8
							c-7.4-3.6-22.4-13-32.4-16.1c-7.5-2.3-14.6-4-21-5.1c-1.1-6.8-2.1-13.5-3.2-20.3C2048,1141.3,2038.7,1130.8,2029.5,1120.3z"/>
						<path class="st7" d="M2028.8,1137.7c0,0,2.6,25.7,27.5,30.2c22.3,4.1,39.2-49.9,27.7-63.9c-3.8-4.7-13.2-9.1-21.4-8.9
							c-5.7,0.2-25.1,7.6-27.8,27c-3.9-4.1-8.7-5.2-11-3.5c-3,2.2-1.4,8.4-1,9.9C2024.1,1133.4,2027.3,1136.4,2028.8,1137.7z"/>
					</g>
				</g>
			</g>
			<g>
				
					<linearGradient id="SVGID_38_" gradientUnits="userSpaceOnUse" x1="2121.1787" y1="2204.4978" x2="2376.3398" y2="2204.4978" gradientTransform="matrix(-1 0 0 -1 4370.2788 3710)">
					<stop  offset="0" style="stop-color:#40447E"/>
					<stop  offset="0.9964" style="stop-color:#3C3B6B"/>
				</linearGradient>
				<path class="st42" d="M2242.9,1486.5l-233.5,11.4c-3.2,0.2-6.1,1.9-7.8,4.6l-6.5,10.4c-3.2,5.2,0.6,11.8,6.7,11.6l247.3-9.4
					L2242.9,1486.5z"/>
				
					<linearGradient id="SVGID_39_" gradientUnits="userSpaceOnUse" x1="1957.9166" y1="2365.5117" x2="2125.2261" y2="2199.5408" gradientTransform="matrix(-1 0 0 -1 4370.2788 3710)">
					<stop  offset="0" style="stop-color:#40447E"/>
					<stop  offset="0.9964" style="stop-color:#3C3B6B"/>
				</linearGradient>
				<path class="st43" d="M2485.7,1356.5l-241.2,4.7c-7.1,0.1-13.7,4-17.2,10.2l-83.5,147l254.7-10.1c7-0.3,13.4-4.1,17-10.1
					l77.4-129.3C2496.2,1363.3,2492.2,1356.4,2485.7,1356.5z"/>
				
					<linearGradient id="SVGID_40_" gradientUnits="userSpaceOnUse" x1="1957.9415" y1="2365.5366" x2="2125.251" y2="2199.5654" gradientTransform="matrix(-1 0 0 -1 4370.2788 3710)">
					<stop  offset="0" style="stop-color:#40447E"/>
					<stop  offset="0.9964" style="stop-color:#3C3B6B"/>
				</linearGradient>
				<path class="st44" d="M2227.3,1371.4c3.5-6.2,10.1-10.1,17.2-10.2l5.3-0.1c0.8,7.8,3.2,14.9,7.9,20.7c14.9,18,39.6,6.9,58,25.9
					c20.2,20.9,1.5,45.7,19.6,65.1c19,20.4,49.8,3.8,85.2,16.9l-5.1,8.5c-3.6,6-10,9.8-17,10.1l-254.7,10.1L2227.3,1371.4z"/>
			</g>
			<g>
				<path d="M2028.5,1478.7c3-8,6.1-16,9.1-24.1c-33.6-9.2-80-22.8-127.7-39.8c-7.5-2.7-16.3-6-19.2-13.8
					c-8.1-22,43.6-44.8,63.8-92.9c18.6-44.5,8.4-106.2-13.2-113.5c-45-15.2-204.4,183.3-147.5,267
					C1825.9,1508.8,1925.2,1516.3,2028.5,1478.7z"/>
			</g>
			<path class="st7" d="M2037.6,1454.6c21.1-11.2,46.3,0.3,48,1c4.6,2.2,11.4,6.1,18.2,13c0.8,1.1,9.9,13.7,6.6,17.8
				c-2.7,3.3-13,0.6-25.4-7.2c-5.2-0.7-13-1.4-22.3-0.5c-17.1,1.6-24.9,7-31.1,2.3c-4.5-3.4-6.1-10.6-4.5-16
				C2028.8,1459.4,2034,1456.5,2037.6,1454.6z"/>
		</g>
		<g>
			
				<linearGradient id="SVGID_41_" gradientUnits="userSpaceOnUse" x1="2397.4192" y1="2928.2095" x2="2313.4231" y2="1584.2651" gradientTransform="matrix(1 0 0 -1 0 3710)">
				<stop  offset="0" style="stop-color:#AA80F9"/>
				<stop  offset="0.9964" style="stop-color:#6165D7"/>
			</linearGradient>
			<circle class="st45" cx="2364.5" cy="1308.5" r="20.4"/>
			
				<linearGradient id="SVGID_42_" gradientUnits="userSpaceOnUse" x1="2390.0273" y1="2928.6716" x2="2306.0317" y2="1584.7284" gradientTransform="matrix(1 0 0 -1 0 3710)">
				<stop  offset="0" style="stop-color:#AA80F9"/>
				<stop  offset="0.9964" style="stop-color:#6165D7"/>
			</linearGradient>
			<path class="st46" d="M2364.5,1137.4c-42.6,0-81.6,15.6-111.6,41.4c-6.1,5.3-6.6,14.7-0.9,20.4l0.6,0.6
				c5.1,5.1,13.3,5.5,18.8,0.8c25-21.6,57.5-34.6,93.1-34.6s68.1,13.1,93.1,34.6c5.5,4.7,13.7,4.3,18.8-0.8l0.6-0.6
				c5.7-5.7,5.3-15.1-0.9-20.4C2446.2,1153.1,2407.2,1137.4,2364.5,1137.4z"/>
			
				<linearGradient id="SVGID_43_" gradientUnits="userSpaceOnUse" x1="2392.1057" y1="2928.542" x2="2308.1099" y2="1584.5953" gradientTransform="matrix(1 0 0 -1 0 3710)">
				<stop  offset="0" style="stop-color:#AA80F9"/>
				<stop  offset="0.9964" style="stop-color:#6165D7"/>
			</linearGradient>
			<path class="st47" d="M2364.5,1185c-29.5,0-56.5,10.3-77.7,27.5c-6.4,5.2-6.8,14.7-1,20.5l0.1,0.1c5.1,5.1,13.1,5.3,18.7,0.9
				c16.4-13.2,37.2-21.1,59.9-21.1s43.5,7.9,59.9,21.1c5.6,4.5,13.6,4.2,18.7-0.9l0.1-0.1c5.8-5.8,5.4-15.4-1-20.5
				C2421,1195.3,2394,1185,2364.5,1185z"/>
			
				<linearGradient id="SVGID_44_" gradientUnits="userSpaceOnUse" x1="2394.2664" y1="2928.4048" x2="2310.2708" y2="1584.4615" gradientTransform="matrix(1 0 0 -1 0 3710)">
				<stop  offset="0" style="stop-color:#AA80F9"/>
				<stop  offset="0.9964" style="stop-color:#6165D7"/>
			</linearGradient>
			<path class="st48" d="M2319.8,1267c5,5,12.8,5.6,18.7,1.7c7.5-4.9,16.4-7.7,26-7.7s18.5,2.8,26,7.7c5.9,3.9,13.7,3.3,18.7-1.7
				l0.1-0.1c6.2-6.1,5.2-16.4-2-21.3c-12.2-8.3-26.9-13.2-42.8-13.2c-15.9,0-30.6,4.9-42.8,13.2
				C2314.6,1250.6,2313.6,1260.8,2319.8,1267L2319.8,1267z"/>
		</g>
	</g>
</g>
</svg>
