<svg id="Camada_1" data-name="Camada 1" xmlns="http://www.w3.org/2000/svg" viewBox="0 0 309.36 84.7"><defs><style>.cls-1{fill:#92c3fb;}.cls-2{fill:#fff;}.cls-3{fill:#3565a3;}.cls-4{fill:#a6e9fc;}</style></defs><path class="cls-1" d="M163.24,47.65a39.47,39.47,0,0,1-1,9,40,40,0,0,1-4.34,10.94,45.54,45.54,0,0,1-38.31-2.17c13.28-6.71,22.48-19.78,23.1-35,0-.55,0-1.1,0-1.65A39.7,39.7,0,0,0,138,10C152.89,16.59,163.24,31,163.24,47.65Z" transform="translate(-75.33 -5.3)"/><path class="cls-2" d="M141,71.76a46.24,46.24,0,0,1-21.91-5.5l-1.55-.84,1.57-.8c13.35-6.74,22-19.84,22.6-34.18,0-.55,0-1.1,0-1.61a38.52,38.52,0,0,0-4.62-18.37L135.89,8.1l2.45,1.08c15.69,6.9,25.83,22,25.83,38.47a40.68,40.68,0,0,1-5.5,20.43l-.16.27-.3.12A46,46,0,0,1,141,71.76Zm-19.48-6.33a44.69,44.69,0,0,0,35.68,1.45,39.41,39.41,0,0,0,4.08-10.42,38.84,38.84,0,0,0,1-8.81C162.32,32.76,153.63,19,140,12a40.19,40.19,0,0,1,3.64,16.83c0,.54,0,1.11,0,1.69A42.27,42.27,0,0,1,121.55,65.43Z" transform="translate(-75.33 -5.3)"/><path class="cls-3" d="M157.87,67.61a43.85,43.85,0,0,1-38.12,21.47c-16.92,0-31.58-9.2-38.77-22.63a39.78,39.78,0,0,1-3.7-9.78,41.69,41.69,0,0,1,20.25-26.6c.25,15.16,9.06,28.35,22,35.37a45.54,45.54,0,0,0,38.31,2.17Z" transform="translate(-75.33 -5.3)"/><path class="cls-2" d="M119.75,90C103,90,87.8,81.14,80.17,66.89a40.19,40.19,0,0,1-3.78-10l0-.21,0-.21A42.64,42.64,0,0,1,97.08,29.27l1.35-.77,0,1.55C98.69,44.32,107,57.57,120,64.63a44.64,44.64,0,0,0,37.53,2.13l2.47-1-1.33,2.31C150.84,81.6,135.93,90,119.75,90ZM78.23,56.67A38.85,38.85,0,0,0,81.79,66c7.32,13.65,21.86,22.14,38,22.14A43.18,43.18,0,0,0,155.67,69.4,46,46,0,0,1,141,71.76a46.24,46.24,0,0,1-21.91-5.5A42.38,42.38,0,0,1,96.67,31.65,40.76,40.76,0,0,0,78.23,56.67Z" transform="translate(-75.33 -5.3)"/><path class="cls-4" d="M142.7,28.83c0,.55,0,1.1,0,1.65a45.41,45.41,0,0,0-45.13-.41,41.69,41.69,0,0,0-20.25,26.6,40,40,0,0,1-1-9c0-17.2,11-31.94,26.66-38.21A45.61,45.61,0,0,1,138,10,39.7,39.7,0,0,1,142.7,28.83Z" transform="translate(-75.33 -5.3)"/><path class="cls-2" d="M77.29,60.73l-.9-3.85a40.28,40.28,0,0,1-1.06-9.23c0-17.11,10.69-32.44,27.23-39.07a46.58,46.58,0,0,1,35.78.6l.29.12.15.28a40.35,40.35,0,0,1,4.84,19.25c0,.54,0,1.11,0,1.69l-.07,1.54-1.33-.79a44.49,44.49,0,0,0-44.2-.4,40.85,40.85,0,0,0-19.81,26ZM119.75,7.14a44.22,44.22,0,0,0-16.5,3.15c-15.84,6.35-26.08,21-26.08,37.36a39.37,39.37,0,0,0,.32,5A43,43,0,0,1,97.08,29.27a46.38,46.38,0,0,1,44.69-.36v-.08a38.54,38.54,0,0,0-4.47-18.09A44,44,0,0,0,119.75,7.14Z" transform="translate(-75.33 -5.3)"/><path class="cls-3" d="M184.72,35.44a7.67,7.67,0,0,1,.18,1.71,4.13,4.13,0,0,1-.54,2.4,1.66,1.66,0,0,1-1.44.75h-3.65V60.65a6.72,6.72,0,0,1-1.1.27,9.44,9.44,0,0,1-1.52.13,3,3,0,0,1-2.37-.79,4.56,4.56,0,0,1-.66-2.85V40.3h-4.88a5.93,5.93,0,0,1-.41-1.27,7.67,7.67,0,0,1-.18-1.71,4.13,4.13,0,0,1,.54-2.4,1.66,1.66,0,0,1,1.44-.75h14.18A6.55,6.55,0,0,1,184.72,35.44Z" transform="translate(-75.33 -5.3)"/><path class="cls-3" d="M191.42,60.68a5.73,5.73,0,0,1-1,.26,7.35,7.35,0,0,1-1.44.13,3.17,3.17,0,0,1-2.33-.72,4,4,0,0,1-.71-2.78v-13a4.83,4.83,0,0,1,.48-2.21,5.49,5.49,0,0,1,1.33-1.64,8,8,0,0,1,2.63-1.4,10.37,10.37,0,0,1,3.15-.48q3.53,0,3.53,3.37a6.9,6.9,0,0,1-.16,1.47,6.54,6.54,0,0,1-.39,1.16,6.69,6.69,0,0,0-1.78-.18,6.26,6.26,0,0,0-1.73.26,4.93,4.93,0,0,0-1.57.79Z" transform="translate(-75.33 -5.3)"/><path class="cls-3" d="M205.19,38.79a9.92,9.92,0,0,1,3.18.49,6.47,6.47,0,0,1,2.46,1.46,6.55,6.55,0,0,1,1.57,2.5A10.53,10.53,0,0,1,213,46.8v9.81a3.37,3.37,0,0,1-.47,1.86,5.15,5.15,0,0,1-1.12,1.25,9.12,9.12,0,0,1-5.91,1.7,10.26,10.26,0,0,1-3.09-.43A6.42,6.42,0,0,1,200,59.67a5.65,5.65,0,0,1-1.51-2.23,8.45,8.45,0,0,1-.54-3.15,7.13,7.13,0,0,1,1.33-4.64,6.15,6.15,0,0,1,4.1-2l4.24-.62v-.3a2,2,0,0,0-.83-1.82,4.32,4.32,0,0,0-2.37-.55,8.47,8.47,0,0,0-2.38.35,10.8,10.8,0,0,0-2.12.88,3.07,3.07,0,0,1-.71-1.2,5.09,5.09,0,0,1-.29-1.69,3.55,3.55,0,0,1,.41-1.82,3.33,3.33,0,0,1,1.24-1.16,7.76,7.76,0,0,1,2.21-.7A15,15,0,0,1,205.19,38.79ZM205.45,56a5,5,0,0,0,1.21-.16,2.56,2.56,0,0,0,1-.41v-3.5l-2.33.26a2.94,2.94,0,0,0-1.49.52,1.57,1.57,0,0,0-.58,1.32,2,2,0,0,0,.5,1.42A2.21,2.21,0,0,0,205.45,56Zm1.94-28.19a3.17,3.17,0,0,1,2.52,1,3.23,3.23,0,0,1,.84,2.19,4,4,0,0,1-.32,1.68,6.86,6.86,0,0,1-1.1,1.56l-3.07,3.41a2.56,2.56,0,0,1-2.17-.92,3.18,3.18,0,0,1-.71-2,3.32,3.32,0,0,1,.15-1,4,4,0,0,1,.6-1.14Z" transform="translate(-75.33 -5.3)"/><path class="cls-3" d="M221.58,41.22h5.3a9.93,9.93,0,0,1,.37,1.21,6.58,6.58,0,0,1,.18,1.6,3.84,3.84,0,0,1-.5,2.21,1.61,1.61,0,0,1-1.35.67h-3.71V60.79a7.34,7.34,0,0,1-1,.26,7.2,7.2,0,0,1-1.44.13,3.19,3.19,0,0,1-2.33-.72,4,4,0,0,1-.71-2.78V39.56a11.45,11.45,0,0,1,.57-3.83,7.57,7.57,0,0,1,1.53-2.63,6.11,6.11,0,0,1,2.28-1.51,8.12,8.12,0,0,1,2.8-.48,5.84,5.84,0,0,1,3.52.86,3.43,3.43,0,0,1,1.13,2.91,4.31,4.31,0,0,1-.27,1.57,3.34,3.34,0,0,1-.6,1,12.66,12.66,0,0,0-1.28-.37,7,7,0,0,0-1.53-.15,3.36,3.36,0,0,0-2.17.63,2.75,2.75,0,0,0-.77,2.21Z" transform="translate(-75.33 -5.3)"/><path class="cls-3" d="M234.21,52.64a3.6,3.6,0,0,0,1.52,2.21,4.53,4.53,0,0,0,2.39.64,7.47,7.47,0,0,0,2.59-.46,7.08,7.08,0,0,0,2-1.07,3.27,3.27,0,0,1,.87,1.22,4,4,0,0,1,.36,1.66,3.54,3.54,0,0,1-1.73,3.2,5.86,5.86,0,0,1-2,.77,11.93,11.93,0,0,1-2.48.24,8.5,8.5,0,0,1-3.54-.73,7.68,7.68,0,0,1-2.83-2.16,10.5,10.5,0,0,1-1.87-3.64,17,17,0,0,1-.68-5.12,15.79,15.79,0,0,1,.69-5A10.09,10.09,0,0,1,231.35,41a7.26,7.26,0,0,1,5.58-2.6,6.88,6.88,0,0,1,3.12.7A7.49,7.49,0,0,1,242.47,41,8.8,8.8,0,0,1,244,44a12.2,12.2,0,0,1,.55,3.72A3.61,3.61,0,0,1,244,50a2.77,2.77,0,0,1-1.71,1ZM237,44.22a2.55,2.55,0,0,0-2.05,1,5.12,5.12,0,0,0-1,2.84l5.5-1.22a3.4,3.4,0,0,0-.2-.9,3.16,3.16,0,0,0-.45-.85,2.19,2.19,0,0,0-.74-.64A2.25,2.25,0,0,0,237,44.22Z" transform="translate(-75.33 -5.3)"/><path class="cls-3" d="M256.93,59.1a5.82,5.82,0,0,1-1.43.55,7.43,7.43,0,0,1-1.77.2A7,7,0,0,1,251,59.3a5.66,5.66,0,0,1-2.29-1.79,9.49,9.49,0,0,1-1.57-3.22,17.13,17.13,0,0,1-.58-4.82,16,16,0,0,1,.6-4.61,9.5,9.5,0,0,1,1.68-3.35,6.87,6.87,0,0,1,2.63-2,8.58,8.58,0,0,1,3.46-.68,8.88,8.88,0,0,1,1.78.18,10,10,0,0,1,1.63.48,11.66,11.66,0,0,1,1.37.66,5.78,5.78,0,0,1,1,.74,4.63,4.63,0,0,1,1,1.38,4.43,4.43,0,0,1,.38,2V60.42a11.41,11.41,0,0,1-.64,4,7.66,7.66,0,0,1-1.74,2.8,6.79,6.79,0,0,1-2.62,1.65,9.65,9.65,0,0,1-3.21.52,11.28,11.28,0,0,1-3.07-.37,5.19,5.19,0,0,1-2.1-1.07,3.81,3.81,0,0,1-1.17-3,5.19,5.19,0,0,1,.31-1.84,3.35,3.35,0,0,1,.69-1.22,9.84,9.84,0,0,0,2.12,1.18,6.51,6.51,0,0,0,2.47.48,4.4,4.4,0,0,0,2.75-.79,3,3,0,0,0,1-2.54Zm-2.16-4.81a3.19,3.19,0,0,0,1.15-.2,3.42,3.42,0,0,0,.92-.54V45.14a5.56,5.56,0,0,0-.73-.37,2.91,2.91,0,0,0-3.25,1,6.3,6.3,0,0,0-.87,3.74,6.37,6.37,0,0,0,.79,3.76A2.44,2.44,0,0,0,254.77,54.29Z" transform="translate(-75.33 -5.3)"/><path class="cls-3" d="M281.75,50.09a17.69,17.69,0,0,1-.59,4.73,10.45,10.45,0,0,1-1.72,3.56,7.94,7.94,0,0,1-9.64,2.28,7.5,7.5,0,0,1-2.67-2.23,10.77,10.77,0,0,1-1.71-3.57,17.38,17.38,0,0,1-.6-4.77,16.7,16.7,0,0,1,.61-4.69,10.84,10.84,0,0,1,1.73-3.56,7.78,7.78,0,0,1,2.67-2.26,7.59,7.59,0,0,1,3.46-.79,7.38,7.38,0,0,1,3.46.81,7.92,7.92,0,0,1,2.66,2.28,11,11,0,0,1,1.73,3.57A16.49,16.49,0,0,1,281.75,50.09Zm-8.46-5.47a2.28,2.28,0,0,0-2.1,1.42,8.85,8.85,0,0,0-.75,4.05,8.89,8.89,0,0,0,.75,4.13,2.28,2.28,0,0,0,4.2,0,9.06,9.06,0,0,0,.74-4.11,9,9,0,0,0-.74-4.05A2.3,2.3,0,0,0,273.29,44.62Z" transform="translate(-75.33 -5.3)"/><path class="cls-3" d="M310.81,47A21.42,21.42,0,0,1,310,53.1a12.93,12.93,0,0,1-2.15,4.42,9,9,0,0,1-7.32,3.61,9,9,0,0,1-4.07-.92,8.88,8.88,0,0,1-3.23-2.71,13.47,13.47,0,0,1-2.13-4.42,21.23,21.23,0,0,1-.78-6,20.86,20.86,0,0,1,.79-6,13.41,13.41,0,0,1,2.17-4.4,9.19,9.19,0,0,1,3.23-2.69,9.26,9.26,0,0,1,8,0,9.43,9.43,0,0,1,3.25,2.69A13.42,13.42,0,0,1,310,41,21.21,21.21,0,0,1,310.81,47Zm-5.82.38a11.67,11.67,0,0,0-1.19-5.91,3.61,3.61,0,0,0-6.42,0,11.43,11.43,0,0,0-1.21,5.93,11.79,11.79,0,0,0,1.19,5.95,3.62,3.62,0,0,0,6.44,0A11.79,11.79,0,0,0,305,47.42Z" transform="translate(-75.33 -5.3)"/><path class="cls-3" d="M329.07,60.68a6.15,6.15,0,0,1-1,.26,7.2,7.2,0,0,1-1.44.13,3.16,3.16,0,0,1-2.32-.72,4,4,0,0,1-.72-2.78V47.24a2.82,2.82,0,0,0-.59-2,2.06,2.06,0,0,0-1.57-.63,3.21,3.21,0,0,0-1.21.22,5.36,5.36,0,0,0-1.09.56V60.68a5.73,5.73,0,0,1-1,.26,7.27,7.27,0,0,1-1.44.13,3.17,3.17,0,0,1-2.33-.72,4,4,0,0,1-.71-2.78V44.4a4.31,4.31,0,0,1,.37-1.93,5.05,5.05,0,0,1,1-1.36,8,8,0,0,1,2.76-1.68,10.41,10.41,0,0,1,3.7-.64A7.25,7.25,0,0,1,327.1,41a8.72,8.72,0,0,1,2,6.06Z" transform="translate(-75.33 -5.3)"/><path class="cls-3" d="M335.66,61.07a3.19,3.19,0,0,1-2.33-.72,4,4,0,0,1-.71-2.78V32.19a7.12,7.12,0,0,1,1-.27,8,8,0,0,1,1.44-.13,3.19,3.19,0,0,1,2.33.72,4.06,4.06,0,0,1,.71,2.78V60.68a6.15,6.15,0,0,1-1,.26A7.2,7.2,0,0,1,335.66,61.07Z" transform="translate(-75.33 -5.3)"/><path class="cls-3" d="M341.51,33.54a4.64,4.64,0,0,1,.83-2.8,2.65,2.65,0,0,1,4.36,0,5.19,5.19,0,0,1,0,5.6,2.65,2.65,0,0,1-4.36,0A4.62,4.62,0,0,1,341.51,33.54Zm.26,6.22a6.15,6.15,0,0,1,1-.26,7.18,7.18,0,0,1,1.44-.14,3.12,3.12,0,0,1,2.32.73,4,4,0,0,1,.71,2.78V60.68a5.73,5.73,0,0,1-1,.26,7.27,7.27,0,0,1-1.44.13,3.19,3.19,0,0,1-2.33-.72,4,4,0,0,1-.71-2.78Z" transform="translate(-75.33 -5.3)"/><path class="cls-3" d="M366.2,60.68a5.73,5.73,0,0,1-1,.26,7.35,7.35,0,0,1-1.44.13,3.17,3.17,0,0,1-2.33-.72,4,4,0,0,1-.71-2.78V47.24a2.82,2.82,0,0,0-.6-2,2.06,2.06,0,0,0-1.57-.63,3.25,3.25,0,0,0-1.21.22,5,5,0,0,0-1.08.56V60.68a6.15,6.15,0,0,1-1,.26,7.2,7.2,0,0,1-1.44.13,3.16,3.16,0,0,1-2.32-.72,4,4,0,0,1-.72-2.78V44.4a4.3,4.3,0,0,1,.38-1.93,4.81,4.81,0,0,1,1-1.36,8.18,8.18,0,0,1,2.77-1.68,10.37,10.37,0,0,1,3.7-.64A7.23,7.23,0,0,1,364.23,41a8.67,8.67,0,0,1,2,6.06Z" transform="translate(-75.33 -5.3)"/><path class="cls-3" d="M374.32,52.64a3.55,3.55,0,0,0,1.51,2.21,4.56,4.56,0,0,0,2.4.64,7.46,7.46,0,0,0,2.58-.46,7.08,7.08,0,0,0,2-1.07,3.4,3.4,0,0,1,.88,1.22,4.12,4.12,0,0,1,.35,1.66,3.54,3.54,0,0,1-1.73,3.2,5.89,5.89,0,0,1-1.95.77,12.09,12.09,0,0,1-2.49.24,8.53,8.53,0,0,1-3.54-.73,7.68,7.68,0,0,1-2.83-2.16,10.5,10.5,0,0,1-1.87-3.64,17,17,0,0,1-.68-5.12,15.79,15.79,0,0,1,.69-5A10.27,10.27,0,0,1,371.45,41a7.26,7.26,0,0,1,5.58-2.6,6.88,6.88,0,0,1,3.12.7A7.38,7.38,0,0,1,382.57,41,8.8,8.8,0,0,1,384.14,44a11.9,11.9,0,0,1,.55,3.72,3.68,3.68,0,0,1-.61,2.27,2.8,2.8,0,0,1-1.72,1Zm2.74-8.8a2.55,2.55,0,0,0-2.05,1,5.13,5.13,0,0,0-1,2.85l5.5-1.23a3.4,3.4,0,0,0-.2-.9,2.9,2.9,0,0,0-.45-.85,2.16,2.16,0,0,0-.74-.63A2.25,2.25,0,0,0,377.06,43.84Z" transform="translate(-75.33 -5.3)"/></svg>