<svg id="Camada_1" data-name="Camada 1" xmlns="http://www.w3.org/2000/svg" viewBox="0 0 702.5 191.38"><defs><style>.cls-1{fill:#92c3fb;}.cls-2{fill:#fff;}.cls-3,.cls-5{fill:#3565a3;}.cls-4{fill:#a6e9fc;}.cls-5{stroke:#fff;stroke-miterlimit:10;stroke-width:5px;}</style></defs><path class="cls-1" d="M210.06,101a89.68,89.68,0,0,1-12.15,45.11,102.86,102.86,0,0,1-86.56-4.9c30-15.17,50.79-44.71,52.21-79,.05-1.24.07-2.49.07-3.74A89.65,89.65,0,0,0,153,16C186.67,30.8,210.06,63.3,210.06,101Z" transform="translate(-11.41 -5.3)"/><path class="cls-2" d="M159.86,155.46A104.24,104.24,0,0,1,110.36,143l-3.5-1.9,3.55-1.79c30.16-15.24,49.73-44.83,51.07-77.23.05-1.25.07-2.48.07-3.65A87,87,0,0,0,151.11,17l-2.85-5.32,5.53,2.43c35.45,15.6,58.35,49.72,58.35,86.93a91.81,91.81,0,0,1-12.42,46.16l-.36.62-.67.27A104.1,104.1,0,0,1,159.86,155.46Zm-44-14.29a100.92,100.92,0,0,0,80.62,3.26A87.75,87.75,0,0,0,208,101c0-33.64-19.63-64.66-50.49-80.55a90.94,90.94,0,0,1,8.23,38c0,1.22,0,2.51-.08,3.82C164.29,94.89,145.33,124.77,115.85,141.17Z" transform="translate(-11.41 -5.3)"/><path class="cls-3" d="M197.91,146.1c-16.72,28.91-49,48.5-86.13,48.5-38.22,0-71.34-20.78-87.6-51.12a89.9,89.9,0,0,1-8.34-22.1c5.94-25.53,22.84-47.13,45.75-60.11.56,34.26,20.47,64.06,49.76,79.93a102.86,102.86,0,0,0,86.56,4.9Z" transform="translate(-11.41 -5.3)"/><path class="cls-2" d="M111.78,196.68c-37.91,0-72.18-20-89.44-52.22a92.09,92.09,0,0,1-8.53-22.61l-.11-.47.11-.48c6-25.58,23-48,46.75-61.45l3.06-1.73.05,3.51c.53,32.23,19.18,62.17,48.68,78.14a100.86,100.86,0,0,0,84.79,4.8l5.6-2.24-3,5.22C182,177.7,148.34,196.68,111.78,196.68ZM18,121.38a87.51,87.51,0,0,0,8,21.11c16.53,30.86,49.39,50,85.76,50,33,0,63.56-16.09,81.16-42.37A105.06,105.06,0,0,1,110.36,143c-29.73-16.1-48.92-45.82-50.72-78.19C38.59,77.79,23.52,98.2,18,121.38Z" transform="translate(-11.41 -5.3)"/><path class="cls-4" d="M163.63,58.46c0,1.25,0,2.5-.07,3.74a102.56,102.56,0,0,0-102-.93c-22.91,13-39.81,34.58-45.75,60.11A89.22,89.22,0,0,1,13.49,101c0-38.85,24.85-72.17,60.24-86.33A103,103,0,0,1,153,16,89.65,89.65,0,0,1,163.63,58.46Z" transform="translate(-11.41 -5.3)"/><path class="cls-2" d="M15.84,130.54l-2-8.69A91.75,91.75,0,0,1,11.41,101c0-38.66,24.16-73.3,61.54-88.27a105.21,105.21,0,0,1,80.84,1.34l.66.29.34.63a91.18,91.18,0,0,1,10.93,43.48c0,1.22,0,2.51-.08,3.82l-.14,3.49-3-1.78a100.47,100.47,0,0,0-99.88-.91C39.88,76,23.56,97.39,17.87,121.85ZM111.78,9.46A99.8,99.8,0,0,0,74.5,16.59C38.71,30.92,15.58,64.05,15.58,101a87.74,87.74,0,0,0,.72,11.23A97.15,97.15,0,0,1,60.56,59.45a104.77,104.77,0,0,1,101-.79v-.2a86.94,86.94,0,0,0-10.1-40.87A99.47,99.47,0,0,0,111.78,9.46Z" transform="translate(-11.41 -5.3)"/><path class="cls-5" d="M259.58,51.41a17.92,17.92,0,0,1,.4,3.85q0,3.77-1.21,5.44a3.79,3.79,0,0,1-3.25,1.68h-8.25v46a15.22,15.22,0,0,1-2.48.6,20.44,20.44,0,0,1-3.43.29q-3.87,0-5.37-1.78t-1.5-6.43V62.38h-11a14.38,14.38,0,0,1-.92-2.86,18.08,18.08,0,0,1-.4-3.86q0-3.77,1.21-5.44a3.79,3.79,0,0,1,3.25-1.68h32.05A14.29,14.29,0,0,1,259.58,51.41Z" transform="translate(-11.41 -5.3)"/><path class="cls-5" d="M274.73,108.43a15.92,15.92,0,0,1-2.3.6,16.58,16.58,0,0,1-3.25.29c-2.43,0-4.19-.54-5.26-1.63s-1.6-3.18-1.6-6.28V72a10.81,10.81,0,0,1,1.09-5,11.82,11.82,0,0,1,3-3.7,18,18,0,0,1,5.95-3.17,23.3,23.3,0,0,1,7.12-1.09q7.95,0,8,7.62a14.4,14.4,0,0,1-.37,3.31,13.16,13.16,0,0,1-.87,2.62,15.81,15.81,0,0,0-4-.39,14,14,0,0,0-3.91.59,10.72,10.72,0,0,0-3.54,1.78Z" transform="translate(-11.41 -5.3)"/><path class="cls-5" d="M305.84,59A22.69,22.69,0,0,1,313,60.07a14.39,14.39,0,0,1,5.55,3.32A14.73,14.73,0,0,1,322.12,69a23.58,23.58,0,0,1,1.24,8.06V99.24a7.65,7.65,0,0,1-1.05,4.2,12.18,12.18,0,0,1-2.52,2.82q-4.76,3.85-13.37,3.86a23.19,23.19,0,0,1-7-1,14.52,14.52,0,0,1-5.33-3,12.87,12.87,0,0,1-3.43-5A19.28,19.28,0,0,1,289.48,94q0-6.82,3-10.49T301.75,79l9.57-1.38v-.69a4.57,4.57,0,0,0-1.87-4.11,9.72,9.72,0,0,0-5.36-1.24,18.69,18.69,0,0,0-5.37.8,22.86,22.86,0,0,0-4.78,2,6.71,6.71,0,0,1-1.61-2.72,11,11,0,0,1-.66-3.8,8.1,8.1,0,0,1,.91-4.11,7.57,7.57,0,0,1,2.82-2.62,17.39,17.39,0,0,1,5-1.58A32.18,32.18,0,0,1,305.84,59Zm.58,38.87a12.26,12.26,0,0,0,2.74-.34,5.63,5.63,0,0,0,2.23-.94V88.65l-5.26.6a6.61,6.61,0,0,0-3.36,1.18,3.47,3.47,0,0,0-1.31,3,4.57,4.57,0,0,0,1.13,3.22A5,5,0,0,0,306.42,97.85Zm4.38-63.69a7.18,7.18,0,0,1,5.7,2.18,7.29,7.29,0,0,1,1.9,4.94,8.92,8.92,0,0,1-.73,3.81,16.33,16.33,0,0,1-2.48,3.51l-6.94,7.71a5.8,5.8,0,0,1-4.89-2.07,7.11,7.11,0,0,1-1.61-4.45,7.86,7.86,0,0,1,.33-2.28,9.89,9.89,0,0,1,1.35-2.57Z" transform="translate(-11.41 -5.3)"/><path class="cls-5" d="M342.86,64.47h12a21.93,21.93,0,0,1,.84,2.72,15.59,15.59,0,0,1,.4,3.61q0,3.47-1.13,5a3.59,3.59,0,0,1-3,1.53h-8.4v31.35a14.89,14.89,0,0,1-2.3.59,16.55,16.55,0,0,1-3.25.3q-3.66,0-5.26-1.63t-1.61-6.28V60.72a26.09,26.09,0,0,1,1.28-8.66,16.61,16.61,0,0,1,3.47-5.93A13.24,13.24,0,0,1,341,42.72a18.05,18.05,0,0,1,6.32-1.09q5.4,0,8,1.93t2.55,6.57a9.74,9.74,0,0,1-.62,3.56,7.5,7.5,0,0,1-1.35,2.38,26.15,26.15,0,0,0-2.89-.84,15.43,15.43,0,0,0-3.46-.35,7.57,7.57,0,0,0-4.9,1.43c-1.16,1-1.75,2.63-1.75,5Z" transform="translate(-11.41 -5.3)"/><path class="cls-5" d="M371.41,90.27a8.1,8.1,0,0,0,3.44,5,10.38,10.38,0,0,0,5.4,1.43,16.37,16.37,0,0,0,5.84-1,15.6,15.6,0,0,0,4.46-2.42,7.85,7.85,0,0,1,2,2.77,9.13,9.13,0,0,1,.8,3.76,8,8,0,0,1-3.91,7.22,13.46,13.46,0,0,1-4.41,1.73,27.31,27.31,0,0,1-5.63.54,19.49,19.49,0,0,1-8-1.63,17.3,17.3,0,0,1-6.39-4.9,23.69,23.69,0,0,1-4.24-8.2A39.34,39.34,0,0,1,359.22,83a35.44,35.44,0,0,1,1.57-11.22A22.77,22.77,0,0,1,365,64a16.37,16.37,0,0,1,5.88-4.46,16.74,16.74,0,0,1,6.72-1.43,15.59,15.59,0,0,1,7,1.58,16.87,16.87,0,0,1,5.48,4.35,19.84,19.84,0,0,1,3.54,6.63,27.26,27.26,0,0,1,1.24,8.41,8.26,8.26,0,0,1-1.38,5.14,6.28,6.28,0,0,1-3.87,2.28Zm6.21-19A5.79,5.79,0,0,0,373,73.52,11.56,11.56,0,0,0,370.76,80l12.41-2.77a7.72,7.72,0,0,0-.44-2,7.09,7.09,0,0,0-1-1.92A5,5,0,0,0,380,71.79,5.1,5.1,0,0,0,377.62,71.25Z" transform="translate(-11.41 -5.3)"/><path class="cls-5" d="M422.75,104.87a14,14,0,0,1-3.25,1.24,16.31,16.31,0,0,1-4,.45,16.08,16.08,0,0,1-6.24-1.24,12.93,12.93,0,0,1-5.19-4.06A21.48,21.48,0,0,1,400.55,94a38.79,38.79,0,0,1-1.31-10.88,36.43,36.43,0,0,1,1.35-10.44,22.17,22.17,0,0,1,3.79-7.56,15.4,15.4,0,0,1,5.95-4.6A19.38,19.38,0,0,1,418.15,59a20.58,20.58,0,0,1,4,.4,20.36,20.36,0,0,1,3.69,1.09A25.06,25.06,0,0,1,429,62a12.61,12.61,0,0,1,2.33,1.68,10.77,10.77,0,0,1,2.3,3.12,10.06,10.06,0,0,1,.84,4.4v36.69a25.86,25.86,0,0,1-1.42,9,17.43,17.43,0,0,1-3.94,6.33,15.52,15.52,0,0,1-5.92,3.71,21.91,21.91,0,0,1-7.27,1.19,25.72,25.72,0,0,1-6.93-.85,11.62,11.62,0,0,1-4.75-2.42,8.59,8.59,0,0,1-2.63-6.72,11.75,11.75,0,0,1,.7-4.16,7.77,7.77,0,0,1,1.57-2.77,21,21,0,0,0,4.78,2.67,14.57,14.57,0,0,0,5.59,1.09,10,10,0,0,0,6.2-1.78q2.34-1.79,2.34-5.73ZM417.86,94a7,7,0,0,0,2.59-.45,7.6,7.6,0,0,0,2.08-1.24v-19a12.78,12.78,0,0,0-1.64-.85,6,6,0,0,0-2.23-.34,6.1,6.1,0,0,0-5.11,2.62c-1.32,1.75-2,4.57-2,8.45,0,4.16.59,7,1.79,8.51A5.47,5.47,0,0,0,417.86,94Z" transform="translate(-11.41 -5.3)"/><path class="cls-5" d="M478.83,84.5a39,39,0,0,1-1.35,10.68,24,24,0,0,1-3.87,8.06,17.48,17.48,0,0,1-6,5.1,17.21,17.21,0,0,1-7.88,1.78,17.52,17.52,0,0,1-7.89-1.74,16.85,16.85,0,0,1-6-5,24,24,0,0,1-3.87-8.06,39.43,39.43,0,0,1-1.35-10.78A37.82,37.82,0,0,1,442,73.92a24.61,24.61,0,0,1,3.91-8.06,17.54,17.54,0,0,1,6-5.1A17.1,17.1,0,0,1,459.7,59a16.63,16.63,0,0,1,7.81,1.83,18,18,0,0,1,6,5.15,24.4,24.4,0,0,1,3.9,8.06A37.07,37.07,0,0,1,478.83,84.5ZM459.7,72.14q-3.07,0-4.75,3.21c-1.12,2.15-1.68,5.19-1.68,9.15q0,6.23,1.68,9.35a5.16,5.16,0,0,0,9.49,0q1.68-3.17,1.68-9.3c0-4-.56-7-1.68-9.15S461.74,72.14,459.7,72.14Z" transform="translate(-11.41 -5.3)"/><path class="cls-5" d="M544.48,77.61a49.1,49.1,0,0,1-1.75,13.7,29.84,29.84,0,0,1-4.86,10,20.84,20.84,0,0,1-7.34,6.08,21.39,21.39,0,0,1-18.4,0,20.12,20.12,0,0,1-7.3-6.13,30.57,30.57,0,0,1-4.82-10,48.15,48.15,0,0,1-1.76-13.65A47.37,47.37,0,0,1,500,64a30.48,30.48,0,0,1,4.9-9.94,20.94,20.94,0,0,1,7.3-6.09,21,21,0,0,1,18.18,0A21.34,21.34,0,0,1,537.76,54,29.93,29.93,0,0,1,542.69,64,47.37,47.37,0,0,1,544.48,77.61Zm-13.15.86q0-8.91-2.7-13.35t-7.3-4.45c-3,0-5.37,1.46-7.19,4.4s-2.74,7.4-2.74,13.4.9,10.48,2.7,13.45,4.24,4.45,7.3,4.45,5.43-1.48,7.23-4.45S531.33,84.47,531.33,78.47Z" transform="translate(-11.41 -5.3)"/><path class="cls-5" d="M585.74,108.43a16.29,16.29,0,0,1-2.3.6,16.65,16.65,0,0,1-3.25.29q-3.66,0-5.26-1.63t-1.61-6.28V78.07a6.41,6.41,0,0,0-1.35-4.5,4.66,4.66,0,0,0-3.54-1.43,7.49,7.49,0,0,0-2.74.49,12.23,12.23,0,0,0-2.45,1.29v34.51a15.57,15.57,0,0,1-2.3.6,16.48,16.48,0,0,1-3.24.29q-3.66,0-5.26-1.63t-1.61-6.28V71.64a9.74,9.74,0,0,1,.84-4.35,11,11,0,0,1,2.3-3.06,18.32,18.32,0,0,1,6.24-3.81A23.26,23.26,0,0,1,568.58,59q8.25,0,12.7,4.9t4.46,13.7Z" transform="translate(-11.41 -5.3)"/><path class="cls-5" d="M600.63,109.32c-2.43,0-4.19-.54-5.26-1.63s-1.6-3.18-1.6-6.28V44.05a15.78,15.78,0,0,1,2.3-.59,16.55,16.55,0,0,1,3.25-.3q3.64,0,5.26,1.63t1.6,6.28v57.36a15.57,15.57,0,0,1-2.3.6A16.58,16.58,0,0,1,600.63,109.32Z" transform="translate(-11.41 -5.3)"/><path class="cls-5" d="M613.85,47.12a10.5,10.5,0,0,1,1.86-6.33,6,6,0,0,1,9.86,0,10.5,10.5,0,0,1,1.86,6.33,10.54,10.54,0,0,1-1.86,6.33,6,6,0,0,1-9.86,0A10.54,10.54,0,0,1,613.85,47.12Zm.58,14a15.2,15.2,0,0,1,2.3-.59,16.63,16.63,0,0,1,3.25-.3q3.66,0,5.26,1.63t1.61,6.28v40.25a15.92,15.92,0,0,1-2.3.6,16.58,16.58,0,0,1-3.25.29q-3.66,0-5.26-1.63t-1.61-6.28Z" transform="translate(-11.41 -5.3)"/><path class="cls-5" d="M669.64,108.43a15.92,15.92,0,0,1-2.3.6,16.58,16.58,0,0,1-3.25.29c-2.43,0-4.19-.54-5.26-1.63s-1.6-3.18-1.6-6.28V78.07a6.36,6.36,0,0,0-1.36-4.5,4.66,4.66,0,0,0-3.54-1.43,7.47,7.47,0,0,0-2.73.49,12,12,0,0,0-2.45,1.29v34.51a15.92,15.92,0,0,1-2.3.6,16.58,16.58,0,0,1-3.25.29q-3.66,0-5.26-1.63t-1.61-6.28V71.64a9.74,9.74,0,0,1,.84-4.35,11,11,0,0,1,2.3-3.06,18.37,18.37,0,0,1,6.25-3.81A23.21,23.21,0,0,1,652.48,59q8.25,0,12.71,4.9t4.45,13.7Z" transform="translate(-11.41 -5.3)"/><path class="cls-5" d="M688,90.27a8.05,8.05,0,0,0,3.43,5,10.43,10.43,0,0,0,5.4,1.43,16.38,16.38,0,0,0,5.85-1,15.54,15.54,0,0,0,4.45-2.42,7.6,7.6,0,0,1,2,2.77,9,9,0,0,1,.81,3.76,8.41,8.41,0,0,1-1,4.25,8.51,8.51,0,0,1-2.88,3,13.52,13.52,0,0,1-4.42,1.73,27.21,27.21,0,0,1-5.62.54,19.5,19.5,0,0,1-8-1.63,17.3,17.3,0,0,1-6.39-4.9,23.68,23.68,0,0,1-4.23-8.2A39,39,0,0,1,675.77,83a35.73,35.73,0,0,1,1.57-11.22A22.79,22.79,0,0,1,681.51,64a16.26,16.26,0,0,1,5.87-4.46,16.74,16.74,0,0,1,6.72-1.43,15.67,15.67,0,0,1,7,1.58,17,17,0,0,1,5.48,4.35,19.84,19.84,0,0,1,3.54,6.63,27.57,27.57,0,0,1,1.24,8.41A8.19,8.19,0,0,1,710,84.24a6.23,6.23,0,0,1-3.87,2.28Zm6.21-19.88a5.75,5.75,0,0,0-4.64,2.28,11.56,11.56,0,0,0-2.23,6.43l12.42-2.77a8,8,0,0,0-.44-2,7.64,7.64,0,0,0-1-1.93,4.84,4.84,0,0,0-1.67-1.43A5.13,5.13,0,0,0,694.18,70.39Z" transform="translate(-11.41 -5.3)"/><path d="M237.91,154.93a1.81,1.81,0,0,1-.82.42,4.65,4.65,0,0,1-1.33.18,4,4,0,0,1-1.47-.25,1.43,1.43,0,0,1-.86-.76c-.38-.8-.81-1.83-1.32-3.09s-1-2.66-1.59-4.21-1.14-3.19-1.73-4.91-1.15-3.43-1.7-5.12-1.06-3.32-1.55-4.91-.9-3-1.25-4.26a2.7,2.7,0,0,1,.78-.69,2.17,2.17,0,0,1,1.16-.32,1.61,1.61,0,0,1,1.21.41,3.17,3.17,0,0,1,.64,1.25q1.95,6,3.71,11.66t3.88,11.43h.17c.63-1.76,1.29-3.62,2-5.6s1.34-4,2-6.13,1.27-4.24,1.89-6.39,1.17-4.25,1.66-6.31a3,3,0,0,1,1.47-.32,1.88,1.88,0,0,1,1.25.41,1.59,1.59,0,0,1,.47,1.25,12.89,12.89,0,0,1-.5,2.6c-.33,1.28-.75,2.76-1.27,4.45s-1.1,3.5-1.74,5.44-1.29,3.79-1.92,5.57-1.24,3.41-1.81,4.89S238.26,154.2,237.91,154.93Z" transform="translate(-11.41 -5.3)"/><path d="M268.51,144.66a14.66,14.66,0,0,1-.69,4.65,10.25,10.25,0,0,1-2,3.55,8.44,8.44,0,0,1-3.08,2.26,10.9,10.9,0,0,1-8.1,0,8.63,8.63,0,0,1-3.11-2.26,10.13,10.13,0,0,1-2-3.55,14.66,14.66,0,0,1-.69-4.65,14.47,14.47,0,0,1,.71-4.66,10.39,10.39,0,0,1,2-3.54,8.48,8.48,0,0,1,3.1-2.26,10.57,10.57,0,0,1,8,0,8.41,8.41,0,0,1,3.08,2.26,10.67,10.67,0,0,1,2,3.54A14.47,14.47,0,0,1,268.51,144.66Zm-9.78-8.2a5.51,5.51,0,0,0-4.61,2.16,11.76,11.76,0,0,0,0,12.1,5.54,5.54,0,0,0,4.64,2.14,5.45,5.45,0,0,0,4.61-2.16,11.88,11.88,0,0,0,0-12.08A5.47,5.47,0,0,0,258.73,136.46Z" transform="translate(-11.41 -5.3)"/><path d="M283.08,136.5a7,7,0,0,0-2.72.53,6,6,0,0,0-2.15,1.57,7.44,7.44,0,0,0-1.42,2.58,10.91,10.91,0,0,0-.52,3.52,8.87,8.87,0,0,0,1.85,6.06,6.29,6.29,0,0,0,5,2.1,7.6,7.6,0,0,0,3-.53,11.37,11.37,0,0,0,2.15-1.22,2.37,2.37,0,0,1,.78.69,1.71,1.71,0,0,1,.3,1,1.81,1.81,0,0,1-.47,1.19,4.19,4.19,0,0,1-1.32,1,8.66,8.66,0,0,1-2,.67,11.39,11.39,0,0,1-2.48.25,12.07,12.07,0,0,1-4.14-.69,8.86,8.86,0,0,1-3.27-2.07,9.53,9.53,0,0,1-2.16-3.48,14.24,14.24,0,0,1-.77-5,13.53,13.53,0,0,1,.81-4.9,10.54,10.54,0,0,1,2.2-3.53,8.81,8.81,0,0,1,3.26-2.14,11,11,0,0,1,4-.72,11.37,11.37,0,0,1,2.48.26,7,7,0,0,1,2,.71,4.1,4.1,0,0,1,1.27,1,1.83,1.83,0,0,1,.46,1.17,1.62,1.62,0,0,1-.3,1,2.14,2.14,0,0,1-.78.65A11.66,11.66,0,0,0,286,137,7.13,7.13,0,0,0,283.08,136.5Z" transform="translate(-11.41 -5.3)"/><path d="M296.4,146.82q1.16,6,7.41,6a8.07,8.07,0,0,0,3.28-.64,9.16,9.16,0,0,0,2.32-1.39,2,2,0,0,1,1,1.75,1.84,1.84,0,0,1-.54,1.25,4.89,4.89,0,0,1-1.47,1.06,9.49,9.49,0,0,1-2.15.74,12.33,12.33,0,0,1-2.65.27,10.73,10.73,0,0,1-7.91-2.9c-1.94-1.94-2.91-4.76-2.91-8.48a14.38,14.38,0,0,1,.71-4.68,10.55,10.55,0,0,1,2-3.48,8.61,8.61,0,0,1,3-2.19,9.75,9.75,0,0,1,3.84-.76,9,9,0,0,1,3.58.7,8.2,8.2,0,0,1,2.82,1.95,9.18,9.18,0,0,1,1.85,3,10.36,10.36,0,0,1,.67,3.8,2,2,0,0,1-.43,1.45,2,2,0,0,1-1.21.53Zm6-10.41a5.54,5.54,0,0,0-4.36,2,8.53,8.53,0,0,0-1.81,5.6L308,142.22a7.06,7.06,0,0,0-1.66-4.17A5.11,5.11,0,0,0,302.35,136.41Zm.08-9.59c-.66.86-1.31,1.66-2,2.38s-1.26,1.43-1.83,2.14a2.56,2.56,0,0,1-1.29-.48,1.23,1.23,0,0,1-.52-1,1.52,1.52,0,0,1,.26-.88q.26-.36.69-.87l2.63-3a7.88,7.88,0,0,1,1-.79,1.88,1.88,0,0,1,1-.27,2.06,2.06,0,0,1,1.12.27,4.47,4.47,0,0,1,.91.83l3.62,4.61a1.93,1.93,0,0,1-.32,1.11,1.19,1.19,0,0,1-1,.46,1.34,1.34,0,0,1-.84-.26,5.28,5.28,0,0,1-.67-.62Z" transform="translate(-11.41 -5.3)"/><path d="M337.36,137.65a5.27,5.27,0,0,0-3.64-1.19,9.29,9.29,0,0,0-3.06.46,10.52,10.52,0,0,0-2.28,1.06v17.23a6.33,6.33,0,0,1-.65.21,4,4,0,0,1-1,.11c-1.23,0-1.85-.55-1.85-1.66V138.16a3.07,3.07,0,0,1,.37-1.59,3.93,3.93,0,0,1,1.27-1.22,12.61,12.61,0,0,1,3-1.34,13.57,13.57,0,0,1,4.18-.6,9.36,9.36,0,0,1,6.19,1.89q2.26,1.89,2.26,5.95v14a5.55,5.55,0,0,1-.67.21,4.06,4.06,0,0,1-.92.11c-1.24,0-1.86-.55-1.86-1.66V141.43A4.78,4.78,0,0,0,337.36,137.65Z" transform="translate(-11.41 -5.3)"/><path d="M355.7,133.41a9.11,9.11,0,0,1,5.95,1.8q2.21,1.8,2.2,5.67V151.8a2.63,2.63,0,0,1-.37,1.54,3.61,3.61,0,0,1-1.1,1,10.76,10.76,0,0,1-2.73,1.12,14.05,14.05,0,0,1-3.9.49,10.08,10.08,0,0,1-6.27-1.71,5.83,5.83,0,0,1-2.22-4.93,5.61,5.61,0,0,1,1.85-4.58,9.55,9.55,0,0,1,5.21-1.91l6.12-.65v-1.29a4.08,4.08,0,0,0-1.29-3.36,5.31,5.31,0,0,0-3.49-1.06,10.23,10.23,0,0,0-3.4.55,18.06,18.06,0,0,0-2.85,1.24,4,4,0,0,1-.62-.73,1.62,1.62,0,0,1-.28-.93,1.77,1.77,0,0,1,.3-1.06,3,3,0,0,1,.95-.78,10,10,0,0,1,2.67-1A14.64,14.64,0,0,1,355.7,133.41Zm.05,19.5a9.73,9.73,0,0,0,3-.39,7.21,7.21,0,0,0,1.7-.76v-6.69l-5.34.6a6.48,6.48,0,0,0-3.32,1.09,3,3,0,0,0-1.08,2.51A3.18,3.18,0,0,0,352,152,6.29,6.29,0,0,0,355.75,152.91Z" transform="translate(-11.41 -5.3)"/><path d="M384.19,149.64a5.61,5.61,0,0,1-2,4.6,9,9,0,0,1-5.86,1.66,14.18,14.18,0,0,1-3-.3,10.27,10.27,0,0,1-2.35-.78,4.66,4.66,0,0,1-1.51-1.11,1.9,1.9,0,0,1-.54-1.26,2.21,2.21,0,0,1,.28-1.06,2.6,2.6,0,0,1,.84-.88,13.26,13.26,0,0,0,2.72,1.64,8.43,8.43,0,0,0,3.53.71q4.49,0,4.49-3.22c0-1.76-1-2.89-3-3.41l-3.58-1a7.58,7.58,0,0,1-3.83-2.14,5.33,5.33,0,0,1-1.21-3.62,6,6,0,0,1,.45-2.3,5.22,5.22,0,0,1,1.4-1.94,7.11,7.11,0,0,1,2.35-1.31,10.24,10.24,0,0,1,3.3-.49,10.73,10.73,0,0,1,4.87,1c1.24.63,1.85,1.36,1.85,2.19a2,2,0,0,1-.28,1.06,1.73,1.73,0,0,1-.75.69,13.49,13.49,0,0,0-2.2-1.2,8.09,8.09,0,0,0-3.36-.64,5.38,5.38,0,0,0-3.08.78,2.53,2.53,0,0,0-1.14,2.21,2.63,2.63,0,0,0,.64,1.8,4.06,4.06,0,0,0,2.16,1.1l3,.79a9.26,9.26,0,0,1,4.4,2.32A5.85,5.85,0,0,1,384.19,149.64Z" transform="translate(-11.41 -5.3)"/><path d="M406.52,155.9a10.5,10.5,0,0,1-2.85-.37,8.75,8.75,0,0,1-2.19-.87v8.94a6.33,6.33,0,0,1-.65.21,4,4,0,0,1-.95.11c-1.23,0-1.85-.57-1.85-1.7V137.88a3.09,3.09,0,0,1,.3-1.47,3.55,3.55,0,0,1,1.25-1.15,15.75,15.75,0,0,1,2.78-1.27,11.06,11.06,0,0,1,3.68-.58,12.18,12.18,0,0,1,4,.65,8.35,8.35,0,0,1,3.23,2,9.63,9.63,0,0,1,2.16,3.48,14.5,14.5,0,0,1,.8,5.07,15.78,15.78,0,0,1-.71,5,9.73,9.73,0,0,1-2,3.52,8.06,8.06,0,0,1-3.08,2.1A10.73,10.73,0,0,1,406.52,155.9Zm-.48-3a6.3,6.3,0,0,0,4.85-2c1.22-1.3,1.84-3.4,1.84-6.29a11.8,11.8,0,0,0-.54-3.82,6.81,6.81,0,0,0-1.47-2.54,5.44,5.44,0,0,0-2.13-1.38,7.74,7.74,0,0,0-2.55-.41,7.21,7.21,0,0,0-2.62.41,13,13,0,0,0-1.94.92v13.6a7,7,0,0,0,1.94,1.06A7.67,7.67,0,0,0,406,152.86Z" transform="translate(-11.41 -5.3)"/><path d="M425,155.21a6.33,6.33,0,0,1-.65.21,4,4,0,0,1-.95.11c-1.23,0-1.85-.55-1.85-1.66V138.25a3.27,3.27,0,0,1,.37-1.68,4.06,4.06,0,0,1,1.23-1.22,10.63,10.63,0,0,1,3-1.36,15.25,15.25,0,0,1,4.34-.58c2.29,0,3.44.62,3.44,1.85a2.61,2.61,0,0,1-.13.85,2.22,2.22,0,0,1-.34.67c-.29-.06-.66-.12-1.12-.19a10.66,10.66,0,0,0-1.38-.09,12.6,12.6,0,0,0-3.49.44,10.34,10.34,0,0,0-2.5,1Z" transform="translate(-11.41 -5.3)"/><path d="M437.72,127.28a2.28,2.28,0,0,1,.63-1.63A2.08,2.08,0,0,1,440,125a2,2,0,0,1,1.6.67,2.53,2.53,0,0,1,0,3.27,2,2,0,0,1-1.6.67,2.08,2.08,0,0,1-1.61-.67A2.29,2.29,0,0,1,437.72,127.28Zm4,27.93a6.33,6.33,0,0,1-.65.21,4,4,0,0,1-1,.11c-1.23,0-1.85-.55-1.85-1.66V134.11a3.35,3.35,0,0,1,.67-.21,3.74,3.74,0,0,1,1-.12c1.2,0,1.81.57,1.81,1.71Z" transform="translate(-11.41 -5.3)"/><path d="M472.46,137.52a4.69,4.69,0,0,0-3.23-1.06,7,7,0,0,0-5,2.12,7.35,7.35,0,0,1,.26,2v14.65a6.22,6.22,0,0,1-.67.21,4.08,4.08,0,0,1-.93.11c-1.23,0-1.85-.55-1.85-1.66v-13a4.16,4.16,0,0,0-1.21-3.31,4.75,4.75,0,0,0-3.27-1.06,7.32,7.32,0,0,0-2.61.46,9.06,9.06,0,0,0-2.09,1.06v17.23a5.59,5.59,0,0,1-.65.21,3.93,3.93,0,0,1-.95.11c-1.23,0-1.85-.55-1.85-1.66V138.16a2.93,2.93,0,0,1,.37-1.54,4.34,4.34,0,0,1,1.27-1.27,12.7,12.7,0,0,1,6.55-1.94,10,10,0,0,1,3.75.67,5.73,5.73,0,0,1,2.5,1.82,9.38,9.38,0,0,1,2.8-1.77,9.67,9.67,0,0,1,3.84-.72,8.28,8.28,0,0,1,5.56,1.78q2.07,1.77,2.07,5.46v14.56a6.22,6.22,0,0,1-.67.21,4.08,4.08,0,0,1-.93.11c-1.23,0-1.85-.55-1.85-1.66v-13A4.16,4.16,0,0,0,472.46,137.52Z" transform="translate(-11.41 -5.3)"/><path d="M486,146.82q1.17,6,7.41,6a8.07,8.07,0,0,0,3.28-.64,9.42,9.42,0,0,0,2.33-1.39,2,2,0,0,1,1,1.75,1.84,1.84,0,0,1-.54,1.25,5,5,0,0,1-1.46,1.06,9.75,9.75,0,0,1-2.16.74,12.33,12.33,0,0,1-2.65.27,10.73,10.73,0,0,1-7.91-2.9c-1.94-1.94-2.91-4.76-2.91-8.48a14.38,14.38,0,0,1,.71-4.68,10.39,10.39,0,0,1,2-3.48,8.58,8.58,0,0,1,3-2.19,9.75,9.75,0,0,1,3.84-.76,9,9,0,0,1,3.58.7,8.2,8.2,0,0,1,2.82,1.95,9.18,9.18,0,0,1,1.85,3,10.36,10.36,0,0,1,.67,3.8,2,2,0,0,1-.43,1.45,2,2,0,0,1-1.21.53ZM492,136.41a5.54,5.54,0,0,0-4.36,2,8.53,8.53,0,0,0-1.81,5.6l11.86-1.75a7.06,7.06,0,0,0-1.66-4.17A5.11,5.11,0,0,0,492,136.41Z" transform="translate(-11.41 -5.3)"/><path d="M509.4,155.21a5.59,5.59,0,0,1-.65.21,3.93,3.93,0,0,1-.95.11c-1.23,0-1.85-.55-1.85-1.66V138.25a3.27,3.27,0,0,1,.37-1.68,4.06,4.06,0,0,1,1.23-1.22,10.63,10.63,0,0,1,3-1.36,15.25,15.25,0,0,1,4.34-.58c2.29,0,3.44.62,3.44,1.85a2.91,2.91,0,0,1-.12.85,2.49,2.49,0,0,1-.35.67c-.29-.06-.66-.12-1.12-.19a10.66,10.66,0,0,0-1.38-.09,12.6,12.6,0,0,0-3.49.44,10.34,10.34,0,0,0-2.5,1Z" transform="translate(-11.41 -5.3)"/><path d="M529.27,133.41a9.12,9.12,0,0,1,6,1.8q2.19,1.8,2.19,5.67V151.8a2.72,2.72,0,0,1-.36,1.54,3.73,3.73,0,0,1-1.1,1,10.69,10.69,0,0,1-2.74,1.12,14,14,0,0,1-3.9.49,10.08,10.08,0,0,1-6.27-1.71,5.83,5.83,0,0,1-2.22-4.93,5.64,5.64,0,0,1,1.85-4.58,9.62,9.62,0,0,1,5.22-1.91l6.12-.65v-1.29a4.08,4.08,0,0,0-1.29-3.36,5.35,5.35,0,0,0-3.49-1.06,10.29,10.29,0,0,0-3.41.55,18.34,18.34,0,0,0-2.84,1.24,4.47,4.47,0,0,1-.63-.73,1.62,1.62,0,0,1-.28-.93,1.77,1.77,0,0,1,.3-1.06,3.12,3.12,0,0,1,1-.78,10.27,10.27,0,0,1,2.67-1A14.73,14.73,0,0,1,529.27,133.41Zm0,19.5a9.75,9.75,0,0,0,3-.39,7.41,7.41,0,0,0,1.7-.76v-6.69l-5.35.6a6.4,6.4,0,0,0-3.31,1.09,3,3,0,0,0-1.08,2.51,3.16,3.16,0,0,0,1.25,2.69A6.26,6.26,0,0,0,529.31,152.91Z" transform="translate(-11.41 -5.3)"/><path d="M557.76,149.64a5.62,5.62,0,0,1-2,4.6,9,9,0,0,1-5.86,1.66,14.25,14.25,0,0,1-3-.3,10.27,10.27,0,0,1-2.35-.78,4.62,4.62,0,0,1-1.5-1.11,1.9,1.9,0,0,1-.54-1.26,2.1,2.1,0,0,1,.28-1.06,2.42,2.42,0,0,1,.84-.88,13.18,13.18,0,0,0,2.71,1.64,8.51,8.51,0,0,0,3.54.71q4.49,0,4.48-3.22c0-1.76-1-2.89-3-3.41l-3.58-1a7.66,7.66,0,0,1-3.84-2.14,5.38,5.38,0,0,1-1.2-3.62,6,6,0,0,1,.45-2.3,5.11,5.11,0,0,1,1.4-1.94,6.91,6.91,0,0,1,2.35-1.31,10.13,10.13,0,0,1,3.29-.49,10.78,10.78,0,0,1,4.88,1c1.23.63,1.85,1.36,1.85,2.19a2.07,2.07,0,0,1-.28,1.06,1.81,1.81,0,0,1-.76.69,13.33,13.33,0,0,0-2.19-1.2,8.11,8.11,0,0,0-3.37-.64,5.38,5.38,0,0,0-3.08.78,2.53,2.53,0,0,0-1.14,2.21,2.64,2.64,0,0,0,.65,1.8,4.06,4.06,0,0,0,2.15,1.1l3,.79a9.27,9.27,0,0,1,4.39,2.32A5.81,5.81,0,0,1,557.76,149.64Z" transform="translate(-11.41 -5.3)"/><path d="M580.08,155.9a10.48,10.48,0,0,1-2.84-.37,9,9,0,0,1-2.2-.87v8.94a5.59,5.59,0,0,1-.65.21,3.91,3.91,0,0,1-.94.11c-1.24,0-1.86-.57-1.86-1.7V137.88a3.09,3.09,0,0,1,.3-1.47,3.64,3.64,0,0,1,1.25-1.15,16.1,16.1,0,0,1,2.78-1.27,11.08,11.08,0,0,1,3.69-.58,12.18,12.18,0,0,1,4,.65,8.42,8.42,0,0,1,3.23,2,9.75,9.75,0,0,1,2.15,3.48,14.28,14.28,0,0,1,.8,5.07,15.78,15.78,0,0,1-.71,5,9.57,9.57,0,0,1-2,3.52,8.1,8.1,0,0,1-3.09,2.1A10.73,10.73,0,0,1,580.08,155.9Zm-.47-3a6.31,6.31,0,0,0,4.85-2q1.83-2,1.83-6.29a11.8,11.8,0,0,0-.54-3.82,6.93,6.93,0,0,0-1.46-2.54,5.41,5.41,0,0,0-2.14-1.38,7.64,7.64,0,0,0-2.54-.41,7.26,7.26,0,0,0-2.63.41,13.46,13.46,0,0,0-1.94.92v13.6a7.19,7.19,0,0,0,1.94,1.06A7.73,7.73,0,0,0,579.61,152.86Z" transform="translate(-11.41 -5.3)"/><path d="M613.62,144.66a14.66,14.66,0,0,1-.69,4.65,10.27,10.27,0,0,1-2,3.55,8.36,8.36,0,0,1-3.08,2.26,10.9,10.9,0,0,1-8.1,0,8.6,8.6,0,0,1-3.1-2.26,10.14,10.14,0,0,1-2-3.55,14.66,14.66,0,0,1-.69-4.65,14.2,14.2,0,0,1,.72-4.66,10.37,10.37,0,0,1,2-3.54,8.57,8.57,0,0,1,3.1-2.26,10.57,10.57,0,0,1,8,0,8.33,8.33,0,0,1,3.08,2.26,10.5,10.5,0,0,1,2,3.54A14.2,14.2,0,0,1,613.62,144.66Zm-9.79-8.2a5.53,5.53,0,0,0-4.61,2.16,11.79,11.79,0,0,0,0,12.1,5.51,5.51,0,0,0,4.63,2.14,5.45,5.45,0,0,0,4.61-2.16,11.88,11.88,0,0,0,0-12.08A5.45,5.45,0,0,0,603.83,136.46Z" transform="translate(-11.41 -5.3)"/><path d="M633,149.64a5.61,5.61,0,0,1-2,4.6,9.06,9.06,0,0,1-5.87,1.66,14.08,14.08,0,0,1-3-.3,10.1,10.1,0,0,1-2.35-.78,4.66,4.66,0,0,1-1.51-1.11,1.9,1.9,0,0,1-.54-1.26,2.1,2.1,0,0,1,.28-1.06,2.6,2.6,0,0,1,.84-.88,13.26,13.26,0,0,0,2.72,1.64,8.43,8.43,0,0,0,3.53.71q4.49,0,4.48-3.22c0-1.76-1-2.89-3-3.41l-3.58-1a7.66,7.66,0,0,1-3.84-2.14,5.38,5.38,0,0,1-1.2-3.62,6,6,0,0,1,.45-2.3,5.11,5.11,0,0,1,1.4-1.94,7,7,0,0,1,2.35-1.31,10.15,10.15,0,0,1,3.3-.49,10.76,10.76,0,0,1,4.87,1c1.23.63,1.85,1.36,1.85,2.19a2,2,0,0,1-.28,1.06,1.84,1.84,0,0,1-.75.69,13.49,13.49,0,0,0-2.2-1.2,8.09,8.09,0,0,0-3.36-.64,5.36,5.36,0,0,0-3.08.78,2.51,2.51,0,0,0-1.15,2.21,2.64,2.64,0,0,0,.65,1.8,4.06,4.06,0,0,0,2.16,1.1l3,.79a9.22,9.22,0,0,1,4.39,2.32A5.81,5.81,0,0,1,633,149.64Z" transform="translate(-11.41 -5.3)"/><path d="M637.92,127.28a2.28,2.28,0,0,1,.63-1.63,2.08,2.08,0,0,1,1.61-.67,2,2,0,0,1,1.6.67,2.53,2.53,0,0,1,0,3.27,2,2,0,0,1-1.6.67,2.08,2.08,0,0,1-1.61-.67A2.29,2.29,0,0,1,637.92,127.28Zm4,27.93a6.33,6.33,0,0,1-.65.21,4,4,0,0,1-1,.11c-1.23,0-1.85-.55-1.85-1.66V134.11a3.35,3.35,0,0,1,.67-.21,3.74,3.74,0,0,1,1-.12c1.21,0,1.81.57,1.81,1.71Z" transform="translate(-11.41 -5.3)"/><path d="M657.84,136.5a6.94,6.94,0,0,0-2.72.53A6,6,0,0,0,653,138.6a7.45,7.45,0,0,0-1.43,2.58,11.2,11.2,0,0,0-.51,3.52c0,2.65.61,4.67,1.85,6.06a6.28,6.28,0,0,0,5,2.1,7.55,7.55,0,0,0,3-.53,11.15,11.15,0,0,0,2.16-1.22,2.44,2.44,0,0,1,.77.69,1.71,1.71,0,0,1,.31,1,2.27,2.27,0,0,1-1.25,1.86,8,8,0,0,1-3.28,1.08,6.08,6.08,0,0,1,1,3.46,4.72,4.72,0,0,1-1.29,3.5A4.54,4.54,0,0,1,655.9,164c-1.5,0-2.24-.55-2.24-1.66a2.4,2.4,0,0,1,.25-1.1h.65a3.07,3.07,0,0,0,2.26-.72,2.55,2.55,0,0,0,.71-1.91,5.18,5.18,0,0,0-.19-1.36,4.6,4.6,0,0,0-.67-1.4,11.51,11.51,0,0,1-3.7-1,8.39,8.39,0,0,1-2.89-2.14,9.94,9.94,0,0,1-1.9-3.39,14.33,14.33,0,0,1-.69-4.68,13.31,13.31,0,0,1,.82-4.9,10.54,10.54,0,0,1,2.2-3.53,8.78,8.78,0,0,1,3.25-2.14,11,11,0,0,1,4-.72,11.37,11.37,0,0,1,2.48.26,7.15,7.15,0,0,1,2,.71,4.22,4.22,0,0,1,1.27,1,1.87,1.87,0,0,1,.45,1.17,1.62,1.62,0,0,1-.3,1,2.11,2.11,0,0,1-.77.65,12.42,12.42,0,0,0-2.07-1.2A7.17,7.17,0,0,0,657.84,136.5Z" transform="translate(-11.41 -5.3)"/><path d="M676.46,133.41a9.1,9.1,0,0,1,5.94,1.8q2.21,1.8,2.2,5.67V151.8a2.72,2.72,0,0,1-.36,1.54,3.86,3.86,0,0,1-1.1,1,10.84,10.84,0,0,1-2.74,1.12,14.05,14.05,0,0,1-3.9.49,10.08,10.08,0,0,1-6.27-1.71,5.83,5.83,0,0,1-2.22-4.93,5.64,5.64,0,0,1,1.85-4.58,9.59,9.59,0,0,1,5.22-1.91l6.12-.65v-1.29a4.06,4.06,0,0,0-1.3-3.36,5.31,5.31,0,0,0-3.49-1.06,10.27,10.27,0,0,0-3.4.55,18.48,18.48,0,0,0-2.85,1.24,4,4,0,0,1-.62-.73,1.62,1.62,0,0,1-.28-.93,1.77,1.77,0,0,1,.3-1.06,3.12,3.12,0,0,1,1-.78,10,10,0,0,1,2.67-1A14.67,14.67,0,0,1,676.46,133.41Zm-3.11-8.11a5.28,5.28,0,0,1,1.68.26c.52.17,1,.34,1.45.53l1.27.53a3,3,0,0,0,1.16.25,1.33,1.33,0,0,0,1.14-.48,3.15,3.15,0,0,0,.54-1.27h.26a2.48,2.48,0,0,1,1.38.39,1.49,1.49,0,0,1,.6,1.36A2.64,2.64,0,0,1,682,129a3.34,3.34,0,0,1-2.28.76,5.79,5.79,0,0,1-1.73-.26,15.21,15.21,0,0,1-1.53-.55l-1.31-.55a2.92,2.92,0,0,0-1.12-.26,1.25,1.25,0,0,0-1.12.51,3.82,3.82,0,0,0-.52,1.29h-.26a2.41,2.41,0,0,1-1.38-.41,1.51,1.51,0,0,1-.6-1.34,2.51,2.51,0,0,1,1-2.1A3.63,3.63,0,0,1,673.35,125.3Zm3.15,27.61a9.73,9.73,0,0,0,3-.39,7.53,7.53,0,0,0,1.71-.76v-6.69l-5.35.6a6.48,6.48,0,0,0-3.32,1.09,3,3,0,0,0-1.07,2.51,3.16,3.16,0,0,0,1.25,2.69A6.24,6.24,0,0,0,676.5,152.91Z" transform="translate(-11.41 -5.3)"/><path d="M709.38,144.66a14.66,14.66,0,0,1-.69,4.65,10.25,10.25,0,0,1-2,3.55,8.36,8.36,0,0,1-3.08,2.26,10.9,10.9,0,0,1-8.1,0,8.6,8.6,0,0,1-3.1-2.26,10,10,0,0,1-2-3.55,14.66,14.66,0,0,1-.69-4.65,14.47,14.47,0,0,1,.71-4.66,10.55,10.55,0,0,1,2-3.54,8.57,8.57,0,0,1,3.1-2.26,10.57,10.57,0,0,1,8,0,8.33,8.33,0,0,1,3.08,2.26,10.5,10.5,0,0,1,2,3.54A14.2,14.2,0,0,1,709.38,144.66Zm-9.78-8.2a5.53,5.53,0,0,0-4.61,2.16,11.79,11.79,0,0,0,0,12.1,5.51,5.51,0,0,0,4.63,2.14,5.45,5.45,0,0,0,4.61-2.16,9.85,9.85,0,0,0,1.64-6,9.72,9.72,0,0,0-1.66-6A5.47,5.47,0,0,0,699.6,136.46Z" transform="translate(-11.41 -5.3)"/></svg>