<svg id="Camada_1" data-name="Camada 1" xmlns="http://www.w3.org/2000/svg" viewBox="0 0 1080 315.56"><defs><style>.cls-1{fill:#92c3fb;}.cls-2{fill:#fff;}.cls-3,.cls-5{fill:#3565a3;}.cls-4{fill:#a6e9fc;}.cls-5{stroke:#fff;stroke-miterlimit:10;stroke-width:5px;}</style></defs><path class="cls-1" d="M332.84,155a122.47,122.47,0,0,1-16,60.62A133.81,133.81,0,0,1,202.44,209c39.65-20.38,67.09-60.08,69-106.16.07-1.67.11-3.34.11-5a122,122,0,0,0-14.12-57.1C301.93,60.67,332.84,104.33,332.84,155Z"/><path class="cls-2" d="M266.52,228.18a135.82,135.82,0,0,1-65.39-16.71l-4.63-2.55,4.7-2.41C241,186,266.89,146.27,268.65,102.73c.07-1.68.1-3.33.1-4.9A118.61,118.61,0,0,0,255,42.05L251.2,34.9l7.3,3.27c46.83,21,77.09,66.81,77.09,116.81a125.21,125.21,0,0,1-16.42,62l-.47.84-.89.36A135.3,135.3,0,0,1,266.52,228.18ZM208.38,209a131.19,131.19,0,0,0,106.5,4.39A119.44,119.44,0,0,0,330.08,155c0-45.21-25.93-86.88-66.69-108.24a123.89,123.89,0,0,1,10.87,51.09c0,1.64,0,3.37-.1,5.13C272.38,146.79,247.32,186.94,208.38,209Z"/><path class="cls-3" d="M316.79,215.6C294.69,254.45,252,280.77,203,280.77c-50.49,0-94.25-27.92-115.72-68.7a121.45,121.45,0,0,1-11-29.7c7.85-34.3,30.18-63.32,60.44-80.77.75,46.05,27,86.09,65.74,107.41a133.81,133.81,0,0,0,114.35,6.59Z"/><path class="cls-2" d="M203,283.57c-50.08,0-95.35-26.89-118.15-70.18A124.69,124.69,0,0,1,73.58,183l-.15-.64.15-.63c7.87-34.38,30.38-64.48,61.76-82.58l4-2.32.07,4.71c.7,43.31,25.34,83.54,64.3,105a131.12,131.12,0,0,0,112,6.45l7.39-3-4,7C295.82,258.06,251.3,283.57,203,283.57ZM79.08,182.38a119.3,119.3,0,0,0,10.63,28.37C111.54,252.21,155,278,203,278c43.6,0,84-21.63,107.22-56.94a136.62,136.62,0,0,1-109.09-9.56c-39.28-21.63-64.62-61.57-67-105.07C106.32,123.8,86.4,151.23,79.08,182.38Z"/><path class="cls-4" d="M271.51,97.83c0,1.68,0,3.35-.11,5a133.54,133.54,0,0,0-134.7-1.25c-30.26,17.45-52.59,46.47-60.44,80.77A121.94,121.94,0,0,1,73.16,155c0-52.21,32.83-97,79.57-116a134,134,0,0,1,104.66,1.76A122,122,0,0,1,271.51,97.83Z"/><path class="cls-2" d="M76.26,194.69,73.58,183a124.78,124.78,0,0,1-3.17-28c0-51.95,31.91-98.5,81.3-118.61a136.71,136.71,0,0,1,106.79,1.8l.87.39.45.85a124.11,124.11,0,0,1,14.44,58.42c0,1.64,0,3.37-.1,5.13l-.19,4.69-4-2.39A130.81,130.81,0,0,0,138.06,104c-30,17.32-51.6,46.11-59.12,79ZM203,32a129.72,129.72,0,0,0-49.24,9.58C106.47,60.82,75.91,105.34,75.91,155a120.43,120.43,0,0,0,1,15.08,130.11,130.11,0,0,1,58.48-70.9A136.32,136.32,0,0,1,268.75,98.1v-.27a118.47,118.47,0,0,0-13.34-54.92A129.38,129.38,0,0,0,203,32Z"/><path class="cls-5" d="M398.25,88.35a24.17,24.17,0,0,1,.53,5.18q0,5.06-1.59,7.31a5,5,0,0,1-4.29,2.26H382v61.8a20.29,20.29,0,0,1-3.28.8,26.16,26.16,0,0,1-4.54.4q-5.12,0-7.09-2.4t-2-8.63v-52H350.55a19.14,19.14,0,0,1-1.21-3.85,24.17,24.17,0,0,1-.53-5.18q0-5.05,1.59-7.31a5,5,0,0,1,4.3-2.26h42.35A19.2,19.2,0,0,1,398.25,88.35Z"/><path class="cls-5" d="M418.27,165a19.61,19.61,0,0,1-3,.8,21.42,21.42,0,0,1-4.29.4c-3.22,0-5.53-.73-6.95-2.19s-2.12-4.28-2.12-8.44V116.08a14.59,14.59,0,0,1,1.45-6.71,15.84,15.84,0,0,1,3.95-5,23.84,23.84,0,0,1,7.86-4.25,30.32,30.32,0,0,1,9.41-1.46q10.51,0,10.52,10.23a19.51,19.51,0,0,1-.49,4.45,18.89,18.89,0,0,1-1.15,3.52,20.48,20.48,0,0,0-5.31-.53,18,18,0,0,0-5.16.8,14,14,0,0,0-4.68,2.39Z"/><path class="cls-5" d="M459.36,98.54a29.24,29.24,0,0,1,9.51,1.46,19.06,19.06,0,0,1,7.33,4.45,19.93,19.93,0,0,1,4.68,7.57,32.32,32.32,0,0,1,1.64,10.84v29.76a10.35,10.35,0,0,1-1.4,5.65,16,16,0,0,1-3.33,3.79q-6.27,5.19-17.65,5.18a29.75,29.75,0,0,1-9.22-1.33,19.1,19.1,0,0,1-7-4,17.37,17.37,0,0,1-4.53-6.78,26.51,26.51,0,0,1-1.59-9.57q0-9.17,3.95-14.09T454,125.38l12.64-1.86v-.93q0-3.86-2.46-5.52c-1.64-1.1-4-1.66-7.09-1.66a24.39,24.39,0,0,0-7.09,1.07,30.85,30.85,0,0,0-6.32,2.65,9.13,9.13,0,0,1-2.12-3.65,15.21,15.21,0,0,1-.87-5.12,10.8,10.8,0,0,1,1.21-5.51,10,10,0,0,1,3.71-3.52,22.33,22.33,0,0,1,6.61-2.13A42.13,42.13,0,0,1,459.36,98.54Zm.78,52.22a15.79,15.79,0,0,0,3.61-.46A7.35,7.35,0,0,0,466.7,149V138.4l-6.95.8a8.53,8.53,0,0,0-4.44,1.6,4.7,4.7,0,0,0-1.73,4,6.17,6.17,0,0,0,1.49,4.32Q456.57,150.77,460.14,150.76Zm5.78-85.58q5,0,7.53,2.92A10,10,0,0,1,476,74.75a12,12,0,0,1-1,5.11,20.84,20.84,0,0,1-3.28,4.72L462.55,95c-2.9,0-5.05-.93-6.47-2.79a9.74,9.74,0,0,1-2.12-6,10.68,10.68,0,0,1,.44-3.06,13.25,13.25,0,0,1,1.78-3.46Z"/><path class="cls-5" d="M508.27,105.91h15.82a26.83,26.83,0,0,1,1.11,3.66,20.3,20.3,0,0,1,.53,4.85c0,3.1-.49,5.33-1.49,6.71a4.72,4.72,0,0,1-4,2.06H509.14v42.13a21,21,0,0,1-3,.79,21.42,21.42,0,0,1-4.29.4c-3.22,0-5.53-.73-6.95-2.19s-2.12-4.27-2.12-8.44v-55a35.42,35.42,0,0,1,1.69-11.63,22.42,22.42,0,0,1,4.58-8,17.68,17.68,0,0,1,6.8-4.59,23.76,23.76,0,0,1,8.35-1.46q7.14,0,10.51,2.59t3.38,8.84a13.19,13.19,0,0,1-.82,4.79,10.14,10.14,0,0,1-1.79,3.18,34.4,34.4,0,0,0-3.81-1.12,20,20,0,0,0-4.58-.47A9.78,9.78,0,0,0,510.59,95c-1.54,1.28-2.32,3.52-2.32,6.71Z"/><path class="cls-5" d="M546,140.58q1.35,4.78,4.54,6.71a13.46,13.46,0,0,0,7.14,1.93,21.47,21.47,0,0,0,7.71-1.4,20.4,20.4,0,0,0,5.89-3.25,10.26,10.26,0,0,1,2.6,3.72,12.26,12.26,0,0,1,1.06,5.05,10.86,10.86,0,0,1-5.16,9.7,17.28,17.28,0,0,1-5.83,2.32,35,35,0,0,1-7.43.74,25.49,25.49,0,0,1-10.57-2.2,22.93,22.93,0,0,1-8.44-6.58,32,32,0,0,1-5.59-11,53.49,53.49,0,0,1-2-15.54A48.37,48.37,0,0,1,532,115.66a30.52,30.52,0,0,1,5.5-10.36,21.43,21.43,0,0,1,16.64-7.91,20.43,20.43,0,0,1,9.31,2.12,22.39,22.39,0,0,1,7.23,5.85,26.61,26.61,0,0,1,4.68,8.91A37.34,37.34,0,0,1,577,125.56c0,3-.61,5.32-1.83,6.91a8.24,8.24,0,0,1-5.12,3.06Zm8.2-25.57a7.56,7.56,0,0,0-6.12,3.06q-2.46,3.06-3,8.64l16.4-3.72a10.56,10.56,0,0,0-.57-2.73,10.18,10.18,0,0,0-1.36-2.59,6.32,6.32,0,0,0-2.21-1.92A6.59,6.59,0,0,0,554.19,115Z"/><path class="cls-5" d="M613.81,160.2a18.14,18.14,0,0,1-4.29,1.66,21.42,21.42,0,0,1-5.26.6A20.86,20.86,0,0,1,596,160.8a17.27,17.27,0,0,1-6.85-5.45,29.05,29.05,0,0,1-4.68-9.77A53.41,53.41,0,0,1,582.75,131a49.7,49.7,0,0,1,1.78-14,30.05,30.05,0,0,1,5-10.17,20.5,20.5,0,0,1,7.86-6.18,25.19,25.19,0,0,1,10.32-2,26.13,26.13,0,0,1,5.31.53,26.82,26.82,0,0,1,4.87,1.46,33.34,33.34,0,0,1,4.1,2,16.47,16.47,0,0,1,3.09,2.26,14.54,14.54,0,0,1,3,4.19,13.88,13.88,0,0,1,1.11,5.91v49.31a35.18,35.18,0,0,1-1.89,12.16,23.56,23.56,0,0,1-5.2,8.5,20.5,20.5,0,0,1-7.82,5,28.52,28.52,0,0,1-9.6,1.59,33.55,33.55,0,0,1-9.16-1.13,15.24,15.24,0,0,1-6.27-3.26c-2.32-2.12-3.48-5.14-3.48-9a16.25,16.25,0,0,1,.92-5.58,10.4,10.4,0,0,1,2.08-3.73,28.06,28.06,0,0,0,6.31,3.59,19,19,0,0,0,7.38,1.46,13,13,0,0,0,8.2-2.39q3.09-2.38,3.09-7.71Zm-6.46-14.62a9.15,9.15,0,0,0,3.42-.6,10,10,0,0,0,2.75-1.66V117.81a14.48,14.48,0,0,0-2.17-1.13,7.72,7.72,0,0,0-2.94-.47,8.07,8.07,0,0,0-6.76,3.52q-2.6,3.52-2.6,11.36,0,8.39,2.36,11.43A7.23,7.23,0,0,0,607.35,145.58Z"/><path class="cls-5" d="M687.9,132.82a53.34,53.34,0,0,1-1.79,14.36A32.56,32.56,0,0,1,681,158a23,23,0,0,1-8,6.84,22.31,22.31,0,0,1-10.42,2.39,22.9,22.9,0,0,1-10.42-2.32,22.54,22.54,0,0,1-8-6.78,32.76,32.76,0,0,1-5.11-10.83,53.82,53.82,0,0,1-1.78-14.49,51.58,51.58,0,0,1,1.83-14.22,33.21,33.21,0,0,1,5.16-10.83,23,23,0,0,1,8-6.84,22.1,22.1,0,0,1,10.32-2.39A21.72,21.72,0,0,1,672.94,101a23.92,23.92,0,0,1,8,6.91,33.17,33.17,0,0,1,5.16,10.84A51,51,0,0,1,687.9,132.82Zm-25.28-16.61q-4.05,0-6.27,4.32t-2.22,12.29q0,8.37,2.22,12.56t6.27,4.19q4.05,0,6.27-4.25t2.22-12.5q0-8-2.22-12.29T662.62,116.21Z"/><path class="cls-5" d="M774.62,123.57a66.73,66.73,0,0,1-2.31,18.4,40.53,40.53,0,0,1-6.42,13.43,27.58,27.58,0,0,1-9.69,8.17,26.91,26.91,0,0,1-34-8.24,42,42,0,0,1-6.37-13.42,66.08,66.08,0,0,1-2.31-18.34,64.48,64.48,0,0,1,2.36-18.34,41.27,41.27,0,0,1,6.46-13.36A27.81,27.81,0,0,1,732,83.7a27.24,27.24,0,0,1,24,0,28.23,28.23,0,0,1,9.7,8.17,40.72,40.72,0,0,1,6.51,13.36A64.84,64.84,0,0,1,774.62,123.57Zm-17.36,1.15q0-12-3.57-18t-9.65-6q-5.88,0-9.5,5.92t-3.62,18q0,12.09,3.57,18.07t9.65,6q6,0,9.55-6T757.26,124.72Z"/><path class="cls-5" d="M829.12,165a19.43,19.43,0,0,1-3,.8,21.45,21.45,0,0,1-4.3.4c-3.21,0-5.53-.73-6.94-2.19s-2.12-4.28-2.12-8.44V124.18c0-2.74-.6-4.76-1.79-6a6.06,6.06,0,0,0-4.68-1.93,9.86,9.86,0,0,0-3.62.66,16.52,16.52,0,0,0-3.23,1.73V165a19.61,19.61,0,0,1-3,.8,21.42,21.42,0,0,1-4.29.4q-4.83,0-6.94-2.19T783,155.55v-40a13.29,13.29,0,0,1,1.11-5.85,14.6,14.6,0,0,1,3-4.12,24.3,24.3,0,0,1,8.25-5.12,30.38,30.38,0,0,1,11-1.92q10.9,0,16.79,6.57t5.88,18.41Z"/><path class="cls-5" d="M848.8,166.18c-3.21,0-5.53-.73-6.94-2.19s-2.12-4.28-2.12-8.44V78.47a20.63,20.63,0,0,1,3-.8,21.45,21.45,0,0,1,4.3-.4c3.21,0,5.53.73,6.94,2.19s2.13,4.28,2.13,8.44V165a19.93,19.93,0,0,1-3,.8A21.45,21.45,0,0,1,848.8,166.18Z"/><path class="cls-5" d="M866.27,82.59a14.3,14.3,0,0,1,2.45-8.51,7.88,7.88,0,0,1,13,0,14.31,14.31,0,0,1,2.46,8.51,14.26,14.26,0,0,1-2.46,8.5,7.86,7.86,0,0,1-13,0A14.25,14.25,0,0,1,866.27,82.59Zm.77,18.87a20.48,20.48,0,0,1,3-.8,22,22,0,0,1,4.29-.4c3.21,0,5.53.73,6.94,2.2s2.13,4.27,2.13,8.43V165a19.93,19.93,0,0,1-3,.8,21.45,21.45,0,0,1-4.3.4c-3.21,0-5.53-.73-6.94-2.19s-2.12-4.28-2.12-8.44Z"/><path class="cls-5" d="M940,165a19.61,19.61,0,0,1-3,.8,21.42,21.42,0,0,1-4.29.4q-4.83,0-6.95-2.19c-1.42-1.47-2.12-4.28-2.12-8.44V124.18c0-2.74-.6-4.76-1.79-6a6.06,6.06,0,0,0-4.68-1.93,9.81,9.81,0,0,0-3.61.66,16.32,16.32,0,0,0-3.24,1.73V165a19.43,19.43,0,0,1-3,.8,21.45,21.45,0,0,1-4.3.4c-3.21,0-5.53-.73-6.94-2.19s-2.13-4.28-2.13-8.44v-40A13.29,13.29,0,0,1,895,109.7a14.8,14.8,0,0,1,3-4.12,24.3,24.3,0,0,1,8.25-5.12,30.44,30.44,0,0,1,11-1.92q10.89,0,16.78,6.57T940,123.52Z"/><path class="cls-5" d="M964.18,140.58q1.35,4.78,4.53,6.71a13.48,13.48,0,0,0,7.14,1.93,21.52,21.52,0,0,0,7.72-1.4,20.47,20.47,0,0,0,5.88-3.25,10.27,10.27,0,0,1,2.61,3.72,12.26,12.26,0,0,1,1.06,5.05A10.86,10.86,0,0,1,988,163a17.34,17.34,0,0,1-5.84,2.32,34.9,34.9,0,0,1-7.43.74,25.48,25.48,0,0,1-10.56-2.2,22.85,22.85,0,0,1-8.44-6.58,32,32,0,0,1-5.59-11,53.15,53.15,0,0,1-2-15.54,48.69,48.69,0,0,1,2.07-15.09,30.87,30.87,0,0,1,5.5-10.36,21.46,21.46,0,0,1,16.64-7.91,20.4,20.4,0,0,1,9.31,2.12,22.32,22.32,0,0,1,7.24,5.85,26.79,26.79,0,0,1,4.68,8.91,37.34,37.34,0,0,1,1.64,11.29c0,3-.62,5.32-1.84,6.91a8.19,8.19,0,0,1-5.11,3.06Zm8.2-26.71a7.58,7.58,0,0,0-6.13,3q-2.46,3.06-2.94,8.64l16.4-3.72a10.61,10.61,0,0,0-.58-2.72,9.69,9.69,0,0,0-1.35-2.59,6.4,6.4,0,0,0-5.4-2.66Z"/><path d="M369.63,227.47a2.53,2.53,0,0,1-1.08.56,6.16,6.16,0,0,1-1.77.24,5.07,5.07,0,0,1-1.93-.34,1.88,1.88,0,0,1-1.14-1c-.5-1.07-1.08-2.45-1.74-4.15s-1.37-3.58-2.11-5.66-1.5-4.29-2.27-6.6-1.53-4.6-2.25-6.87-1.41-4.47-2-6.6-1.2-4-1.65-5.73a3.31,3.31,0,0,1,1-.92,2.82,2.82,0,0,1,1.54-.44,2.06,2.06,0,0,1,1.59.56,4.4,4.4,0,0,1,.86,1.67q2.55,8.12,4.89,15.67t5.13,15.36h.23q1.25-3.54,2.59-7.53c.89-2.66,1.76-5.41,2.62-8.23s1.68-5.69,2.5-8.58,1.55-5.72,2.19-8.48a3.82,3.82,0,0,1,1.94-.44,2.41,2.41,0,0,1,1.65.56,2.11,2.11,0,0,1,.63,1.67,17.32,17.32,0,0,1-.66,3.5c-.44,1.71-1,3.71-1.68,6s-1.45,4.7-2.3,7.3-1.7,5.1-2.54,7.5-1.63,4.58-2.39,6.56S370.08,226.48,369.63,227.47Z"/><path d="M410.05,213.66a19.94,19.94,0,0,1-.91,6.25,13.86,13.86,0,0,1-2.59,4.77,11.23,11.23,0,0,1-4.07,3,14.15,14.15,0,0,1-10.7,0,11.51,11.51,0,0,1-4.1-3,13.59,13.59,0,0,1-2.62-4.77,19.94,19.94,0,0,1-.91-6.25,19.35,19.35,0,0,1,.94-6.25,14.12,14.12,0,0,1,2.64-4.77,11.48,11.48,0,0,1,4.1-3,13.88,13.88,0,0,1,10.59,0,11.15,11.15,0,0,1,4.08,3,14.42,14.42,0,0,1,2.61,4.77A19.35,19.35,0,0,1,410.05,213.66Zm-12.92-11a7.24,7.24,0,0,0-6.09,2.91q-2.22,2.91-2.22,8.11T391,221.8a7.25,7.25,0,0,0,6.12,2.88,7.14,7.14,0,0,0,6.09-2.91q2.16-2.91,2.16-8.11t-2.19-8.11A7.16,7.16,0,0,0,397.13,202.64Z"/><path d="M429.3,202.7a9.06,9.06,0,0,0-3.59.71,7.86,7.86,0,0,0-2.85,2.11A10.13,10.13,0,0,0,421,209a15.06,15.06,0,0,0-.69,4.74c0,3.55.82,6.27,2.45,8.14a8.24,8.24,0,0,0,6.55,2.82,9.84,9.84,0,0,0,4-.71,14.47,14.47,0,0,0,2.85-1.64,3.42,3.42,0,0,1,1,.93,2.3,2.3,0,0,1,.4,1.36,2.45,2.45,0,0,1-.63,1.61,5.35,5.35,0,0,1-1.74,1.3,11.63,11.63,0,0,1-2.62.9,15.27,15.27,0,0,1-3.27.34,15.59,15.59,0,0,1-5.47-.93,11.59,11.59,0,0,1-4.32-2.79,12.61,12.61,0,0,1-2.85-4.67,19.34,19.34,0,0,1-1-6.66,18.09,18.09,0,0,1,1.09-6.59,14,14,0,0,1,2.9-4.74,11.64,11.64,0,0,1,4.3-2.88,14.42,14.42,0,0,1,5.27-1,14.72,14.72,0,0,1,3.27.34,9.58,9.58,0,0,1,2.59,1,5.67,5.67,0,0,1,1.68,1.39,2.58,2.58,0,0,1,.6,1.58,2.2,2.2,0,0,1-.4,1.3,2.81,2.81,0,0,1-1,.87,14.74,14.74,0,0,0-2.73-1.61A9.42,9.42,0,0,0,429.3,202.7Z"/><path d="M446.89,216.57q1.55,8.12,9.8,8.11a10.58,10.58,0,0,0,4.32-.86,12.57,12.57,0,0,0,3.08-1.86,2.67,2.67,0,0,1,1.37,2.35,2.47,2.47,0,0,1-.72,1.67,6.47,6.47,0,0,1-1.93,1.43,12.85,12.85,0,0,1-2.85,1,15.53,15.53,0,0,1-3.5.37q-6.61,0-10.45-3.9t-3.84-11.4a19.33,19.33,0,0,1,.94-6.28,13.63,13.63,0,0,1,2.62-4.68,11.22,11.22,0,0,1,4-2.94,12.55,12.55,0,0,1,5.07-1,11.8,11.8,0,0,1,4.72.93,10.75,10.75,0,0,1,3.73,2.63,12.34,12.34,0,0,1,2.45,4,14.19,14.19,0,0,1,.88,5.1,2.74,2.74,0,0,1-.57,1.95,2.57,2.57,0,0,1-1.59.72Zm7.86-14a7.28,7.28,0,0,0-5.75,2.64q-2.28,2.63-2.39,7.52l15.66-2.35a9.49,9.49,0,0,0-2.2-5.61A6.68,6.68,0,0,0,454.75,202.57Zm.11-12.88c-.87,1.16-1.73,2.22-2.59,3.19s-1.66,1.93-2.42,2.88a3.36,3.36,0,0,1-1.7-.65,1.66,1.66,0,0,1-.69-1.39,2.1,2.1,0,0,1,.34-1.18c.23-.33.54-.72.92-1.17l3.47-4.09a9.81,9.81,0,0,1,1.31-1.05,2.41,2.41,0,0,1,1.36-.38,2.68,2.68,0,0,1,1.49.38,5.91,5.91,0,0,1,1.19,1.11l4.78,6.19a2.59,2.59,0,0,1-.42,1.49,1.53,1.53,0,0,1-1.34.62,1.69,1.69,0,0,1-1.11-.34,7.54,7.54,0,0,1-.88-.84Z"/><path d="M501,204.25a6.89,6.89,0,0,0-4.81-1.61,12,12,0,0,0-4,.62,14.16,14.16,0,0,0-3,1.42v23.16a6.45,6.45,0,0,1-.85.28,5,5,0,0,1-1.26.15c-1.63,0-2.44-.74-2.44-2.23V204.93a4.26,4.26,0,0,1,.48-2.14,5.26,5.26,0,0,1,1.68-1.64,16.51,16.51,0,0,1,3.93-1.8,17.81,17.81,0,0,1,5.52-.8q5.19,0,8.17,2.54c2,1.69,3,4.35,3,8v18.76a6.2,6.2,0,0,1-.88.28,5.05,5.05,0,0,1-1.23.15c-1.63,0-2.44-.74-2.44-2.23V209.32Q502.81,205.86,501,204.25Z"/><path d="M525.24,198.55A11.93,11.93,0,0,1,533.1,201q2.89,2.41,2.9,7.62v14.68a3.68,3.68,0,0,1-.48,2.07,5,5,0,0,1-1.45,1.33,14.11,14.11,0,0,1-3.62,1.52,18.73,18.73,0,0,1-5.15.65q-5.35,0-8.29-2.29a7.93,7.93,0,0,1-2.93-6.63,7.64,7.64,0,0,1,2.45-6.16,12.62,12.62,0,0,1,6.89-2.57l8.08-.86v-1.74a5.56,5.56,0,0,0-1.71-4.52,6.94,6.94,0,0,0-4.61-1.42,13.36,13.36,0,0,0-4.5.74,24.25,24.25,0,0,0-3.75,1.67,5.73,5.73,0,0,1-.83-1,2.15,2.15,0,0,1-.37-1.24,2.34,2.34,0,0,1,.4-1.42,3.87,3.87,0,0,1,1.25-1.05,13.29,13.29,0,0,1,3.53-1.34A19,19,0,0,1,525.24,198.55Zm.06,26.19a12.6,12.6,0,0,0,4-.52,8.66,8.66,0,0,0,2.25-1v-9l-7.06.8a8.35,8.35,0,0,0-4.38,1.46,4.07,4.07,0,0,0-1.43,3.37,4.27,4.27,0,0,0,1.66,3.62A8.14,8.14,0,0,0,525.3,224.74Z"/><path d="M562.88,220.35a7.64,7.64,0,0,1-2.68,6.19q-2.69,2.24-7.74,2.23a19,19,0,0,1-4-.4,12.75,12.75,0,0,1-3.1-1.06,6.43,6.43,0,0,1-2-1.48,2.66,2.66,0,0,1-.71-1.71,3,3,0,0,1,.37-1.42,3.45,3.45,0,0,1,1.11-1.18,17.44,17.44,0,0,0,3.59,2.2,10.89,10.89,0,0,0,4.67,1q5.93,0,5.92-4.33c0-2.36-1.31-3.88-3.93-4.59l-4.72-1.36a10,10,0,0,1-5.07-2.88,7.3,7.3,0,0,1-1.6-4.86,8.17,8.17,0,0,1,.6-3.09,7,7,0,0,1,1.85-2.61,9.19,9.19,0,0,1,3.11-1.76,13.19,13.19,0,0,1,4.35-.65,14,14,0,0,1,6.44,1.27c1.63.85,2.44,1.83,2.44,2.94a2.66,2.66,0,0,1-.37,1.42,2.27,2.27,0,0,1-1,.93,18.45,18.45,0,0,0-2.91-1.61,10.62,10.62,0,0,0-4.44-.86,7,7,0,0,0-4.07,1.05,3.4,3.4,0,0,0-1.51,3,3.58,3.58,0,0,0,.86,2.42,5.35,5.35,0,0,0,2.84,1.48l3.93,1.06a12.11,12.11,0,0,1,5.81,3.12A7.91,7.91,0,0,1,562.88,220.35Z"/><path d="M592.37,228.77a13.88,13.88,0,0,1-3.76-.5,12.11,12.11,0,0,1-2.9-1.17v12a6.69,6.69,0,0,1-.86.28,4.87,4.87,0,0,1-1.25.15c-1.63,0-2.45-.76-2.45-2.29V204.56a4.19,4.19,0,0,1,.4-2A4.78,4.78,0,0,1,583.2,201a21.38,21.38,0,0,1,3.67-1.71,14.43,14.43,0,0,1,4.87-.77,15.79,15.79,0,0,1,5.27.87,11,11,0,0,1,4.27,2.69,13.08,13.08,0,0,1,2.85,4.68,19.69,19.69,0,0,1,1,6.81,21.31,21.31,0,0,1-.94,6.69,13.13,13.13,0,0,1-2.65,4.73,10.67,10.67,0,0,1-4.07,2.82A13.91,13.91,0,0,1,592.37,228.77Zm-.63-4.09a8.28,8.28,0,0,0,6.41-2.63q2.42-2.62,2.42-8.45a16.31,16.31,0,0,0-.71-5.14,9.2,9.2,0,0,0-1.94-3.41,7.13,7.13,0,0,0-2.82-1.86,10.12,10.12,0,0,0-3.36-.55,9.61,9.61,0,0,0-3.47.55,18.5,18.5,0,0,0-2.56,1.24V222.7a9.13,9.13,0,0,0,2.56,1.42A9.64,9.64,0,0,0,591.74,224.68Z"/><path d="M616.8,227.84a7.27,7.27,0,0,1-.86.28,4.92,4.92,0,0,1-1.25.15c-1.63,0-2.45-.74-2.45-2.23v-21a4.54,4.54,0,0,1,.48-2.26,5.6,5.6,0,0,1,1.63-1.64,14.08,14.08,0,0,1,4-1.83,19.79,19.79,0,0,1,5.72-.77q4.56,0,4.56,2.48a3.78,3.78,0,0,1-.17,1.14,3.17,3.17,0,0,1-.46.9c-.38-.08-.87-.16-1.48-.25a13.91,13.91,0,0,0-1.82-.12,16.38,16.38,0,0,0-4.61.59,13.47,13.47,0,0,0-3.3,1.39Z"/><path d="M633.59,190.31a3.11,3.11,0,0,1,.83-2.19,2.76,2.76,0,0,1,2.13-.9,2.69,2.69,0,0,1,2.11.9,3.41,3.41,0,0,1,0,4.39,2.69,2.69,0,0,1-2.11.9,2.76,2.76,0,0,1-2.13-.9A3.14,3.14,0,0,1,633.59,190.31Zm5.24,37.53a7,7,0,0,1-.85.28,5,5,0,0,1-1.26.15c-1.63,0-2.45-.74-2.45-2.23V199.48a6.43,6.43,0,0,1,.89-.28,5.22,5.22,0,0,1,1.28-.16c1.59,0,2.39.77,2.39,2.3Z"/><path d="M679.48,204.06a6.15,6.15,0,0,0-4.27-1.42,9.17,9.17,0,0,0-6.6,2.85,9.84,9.84,0,0,1,.34,2.66v19.69a6.2,6.2,0,0,1-.88.28,5.05,5.05,0,0,1-1.23.15c-1.63,0-2.45-.74-2.45-2.23V208.52a5.71,5.71,0,0,0-1.59-4.46,6.26,6.26,0,0,0-4.33-1.42,9.41,9.41,0,0,0-3.44.62,12.27,12.27,0,0,0-2.76,1.42v23.16a6.69,6.69,0,0,1-.86.28,4.87,4.87,0,0,1-1.25.15c-1.63,0-2.45-.74-2.45-2.23V204.93a4,4,0,0,1,.49-2.08,5.93,5.93,0,0,1,1.68-1.7,16.45,16.45,0,0,1,8.65-2.6,12.78,12.78,0,0,1,5,.9,7.58,7.58,0,0,1,3.31,2.44,12.22,12.22,0,0,1,3.7-2.38,12.65,12.65,0,0,1,5.06-1,10.78,10.78,0,0,1,7.35,2.38q2.73,2.38,2.73,7.34v19.57a6.2,6.2,0,0,1-.88.28,5,5,0,0,1-1.22.15c-1.64,0-2.45-.74-2.45-2.23V208.52A5.67,5.67,0,0,0,679.48,204.06Z"/><path d="M697.42,216.57q1.55,8.12,9.79,8.11a10.59,10.59,0,0,0,4.33-.86,12.77,12.77,0,0,0,3.08-1.86,2.66,2.66,0,0,1,1.36,2.35,2.51,2.51,0,0,1-.71,1.67,6.52,6.52,0,0,1-1.94,1.43,12.58,12.58,0,0,1-2.84,1,15.59,15.59,0,0,1-3.5.37q-6.62,0-10.45-3.9t-3.85-11.4a19.6,19.6,0,0,1,.94-6.28,13.79,13.79,0,0,1,2.62-4.68,11.25,11.25,0,0,1,4-2.94,12.47,12.47,0,0,1,5.06-1,11.85,11.85,0,0,1,4.73.93,10.85,10.85,0,0,1,3.73,2.63,12.52,12.52,0,0,1,2.45,4,14.19,14.19,0,0,1,.88,5.1,2.74,2.74,0,0,1-.57,1.95,2.57,2.57,0,0,1-1.59.72Zm7.86-14a7.25,7.25,0,0,0-5.75,2.64q-2.28,2.63-2.4,7.52l15.66-2.35a9.55,9.55,0,0,0-2.19-5.61A6.69,6.69,0,0,0,705.28,202.57Z"/><path d="M728.28,227.84a6.45,6.45,0,0,1-.85.28,5,5,0,0,1-1.26.15c-1.63,0-2.44-.74-2.44-2.23v-21a4.54,4.54,0,0,1,.48-2.26,5.43,5.43,0,0,1,1.62-1.64,14.28,14.28,0,0,1,4-1.83,19.7,19.7,0,0,1,5.72-.77q4.54,0,4.55,2.48a3.49,3.49,0,0,1-.17,1.14,2.92,2.92,0,0,1-.45.9c-.38-.08-.88-.16-1.48-.25a14.06,14.06,0,0,0-1.83-.12,16.43,16.43,0,0,0-4.61.59,13.47,13.47,0,0,0-3.3,1.39Z"/><path d="M754.53,198.55a11.93,11.93,0,0,1,7.86,2.41q2.9,2.41,2.9,7.62v14.68a3.68,3.68,0,0,1-.48,2.07,4.89,4.89,0,0,1-1.46,1.33,13.88,13.88,0,0,1-3.61,1.52,18.75,18.75,0,0,1-5.16.65c-3.56,0-6.33-.76-8.28-2.29a7.93,7.93,0,0,1-2.93-6.63c0-2.72.81-4.77,2.45-6.16a12.62,12.62,0,0,1,6.89-2.57l8.08-.86v-1.74a5.56,5.56,0,0,0-1.71-4.52,7,7,0,0,0-4.61-1.42,13.36,13.36,0,0,0-4.5.74,24.25,24.25,0,0,0-3.75,1.67,5.73,5.73,0,0,1-.83-1,2.15,2.15,0,0,1-.37-1.24,2.34,2.34,0,0,1,.4-1.42,3.87,3.87,0,0,1,1.25-1.05A13.29,13.29,0,0,1,750.2,199,19,19,0,0,1,754.53,198.55Zm.05,26.19a12.63,12.63,0,0,0,4-.52,8.66,8.66,0,0,0,2.25-1v-9l-7.06.8a8.35,8.35,0,0,0-4.38,1.46,4.07,4.07,0,0,0-1.43,3.37,4.29,4.29,0,0,0,1.65,3.62A8.16,8.16,0,0,0,754.58,224.74Z"/><path d="M792.16,220.35a7.63,7.63,0,0,1-2.67,6.19q-2.68,2.24-7.75,2.23a19,19,0,0,1-4-.4,12.75,12.75,0,0,1-3.1-1.06,6.43,6.43,0,0,1-2-1.48,2.66,2.66,0,0,1-.71-1.71,2.9,2.9,0,0,1,.37-1.42,3.45,3.45,0,0,1,1.11-1.18,17.44,17.44,0,0,0,3.59,2.2,10.86,10.86,0,0,0,4.67,1c3.94,0,5.92-1.44,5.92-4.33,0-2.36-1.31-3.88-3.93-4.59L779,214.4a10,10,0,0,1-5.06-2.88,7.24,7.24,0,0,1-1.6-4.86,8.17,8.17,0,0,1,.6-3.09,6.87,6.87,0,0,1,1.85-2.61,9.24,9.24,0,0,1,3.1-1.76,13.3,13.3,0,0,1,4.36-.65,13.92,13.92,0,0,1,6.43,1.27c1.63.85,2.45,1.83,2.45,2.94a2.66,2.66,0,0,1-.37,1.42,2.3,2.3,0,0,1-1,.93,18.28,18.28,0,0,0-2.9-1.61,10.62,10.62,0,0,0-4.44-.86,7,7,0,0,0-4.07,1.05,3.4,3.4,0,0,0-1.51,3,3.58,3.58,0,0,0,.85,2.42,5.39,5.39,0,0,0,2.85,1.48l3.93,1.06a12.11,12.11,0,0,1,5.81,3.12A7.9,7.9,0,0,1,792.16,220.35Z"/><path d="M821.66,228.77a13.88,13.88,0,0,1-3.76-.5,12.11,12.11,0,0,1-2.9-1.17v12a6.69,6.69,0,0,1-.86.28,4.92,4.92,0,0,1-1.25.15c-1.63,0-2.45-.76-2.45-2.29V204.56a4.19,4.19,0,0,1,.4-2,4.69,4.69,0,0,1,1.65-1.54,21.38,21.38,0,0,1,3.67-1.71,14.43,14.43,0,0,1,4.87-.77,15.79,15.79,0,0,1,5.27.87,11,11,0,0,1,4.27,2.69,13.22,13.22,0,0,1,2.85,4.68,19.69,19.69,0,0,1,1.05,6.81,21.31,21.31,0,0,1-.94,6.69,13.13,13.13,0,0,1-2.65,4.73,10.67,10.67,0,0,1-4.07,2.82A13.91,13.91,0,0,1,821.66,228.77Zm-.63-4.09a8.28,8.28,0,0,0,6.41-2.63q2.41-2.62,2.42-8.45a16.31,16.31,0,0,0-.71-5.14,9.2,9.2,0,0,0-1.94-3.41,7.13,7.13,0,0,0-2.82-1.86,10.12,10.12,0,0,0-3.36-.55,9.57,9.57,0,0,0-3.47.55,18.5,18.5,0,0,0-2.56,1.24V222.7a9.13,9.13,0,0,0,2.56,1.42A9.64,9.64,0,0,0,821,224.68Z"/><path d="M866,213.66a19.93,19.93,0,0,1-.92,6.25,13.86,13.86,0,0,1-2.59,4.77,11.23,11.23,0,0,1-4.07,3,14.15,14.15,0,0,1-10.7,0,11.51,11.51,0,0,1-4.1-3,13.75,13.75,0,0,1-2.62-4.77,19.94,19.94,0,0,1-.91-6.25,19.35,19.35,0,0,1,.94-6.25,14,14,0,0,1,2.65-4.77,11.31,11.31,0,0,1,4.1-3,13.88,13.88,0,0,1,10.59,0,11.2,11.2,0,0,1,4.07,3,14.43,14.43,0,0,1,2.62,4.77A19.63,19.63,0,0,1,866,213.66Zm-12.93-11a7.24,7.24,0,0,0-6.09,2.91q-2.22,2.91-2.22,8.11t2.19,8.14a7.25,7.25,0,0,0,6.12,2.88,7.14,7.14,0,0,0,6.09-2.91c1.44-1.94,2.17-4.64,2.17-8.11s-.73-6.17-2.2-8.11A7.16,7.16,0,0,0,853,202.64Z"/><path d="M891.58,220.35a7.61,7.61,0,0,1-2.68,6.19q-2.67,2.24-7.74,2.23a19.06,19.06,0,0,1-4-.4,12.9,12.9,0,0,1-3.1-1.06,6.26,6.26,0,0,1-2-1.48,2.62,2.62,0,0,1-.72-1.71,3,3,0,0,1,.37-1.42,3.45,3.45,0,0,1,1.11-1.18,17.44,17.44,0,0,0,3.59,2.2,10.89,10.89,0,0,0,4.67,1q5.92,0,5.92-4.33c0-2.36-1.31-3.88-3.93-4.59l-4.72-1.36a10,10,0,0,1-5.07-2.88,7.29,7.29,0,0,1-1.59-4.86,8.16,8.16,0,0,1,.59-3.09,7,7,0,0,1,1.85-2.61,9.19,9.19,0,0,1,3.11-1.76,13.19,13.19,0,0,1,4.35-.65,14,14,0,0,1,6.44,1.27c1.63.85,2.45,1.83,2.45,2.94a2.76,2.76,0,0,1-.37,1.42,2.3,2.3,0,0,1-1,.93,18.28,18.28,0,0,0-2.9-1.61,10.7,10.7,0,0,0-4.45-.86,7,7,0,0,0-4.07,1.05,3.42,3.42,0,0,0-1.51,3,3.58,3.58,0,0,0,.86,2.42,5.39,5.39,0,0,0,2.85,1.48l3.92,1.06a12.11,12.11,0,0,1,5.81,3.12A7.91,7.91,0,0,1,891.58,220.35Z"/><path d="M898.07,190.31a3.1,3.1,0,0,1,.82-2.19,2.76,2.76,0,0,1,2.14-.9,2.67,2.67,0,0,1,2.1.9,3.41,3.41,0,0,1,0,4.39,2.67,2.67,0,0,1-2.1.9,2.76,2.76,0,0,1-2.14-.9A3.13,3.13,0,0,1,898.07,190.31Zm5.24,37.53a6.69,6.69,0,0,1-.86.28,4.92,4.92,0,0,1-1.25.15c-1.63,0-2.45-.74-2.45-2.23V199.48a6.2,6.2,0,0,1,.88-.28,5.28,5.28,0,0,1,1.28-.16c1.6,0,2.4.77,2.4,2.3Z"/><path d="M924.37,202.7a9,9,0,0,0-3.58.71,7.78,7.78,0,0,0-2.85,2.11,10.14,10.14,0,0,0-1.88,3.46,15.07,15.07,0,0,0-.68,4.74c0,3.55.81,6.27,2.45,8.14a8.22,8.22,0,0,0,6.54,2.82,9.86,9.86,0,0,0,4-.71,15.07,15.07,0,0,0,2.85-1.64,3.5,3.5,0,0,1,1,.93,2.24,2.24,0,0,1,.4,1.36,3,3,0,0,1-1.65,2.51,10.42,10.42,0,0,1-4.33,1.45,8.26,8.26,0,0,1,1.31,4.65,6.39,6.39,0,0,1-1.71,4.7,6,6,0,0,1-4.44,1.74c-2,0-3-.75-3-2.23a3.26,3.26,0,0,1,.34-1.49h.86a4,4,0,0,0,3-1,3.49,3.49,0,0,0,.94-2.57,7,7,0,0,0-.25-1.82,6.45,6.45,0,0,0-.88-1.89,15,15,0,0,1-4.9-1.27,11.12,11.12,0,0,1-3.82-2.88,13.73,13.73,0,0,1-2.5-4.55,19.58,19.58,0,0,1-.91-6.29,18.32,18.32,0,0,1,1.08-6.59,14.2,14.2,0,0,1,2.9-4.74,11.72,11.72,0,0,1,4.3-2.88,15.29,15.29,0,0,1,8.54-.62,9.45,9.45,0,0,1,2.59,1,5.54,5.54,0,0,1,1.68,1.39,2.58,2.58,0,0,1,.6,1.58,2.14,2.14,0,0,1-.4,1.3,2.7,2.7,0,0,1-1,.87,15.43,15.43,0,0,0-2.73-1.61A9.44,9.44,0,0,0,924.37,202.7Z"/><path d="M949,198.55a11.93,11.93,0,0,1,7.86,2.41q2.89,2.41,2.9,7.62v14.68a3.68,3.68,0,0,1-.48,2.07,5,5,0,0,1-1.45,1.33,14.11,14.11,0,0,1-3.62,1.52,18.73,18.73,0,0,1-5.15.65q-5.35,0-8.29-2.29a7.93,7.93,0,0,1-2.93-6.63,7.64,7.64,0,0,1,2.45-6.16,12.62,12.62,0,0,1,6.89-2.57l8.08-.86v-1.74a5.59,5.59,0,0,0-1.7-4.52,7,7,0,0,0-4.62-1.42,13.26,13.26,0,0,0-4.49.74,24,24,0,0,0-3.76,1.67,5.73,5.73,0,0,1-.83-1,2.15,2.15,0,0,1-.37-1.24,2.34,2.34,0,0,1,.4-1.42,3.87,3.87,0,0,1,1.25-1.05,13.29,13.29,0,0,1,3.53-1.34A19,19,0,0,1,949,198.55Zm-4.1-10.9a6.89,6.89,0,0,1,2.22.34c.68.23,1.32.47,1.91.71l1.68.72a4,4,0,0,0,1.53.34,1.76,1.76,0,0,0,1.51-.65,4.41,4.41,0,0,0,.72-1.71h.34a3.24,3.24,0,0,1,1.82.53,2,2,0,0,1,.8,1.83,3.58,3.58,0,0,1-1.14,2.81,4.32,4.32,0,0,1-3,1,7.76,7.76,0,0,1-2.28-.34c-.72-.23-1.39-.48-2-.75l-1.73-.74a3.8,3.8,0,0,0-1.49-.34,1.67,1.67,0,0,0-1.48.68,5,5,0,0,0-.68,1.73h-.34a3.1,3.1,0,0,1-1.82-.55,2.05,2.05,0,0,1-.8-1.8,3.38,3.38,0,0,1,1.31-2.82A4.69,4.69,0,0,1,944.87,187.65ZM949,224.74a12.6,12.6,0,0,0,4-.52,8.66,8.66,0,0,0,2.25-1v-9l-7.06.8a8.35,8.35,0,0,0-4.38,1.46,4.07,4.07,0,0,0-1.43,3.37,4.27,4.27,0,0,0,1.66,3.62A8.14,8.14,0,0,0,949,224.74Z"/><path d="M992.47,213.66a19.94,19.94,0,0,1-.91,6.25,14,14,0,0,1-2.59,4.77,11.32,11.32,0,0,1-4.07,3,14.18,14.18,0,0,1-10.71,0,11.6,11.6,0,0,1-4.1-3,13.73,13.73,0,0,1-2.61-4.77,19.93,19.93,0,0,1-.92-6.25,19.63,19.63,0,0,1,.94-6.25,14.14,14.14,0,0,1,2.65-4.77,11.48,11.48,0,0,1,4.1-3,13.88,13.88,0,0,1,10.59,0,11.12,11.12,0,0,1,4.07,3,14.26,14.26,0,0,1,2.62,4.77A19.35,19.35,0,0,1,992.47,213.66Zm-12.92-11a7.25,7.25,0,0,0-6.1,2.91q-2.22,2.91-2.22,8.11t2.19,8.14a7.28,7.28,0,0,0,6.13,2.88,7.14,7.14,0,0,0,6.09-2.91q2.16-2.91,2.16-8.11t-2.19-8.11A7.16,7.16,0,0,0,979.55,202.64Z"/></svg>