<svg xmlns="http://www.w3.org/2000/svg" viewBox="0 0 94.37 94.54"><defs><style>.cls-1{isolation:isolate;}.cls-2{fill:#fff;mix-blend-mode:multiply;}.cls-3{fill:#1ad03f;}</style></defs><g class="cls-1"><g id="Camada_1" data-name="Camada 1"><path class="cls-2" d="M560.22,233c0-.44,0-.88-.07-1.32,0-.14,0-.29,0-.44-.1-1.09-.24-2.19-.43-3.29s-.47-2.27-.77-3.38c-.09-.35-.21-.69-.31-1-.23-.77-.48-1.54-.76-2.29-.07-.19-.12-.38-.19-.57s-.12-.25-.18-.38a38.32,38.32,0,0,0-1.91-4.11c-.11-.2-.24-.4-.36-.61a37.6,37.6,0,0,0-2.54-4v0l0,0a39.42,39.42,0,0,0-3.78-4.39L534.3,192.5a40.41,40.41,0,0,1,3.77,4.39l0,.06a39.92,39.92,0,0,1,2.54,4c.11.2.24.4.35.61a39.46,39.46,0,0,1,1.92,4.11c.12.31.25.63.36,1,.28.75.53,1.51.76,2.28.11.35.22.69.31,1,.3,1.11.57,2.23.77,3.38s.36,2.49.46,3.73c0,.44,0,.88.06,1.32,0,.82.07,1.65.06,2.47,0,.48,0,.95-.05,1.43,0,.84-.11,1.67-.2,2.5,0,.34-.07.68-.11,1-.16,1.17-.36,2.32-.62,3.46a1.05,1.05,0,0,1-.05.19c-.25,1.08-.55,2.14-.89,3.18-.1.32-.21.63-.32.95-.29.82-.61,1.63-.94,2.43-.14.31-.26.62-.4.93-.48,1.06-1,2.09-1.56,3.1-.12.22-.26.42-.38.63-.49.82-1,1.64-1.54,2.43l-12.91-13a.81.81,0,0,1,.21.31.06.06,0,0,1,0,0,.88.88,0,0,1,0,.29,9.07,9.07,0,0,1-.16,2.06c0,.07,0,.15,0,.22a7.61,7.61,0,0,1-.55,1.65c0,.09-.09.19-.14.29a7.7,7.7,0,0,1-.9,1.39,8.45,8.45,0,0,1-1.49,1.38c-.16.12-.34.21-.51.32a9.65,9.65,0,0,1-1.22.67l-.62.26a12.07,12.07,0,0,1-1.26.38c-.19,0-.37.1-.55.13a9.43,9.43,0,0,1-1.71.17,5.24,5.24,0,0,1-.57,0c-5.5-.19-13.3-3.33-20.34-10.4l14.56,14.62c5.77,5.79,12,8.91,17.12,10l-.75.49c-.61.39-1.24.75-1.88,1.1-.46.25-.92.5-1.39.74-.67.34-1.37.64-2.08.94-.46.2-.91.41-1.38.59-.79.3-1.6.56-2.42.82-.41.13-.8.28-1.22.39a39.08,39.08,0,0,1-3.81.87,41.1,41.1,0,0,1-6.94.6,39.26,39.26,0,0,1-13.58-2.44c0-.11.07-.24.11-.35a10.58,10.58,0,0,0,.32-1.07c0-.15,0-.29.06-.43a2.74,2.74,0,0,0,.05-.28c0-.08,0-.16,0-.24a6.8,6.8,0,0,0,0-1s0-.05,0-.08a6.87,6.87,0,0,0-.41-1.68.11.11,0,0,1,0,0,10.63,10.63,0,0,0-.7-1.45,34.6,34.6,0,0,1-1.82-3.86c-.12-.3-.19-.61-.3-.91a32.08,32.08,0,0,1-1-3.21c-.13-.5-.2-1-.3-1.51-.17-.88-.34-1.77-.44-2.66s-.19-1.93-.21-2.89c0-.12,0-.23,0-.34,0-1.09.06-2.16.15-3.24a33,33,0,0,1,.66-4.33.43.43,0,0,1,0-.05,34.39,34.39,0,0,1,1.24-4.09c.14-.39.32-.78.48-1.17q.63-1.54,1.41-3c.3-.55.59-1.1.91-1.63.19-.32.39-.64.59-1,.5-.77,1-1.52,1.61-2.26.15-.19.28-.39.43-.57.72-.89,1.49-1.74,2.29-2.56.21-.21.44-.41.65-.61s.59-.52.89-.78c.11.3.24.61.35.91h0a2.11,2.11,0,0,1,.12,1v.05a3.21,3.21,0,0,1-.37,1.06l0,.05c-.06.11-.16.23-.23.34a12.27,12.27,0,0,1-.76,1.08c-.35.43-.74.88-1.19,1.4a.52.52,0,0,0-.1.11,2.78,2.78,0,0,0-.26.37s0,0,0,0l0,0-.09.18a1.41,1.41,0,0,0-.06.22s0,.06,0,.1v0s0,.05,0,.07a2.26,2.26,0,0,0,0,.26.53.53,0,0,0,0,.12,1.6,1.6,0,0,0,.05.21.8.8,0,0,0,0,.15,2.7,2.7,0,0,0,.17.34,27.61,27.61,0,0,0,1.84,2.8,1.27,1.27,0,0,0,.11.13,27.34,27.34,0,0,0,2.47,2.88l14.57,14.62a26.45,26.45,0,0,1-2.48-2.88,32.22,32.22,0,0,1-2-2.92,2.9,2.9,0,0,1-.2-.5,1.42,1.42,0,0,1,0-.2,1.45,1.45,0,0,1,0-.46v0a1.48,1.48,0,0,1,.16-.49s0,0,0,0a3.88,3.88,0,0,1,.37-.52c.43-.48.81-.91,1.14-1.32l.05-.08a11.17,11.17,0,0,0,.77-1.08c.06-.09.16-.21.21-.3l0,0s0,0,0-.05a4.15,4.15,0,0,0,.23-.48q.07-.21.12-.39a1.13,1.13,0,0,0,0-.18.43.43,0,0,1,0-.05s0-.07,0-.11a2,2,0,0,0,0-.35,2.17,2.17,0,0,0-.13-.56h0c-.19-.52-.38-1-.57-1.53l-.4-1c-.69-1.76-1.42-3.51-2.16-5.25a4.85,4.85,0,0,0-.4-.66,2.76,2.76,0,0,0-.21-.25l-8.81-8.84c.69-.5,1.39-1,2.12-1.46l.35-.24a33.63,33.63,0,0,1,3.15-1.66l.91-.4c.84-.36,1.7-.69,2.58-1l1-.34a36,36,0,0,1,3.65-.9,33.67,33.67,0,0,1,6-.55,32.7,32.7,0,0,1,23.18,9.63l-14.57-14.62a32.7,32.7,0,0,0-23.18-9.63,32.58,32.58,0,0,0-9.69,1.45l-1,.33c-.88.3-1.74.63-2.57,1l-.92.4a31.42,31.42,0,0,0-3.15,1.66l-.35.23c-.89.56-1.74,1.15-2.56,1.78-.28.21-.55.43-.82.65-.69.57-1.35,1.15-2,1.76l-.65.62a30.84,30.84,0,0,0-2.18,2.4l-.12.15c-.15.19-.28.39-.43.58-.56.73-1.1,1.48-1.61,2.26-.2.31-.39.63-.59,1s-.4.62-.57.94-.21.47-.33.7c-.53,1-1,2-1.42,3-.11.27-.27.52-.37.8-.05.12-.07.25-.11.37a33.69,33.69,0,0,0-1.24,4.08s0,0,0,.05h0a34.79,34.79,0,0,0-.66,4.33c0,.14-.05.27-.06.41q-.1,1.41-.09,2.82c0,.12,0,.24,0,.35,0,.77,0,1.54.11,2.31,0,.19.08.38.1.57.1.89.26,1.78.43,2.67.1.5.18,1,.3,1.51.27,1.07.62,2.13,1,3.19.1.28.15.56.26.83a.31.31,0,0,0,.05.1,31.37,31.37,0,0,0,1.82,3.86,10.41,10.41,0,0,1,.7,1.49,6.61,6.61,0,0,1,.41,1.69,5.92,5.92,0,0,1,0,1.33c0,.09,0,.19,0,.28a8.22,8.22,0,0,1-.39,1.49c-.49,1.4-.89,2.82-1.28,4.29s-.78,3-1.22,4.56h0l5.34,5.36c-7.71,2-12.87,3.4-14.65,3.75l14.57,14.63c2.14-.42,9.13-2.38,19.65-5a3.29,3.29,0,0,1,.79-.09,3.79,3.79,0,0,1,1.65.36A40,40,0,0,0,520.33,275a41.19,41.19,0,0,0,6.94-.6,36.36,36.36,0,0,0,3.81-.87c.41-.11.81-.26,1.21-.39.82-.25,1.64-.51,2.43-.82.47-.18.92-.38,1.37-.58.71-.3,1.41-.61,2.1-1,.46-.23.91-.49,1.37-.74.64-.35,1.28-.71,1.89-1.1.45-.28.89-.57,1.32-.86.6-.41,1.18-.82,1.74-1.26s.84-.64,1.24-1,1.09-.93,1.61-1.41.76-.7,1.12-1.07c.52-.52,1-1.06,1.51-1.6.33-.37.66-.73,1-1.1.09-.12.21-.23.3-.35.4-.49.76-1,1.13-1.52.26-.35.54-.69.79-1.06.55-.8,1.07-1.63,1.56-2.48.13-.21.27-.41.39-.62l0-.06c.56-1,1.06-2,1.53-3,.14-.3.26-.62.39-.93.2-.46.41-.92.59-1.39s.23-.69.36-1,.22-.63.32-.95c.33-1,.64-2.1.89-3.18a1.21,1.21,0,0,1,0-.18v0c.25-1.13.45-2.28.6-3.43.05-.34.08-.68.12-1s.12-.9.15-1.35,0-.78,0-1.16,0-1,0-1.42C560.28,234.61,560.26,233.79,560.22,233Z" transform="translate(-465.91 -181)"/><path class="cls-3" d="M492.68,202.34a13.75,13.75,0,0,1,2.29.27c.45.06.86.72,1.1,1.2,1.09,2.56,2.19,5.12,3.13,7.73.53,1.39-.44,2.71-2.47,5a1.73,1.73,0,0,0-.29,2.25,26.76,26.76,0,0,0,13.69,11.83,2.12,2.12,0,0,0,.74.15,1.74,1.74,0,0,0,1.34-.72c2.55-3.08,3.27-4.43,4.31-4.43a2,2,0,0,1,.86.24c8,3.83,8.61,4,8.63,4.88.21,6.41-5.37,8.92-9.15,8.92a5.24,5.24,0,0,1-.57,0c-7.73-.27-20-6.37-28.37-21.06-2.93-5.2-2.47-11.13,2-15.22A3.9,3.9,0,0,1,492.68,202.34Z" transform="translate(-465.91 -181)"/><path class="cls-3" d="M545.13,213.29a40.08,40.08,0,0,1-32.43,46.48,41.1,41.1,0,0,1-6.94.6A40.12,40.12,0,0,1,488,256.16a3.78,3.78,0,0,0-1.64-.36,3.44,3.44,0,0,0-.8.09c-10.52,2.65-17.51,4.6-19.65,5,.46-1.71.87-3.21,1.27-4.72,1.36-4.81,2.75-9.6,4-14.41a3.62,3.62,0,0,0-.19-2.32,39.87,39.87,0,0,1,26.4-57.37,40.83,40.83,0,0,1,9.32-1.09A39.15,39.15,0,0,1,545.13,213.29Zm-34.06,40.1a33.41,33.41,0,0,0,27.84-37.63,32.79,32.79,0,0,0-32.44-28.23,33.67,33.67,0,0,0-6,.55c-22.29,4.09-34.31,28.91-23.38,48.59a6.8,6.8,0,0,1,.67,6.28c-1,2.8-1.61,5.69-2.5,8.85,3.94-1,7.59-1.93,11.21-3a3.67,3.67,0,0,1,.95-.13,3.53,3.53,0,0,1,1.76.52,32.5,32.5,0,0,0,16.53,4.59,33.32,33.32,0,0,0,5.4-.44" transform="translate(-465.91 -181)"/></g></g></svg>