<?xml version="1.0" encoding="utf-8"?>
<!-- Generator: Adobe Illustrator 25.2.1, SVG Export Plug-In . SVG Version: 6.00 Build 0)  -->
<svg version="1.1" id="Camada_1" xmlns="http://www.w3.org/2000/svg" xmlns:xlink="http://www.w3.org/1999/xlink" x="0px" y="0px"
	 viewBox="0 0 32 22.4" style="enable-background:new 0 0 32 22.4;" xml:space="preserve">
<style type="text/css">
	.st0{fill:#FE0000;}
</style>
<g id="youtube" transform="translate(120.527 -81.622)">
	<g id="Grupo_145">
		<path id="Caminho_283" class="st0" d="M-89.3,84.5c1.1,3,1.1,14-0.3,16.9c-0.4,0.8-1,1.4-1.7,1.8c-1.1,0.6-7.3,0.8-13.5,0.8
			c-5.7,0-11.2-0.2-12.5-0.6c-1.2-0.4-2.1-1.2-2.4-2.4c-1-2.9-1.3-15.2,0.8-17.6c0.7-0.8,1.6-1.3,2.7-1.4c2.5-0.3,7.2-0.4,11.9-0.4
			c5.8,0,11.6,0.2,12.7,0.6C-90.6,82.6-89.7,83.4-89.3,84.5z M-108.5,97.7c3.3-1.7,6.6-3.4,10-5.2c-3.3-1.7-6.6-3.5-9.9-5.2
			C-108.4,90.8-108.5,94.2-108.5,97.7"/>
	</g>
</g>
</svg>
